<?xml version="1.0" standalone="no"?><!DOCTYPE svg PUBLIC "-//W3C//DTD SVG 1.1//EN" "http://www.w3.org/Graphics/SVG/1.1/DTD/svg11.dtd"><svg t="1597149212180" class="icon" viewBox="0 0 1024 1024" version="1.1" xmlns="http://www.w3.org/2000/svg" p-id="25289" xmlns:xlink="http://www.w3.org/1999/xlink" width="200" height="200"><defs><style type="text/css"></style></defs><path d="M472.615 590.77L315.077 433.23h315.077z" fill="#ffffff" p-id="25290"></path><path d="M472.615 858.585c-17.329 0-31.507-14.179-31.507-31.508V590.769c0-17.329 14.178-31.507 31.507-31.507s31.508 14.178 31.508 31.507v236.308c0 17.33-14.178 31.508-31.508 31.508z" fill="#ffffff" p-id="25291"></path><path d="M472.615 622.277c-7.877 0-15.753-3.15-22.055-9.452L135.483 297.748c-8.665-8.665-11.815-22.843-7.09-34.659 4.727-11.027 16.542-18.904 29.145-18.904h630.154c12.603 0 24.419 7.877 29.145 19.692 4.726 11.815 2.363 25.206-7.09 34.658L494.672 613.612c-6.302 5.514-14.179 8.665-22.056 8.665zM233.945 307.2l238.67 238.67L711.286 307.2H233.945z" fill="#ffffff" p-id="25292"></path><path d="M472.615 827.077l157.539 78.77H315.077z" fill="#ffffff" p-id="25293"></path><path d="M630.154 937.354H315.077c-14.966 0-27.57-10.24-30.72-24.419-3.15-14.178 3.15-29.144 16.541-35.446l157.539-78.769c8.665-4.726 19.692-4.726 28.357 0l157.538 78.77c13.391 6.3 19.693 21.267 16.542 35.445-3.15 14.179-15.754 24.419-30.72 24.419z m-181.957-63.016h48.05l-24.42-11.815-23.63 11.815zM393.847 307.2c-13.392 0-25.207-7.877-29.933-21.268l-47.262-136.27H157.538c-17.329 0-31.507-14.179-31.507-31.508s14.178-31.508 31.507-31.508h181.17c13.39 0 25.206 8.665 29.932 21.268l55.138 157.538c5.514 16.542-3.15 34.659-19.692 40.173-3.15 0.787-7.09 1.575-10.24 1.575z" fill="#ffffff" p-id="25294"></path><path d="M708.923 275.692a78.77 78.77 0 1 0 157.539 0 78.77 78.77 0 1 0-157.539 0z" fill="#ffffff" p-id="25295"></path><path d="M787.692 385.97c-60.652 0-110.277-49.625-110.277-110.278s49.625-110.277 110.277-110.277S897.97 215.04 897.97 275.692 848.345 385.97 787.692 385.97z m0-157.54c-25.994 0-47.261 21.268-47.261 47.262s21.267 47.262 47.261 47.262 47.262-21.268 47.262-47.262-21.268-47.261-47.262-47.261z" fill="#ffffff" p-id="25296"></path></svg>