<?xml version="1.0" standalone="no"?><!DOCTYPE svg PUBLIC "-//W3C//DTD SVG 1.1//EN" "http://www.w3.org/Graphics/SVG/1.1/DTD/svg11.dtd"><svg t="1597149325687" class="icon" viewBox="0 0 1024 1024" version="1.1" xmlns="http://www.w3.org/2000/svg" p-id="26210" xmlns:xlink="http://www.w3.org/1999/xlink" width="200" height="200"><defs><style type="text/css"></style></defs><path d="M204.896 863.104a126.08 126.08 0 0 1-10.4-0.416C86.72 853.856 14.912 692.896 31.008 496.288 47.36 296.352 141.024 151.744 249.44 161.056c48.384 3.968 81.92 42.912 105.76 76.416A32 32 0 0 1 303.04 274.56c-23.456-32.96-41.6-48.288-58.816-49.728-59.008-4.256-135.584 107.584-149.408 276.672-13.824 169.056 44.192 292.384 104.928 297.344 52.96 4.96 105.024-61.152 132.192-166.848a31.968 31.968 0 0 1 30.976-24h299.904c14.432 0 27.072 9.664 30.88 23.552 29.152 106.688 81.216 172.352 135.328 166.848 29.408-2.976 57.28-33.632 76.448-84.096 22.208-58.592 30.016-135.04 21.888-215.232s-31.072-153.536-64.64-206.56c-28.928-45.696-62.016-70.592-91.744-67.2-18.336 1.888-39.616 19.2-59.808 48.736a31.968 31.968 0 0 1-26.432 13.952H448a32 32 0 0 1 0-64h220.48c29.28-37.92 61.568-58.848 96.064-62.336 107.328-10.944 206.592 134.592 226.496 331.008 9.088 89.888-0.032 176.672-25.76 244.384-28.512 75.072-74.592 119.456-129.824 125.056-81.76 8.352-156.128-63.968-196.544-190.08h-251.808c-36.48 119.52-104.512 191.072-182.208 191.072zM320 448H288v-32a32 32 0 0 0-64 0v32H192a32 32 0 0 0 0 64h32v32a32 32 0 1 0 64 0v-32h32a32 32 0 0 0 0-64z m416-64a64 64 0 1 1 128 0 64 64 0 1 1-128 0z m-128 128a64 64 0 1 1 128 0 64 64 0 1 1-128 0z" p-id="26211" fill="#ffffff"></path></svg>