<?xml version="1.0" standalone="no"?><!DOCTYPE svg PUBLIC "-//W3C//DTD SVG 1.1//EN" "http://www.w3.org/Graphics/SVG/1.1/DTD/svg11.dtd"><svg t="1597149368697" class="icon" viewBox="0 0 1024 1024" version="1.1" xmlns="http://www.w3.org/2000/svg" p-id="27173" xmlns:xlink="http://www.w3.org/1999/xlink" width="200" height="200"><defs><style type="text/css"></style></defs><path d="M485.679407 394.657185a113.929481 113.929481 0 0 1-114.157037-114.157037 113.929481 113.929481 0 0 1 114.157037-114.157037 113.929481 113.929481 0 0 1 114.157037 114.157037 113.929481 113.929481 0 0 1-114.157037 114.157037z m0-158.037333c-24.613926 0-43.918222 19.304296-43.918222 43.880296s19.342222 43.918222 43.918222 43.918222c24.576 0 43.880296-19.342222 43.880297-43.918222 0-24.576-19.342222-43.880296-43.880297-43.880296zM292.484741 640.493037a113.929481 113.929481 0 0 1-114.157037-114.157037 113.929481 113.929481 0 0 1 114.157037-114.157037 113.929481 113.929481 0 0 1 114.157037 114.157037 113.929481 113.929481 0 0 1-114.157037 114.157037z m0-158.037333c-24.576 0-43.880296 19.304296-43.880297 43.880296s19.342222 43.918222 43.880297 43.918222c24.613926 0 43.918222-19.342222 43.918222-43.918222 0-24.576-19.342222-43.880296-43.918222-43.880296z m245.873778 351.194074a113.929481 113.929481 0 0 1-114.157038-114.157037 113.929481 113.929481 0 0 1 114.157038-114.157037 113.929481 113.929481 0 0 1 114.157037 114.157037 113.929481 113.929481 0 0 1-114.157037 114.157037z m0-158.037334c-24.613926 0-43.918222 19.342222-43.918223 43.880297 0 24.613926 19.342222 43.918222 43.918223 43.918222 24.576 0 43.880296-19.342222 43.880296-43.918222 0-24.576-19.342222-43.880296-43.880296-43.880297z m193.15674-87.798518a113.929481 113.929481 0 0 1-114.157037-114.157037 113.929481 113.929481 0 0 1 114.157037-114.157037 113.929481 113.929481 0 0 1 114.157037 114.157037 113.929481 113.929481 0 0 1-114.157037 114.157037z m0-158.037333c-24.613926 0-43.918222 19.304296-43.918222 43.880296s19.342222 43.918222 43.918222 43.918222c24.576 0 43.880296-19.342222 43.880297-43.918222 0-24.576-19.342222-43.880296-43.880297-43.880296z m237.037037 561.910518H512C241.588148 991.687111 20.328296 770.427259 20.328296 500.015407 20.328296 229.603556 241.588148 8.305778 512 8.305778c270.411852 0 491.671704 221.259852 491.671704 491.709629 0 133.461333-52.679111 258.123852-147.493926 351.194074-14.032593 14.032593-36.864 14.032593-49.152 0-14.032593-14.032593-14.032593-36.864 0-49.189925 80.782222-80.782222 126.407111-187.885037 126.407111-302.004149 0-231.803259-189.62963-421.470815-421.432889-421.470814s-421.432889 189.62963-421.432889 421.470814c0 231.765333 189.62963 421.432889 421.432889 421.432889h456.552296c19.342222 0 35.119407 15.815111 35.119408 35.119408 0 19.342222-15.777185 35.119407-35.119408 35.119407z" p-id="27174" fill="#ffffff"></path></svg>