<?xml version="1.0" standalone="no"?><!DOCTYPE svg PUBLIC "-//W3C//DTD SVG 1.1//EN" "http://www.w3.org/Graphics/SVG/1.1/DTD/svg11.dtd"><svg t="1597149423216" class="icon" viewBox="0 0 1303 1024" version="1.1" xmlns="http://www.w3.org/2000/svg" p-id="28978" xmlns:xlink="http://www.w3.org/1999/xlink" width="254.4921875" height="200"><defs><style type="text/css"></style></defs><path d="M1216.232727 370.501818a29.323636 29.323636 0 0 0-3.630545-1.675636l-148.014546-57.809455-64.232727-199.68c-11.915636-35.467636-46.545455-48.593455-71.586909-55.389091a28.299636 28.299636 0 0 0-5.957818-0.930909L592.058182 38.167273C536.948364 26.530909 485.282909 46.545455 460.8 87.691636c-18.525091 31.278545-18.432 68.887273 0.186182 100.910546l80.989091 177.989818-151.831273 90.018909c-23.179636 12.381091-40.029091 32.674909-47.569455 57.344a94.021818 94.021818 0 0 0 8.005819 73.914182c17.501091 31.371636 51.2 50.827636 87.970909 50.827636 16.570182 0 32.954182-4.096 47.569454-11.729454l266.891637-140.567273c23.272727-12.194909 40.773818-33.326545 48.314181-57.902545a94.021818 94.021818 0 0 0-7.819636-73.262546l-40.587636-83.781818 85.922909-6.609455 59.857454 127.906909a102.4 102.4 0 0 0 48.965819 53.992728l187.764363 78.196363c10.984727 5.585455 27.741091 8.936727 45.614546 8.936728 36.491636 0 66.001455-14.149818 80.802909-38.818909 20.107636-33.512727 13.684364-60.509091 4.840727-77.451637-9.309091-17.780364-25.879273-33.233455-50.548364-47.104m-2.234181 97.373091c-6.795636 11.170909-26.996364 12.101818-32.954182 12.101818a66.839273 66.839273 0 0 1-19.456-2.513454 28.672 28.672 0 0 0-2.978909-1.489455l-187.112728-78.103273a47.476364 47.476364 0 0 1-21.690181-26.437818l-68.421819-146.152727a27.927273 27.927273 0 0 0-27.461818-15.732364l-145.221818 11.170909a27.927273 27.927273 0 0 0-21.876364 13.405091 26.251636 26.251636 0 0 0-1.117091 24.948364l57.995637 119.808 0.744727 1.489455c5.771636 10.146909 7.074909 21.783273 3.723636 32.86109a43.752727 43.752727 0 0 1-21.410909 25.786182l-266.984727 140.567273a44.962909 44.962909 0 0 1-60.322909-17.408 41.797818 41.797818 0 0 1-3.537455-32.861091 43.101091 43.101091 0 0 1 21.41091-25.693091l1.210181-0.651636L591.685818 400.290909a26.530909 26.530909 0 0 0 10.984727-33.885091L511.255273 165.701818a29.044364 29.044364 0 0 0-1.396364-2.699636 46.08 46.08 0 0 1-0.837818-48.407273c9.774545-16.477091 28.485818-25.879273 51.2-25.879273 6.981818 0 14.242909 0.930909 21.690182 2.513455a28.113455 28.113455 0 0 0 4.840727 0.651636l329.914182 16.756364c23.924364 6.888727 29.137455 13.963636 30.906182 19.083636l67.956363 211.595637c2.420364 7.633455 8.378182 13.963636 16.104728 16.942545l158.254545 61.812364c17.501091 10.24 24.576 18.711273 27.461818 24.203636 2.792727 5.306182 4.654545 12.474182-3.351273 25.693091" p-id="28979" fill="#ffffff"></path><path d="M1175.272727 246.132364c6.330182 0 12.660364-0.558545 18.990546-1.396364 68.980364-10.146909 116.736-72.890182 106.309818-139.915636-9.309091-59.578182-63.022545-104.634182-125.114182-104.634182-6.237091 0-12.660364 0.465455-18.897454 1.396363-69.073455 10.053818-116.829091 72.797091-106.40291 139.822546 9.309091 59.671273 63.022545 104.727273 125.114182 104.727273M1164.753455 54.830545a70.842182 70.842182 0 0 1 80.98909 57.995637 69.445818 69.445818 0 0 1-59.764363 78.568727c-38.353455 5.585455-75.217455-21.038545-80.989091-57.995636a69.445818 69.445818 0 0 1 59.764364-78.568728M980.247273 941.428364l-78.289455 24.203636c-21.410909 6.516364-58.368 2.141091-77.544727-9.122909L43.473455 494.312727a28.206545 28.206545 0 0 0-38.167273 9.029818 26.530909 26.530909 0 0 0 9.309091 37.050182l780.939636 462.103273c21.969455 13.032727 52.689455 20.107636 81.640727 20.107636 14.708364 0 29.044364-1.861818 41.518546-5.585454l78.289454-24.203637a26.810182 26.810182 0 0 0 18.152728-33.792 27.927273 27.927273 0 0 0-34.909091-17.687272" p-id="28980" fill="#ffffff"></path></svg>