<?xml version="1.0" standalone="no"?><!DOCTYPE svg PUBLIC "-//W3C//DTD SVG 1.1//EN" "http://www.w3.org/Graphics/SVG/1.1/DTD/svg11.dtd"><svg t="1597149480151" class="icon" viewBox="0 0 1024 1024" version="1.1" xmlns="http://www.w3.org/2000/svg" p-id="32883" xmlns:xlink="http://www.w3.org/1999/xlink" width="200" height="200"><defs><style type="text/css"></style></defs><path d="M452.489143 499.830857c0-28.644571-22.729143-47.734857-51.190857-51.867429-5.897143-0.859429-6.902857-0.493714-15.945143-0.859429-4.233143-47.296-44.077714-85.302857-92.681143-85.302857-39.259429 0-72.777143 28.726857-86.464 62.939429-7.753143-3.163429-16.210286-4.973714-25.106286-4.973714-36.589714 0-66.258286 29.531429-66.258286 65.974857 0 36.425143 29.668571 62.912 66.258286 62.912l220.187429 0C430.061714 548.653714 452.489143 528.484571 452.489143 499.830857M792.749714 284.525714c-17.371429-6.162286-34.139429-7.835429-48.832-6.774857 21.220571-8.886857 49.508571-15.442286 86.226286-6.464 46.134857 11.291429 78.985143 42.441143 78.985143 42.441143-0.283429-0.356571-0.585143-0.704-0.886857-1.060571 0.402286 0.356571 0.658286 0.612571 0.658286 0.612571S855.936 194.258286 775.771429 207.140571c-42.130286 6.756571-64.484571 37.165714-72.585143 58.285714-3.968-22.272-21.092571-51.968-61.357714-66.432-76.388571-27.410286-149.714286 75.401143-149.714286 75.401143s0.310857-0.201143 0.758857-0.466286C492.690286 274.139429 492.589714 274.285714 492.589714 274.285714s24.996571-16.100571 59.693714-23.616c7.981714-1.709714 16.502857-2.944 25.325714-3.437714 38.198857-2.075429 64.996571 9.874286 84.269714 22.674286-28.736-7.36-67.675429-5.275429-107.602286 21.924571-87.808 59.84-43.986286 209.517714-37.549714 229.787429l0.868571 0.941714c0.685714-9.581714 6.153143-66.907429 39.104-118.089143 33.462857-51.968 75.849143-71.488 108.854857-81.673143-3.126857 9.636571-5.613714 21.083429-7.926857 34.148571-8 45.257143-25.462857 115.611429-68.214857 203.556571-7.890286 16.182857-20.708571 29.595429-36.379429 40.777143-27.254857-6.290286-56.621714-10.633143-87.250286-10.633143-87.241143 0-164.370286 28.726857-211.401143 71.350857l-19.968 21.275429c-17.92 22.765714-28.096 48.484571-28.096 75.776 0 9.206857 5.211429 17.472 14.464 24.850286 80.576 67.867429 506.605714 59.968 506.605714-23.789714 0-37.092571-19.620571-71.36-51.236571-99.108571 0.027429 0.027429 0.045714 0.054857 0.091429 0.100571-0.612571-0.557714-1.353143-1.042286-1.984-1.581714-20.068571 15.798857-66.733714 13.732571-66.733714 13.732571 23.085714-24.283429 27.282286-29.604571 34.249143-39.204571 40.265143-70.985143 78.665143-199.616 86.427429-251.008 3.300571-23.442286 5.321143-39.844571 5.056-53.083429 28.717714 16.731429 56.594286 36.434286 78.692571 76.370286 0.228571 0.402286 0.466286 0.832 0.685714 1.261714 1.024 1.901714 2.038857 3.858286 3.026286 5.851429 2.578286 5.129143 5.065143 10.468571 7.378286 16.182857 24.841143 61.805714 15.954286 124.708571 15.954286 124.708571s1.362286-2.413714 3.629714-6.765714c-0.246857 0.612571-0.493714 1.289143-0.731429 1.874286 14.08-26.797714 76.982857-157.696 5.001143-229.906286C829.302857 301.888 810.697143 290.834286 792.749714 284.525714M292.571429 402.861714c-12.361143 1.398857-23.140571 7.972571-29.705143 17.837714 0 0-1.709714 9.005714-10.221714 9.005714-11.565714 0-9.545143-10.733714-9.545143-10.733714C255.442286 391.597714 283.977143 383.433143 292.571429 384c6.473143 1.142857 9.142857 4.086857 9.142857 9.142857C301.714286 401.874286 292.571429 402.861714 292.571429 402.861714z" p-id="32884" fill="#ffffff"></path></svg>