<?xml version="1.0" standalone="no"?><!DOCTYPE svg PUBLIC "-//W3C//DTD SVG 1.1//EN" "http://www.w3.org/Graphics/SVG/1.1/DTD/svg11.dtd"><svg t="1597150247431" class="icon" viewBox="0 0 1024 1024" version="1.1" xmlns="http://www.w3.org/2000/svg" p-id="49084" xmlns:xlink="http://www.w3.org/1999/xlink" width="200" height="200"><defs><style type="text/css"></style></defs><path d="M886.1 136C842 92 783.9 69.9 725.8 69.9c-58.1 0-116.2 22-160.3 66.1L133.7 567.8c-88.2 88.2-88.2 232.4 0 320.6 44.1 44.1 102.2 66.1 160.3 66.1 58.1 0 116.2-22 160.3-66.1l431.8-431.8c88.2-88.1 88.2-232.4 0-320.6zM422.5 856.6c-17.2 17.2-37.4 30.6-59.9 39.7-21.8 8.8-44.9 13.3-68.6 13.3-23.7 0-46.8-4.5-68.6-13.3-22.5-9.1-42.7-22.4-59.9-39.7-17.2-17.2-30.6-37.4-39.7-59.9-8.8-21.8-13.3-44.9-13.3-68.6 0-23.7 4.5-46.8 13.3-68.6 9.1-22.5 22.4-42.7 39.7-59.9l186.9-186.9 257 257-186.9 186.9z m431.8-431.8l-213 213-257-257 213-213c17.2-17.2 37.4-30.6 59.9-39.7 21.8-8.8 44.9-13.3 68.6-13.3s46.8 4.5 68.6 13.3c22.5 9.1 42.7 22.4 59.9 39.7 17.2 17.2 30.6 37.4 39.7 59.9 8.8 21.8 13.3 44.9 13.3 68.6 0 23.7-4.5 46.8-13.3 68.6-9.1 22.5-22.5 42.7-39.7 59.9z" p-id="49085" fill="#ffffff"></path></svg>