<?xml version="1.0" standalone="no"?><!DOCTYPE svg PUBLIC "-//W3C//DTD SVG 1.1//EN" "http://www.w3.org/Graphics/SVG/1.1/DTD/svg11.dtd"><svg t="1597150308592" class="icon" viewBox="0 0 1092 1024" version="1.1" xmlns="http://www.w3.org/2000/svg" p-id="50580" xmlns:xlink="http://www.w3.org/1999/xlink" width="213.28125" height="200"><defs><style type="text/css"></style></defs><path d="M927.061333 228.488533h-189.8496V98.235733A61.8496 61.8496 0 0 0 675.157333 36.181333H417.109333a61.8496 61.8496 0 0 0-62.0544 62.0544v130.2528H165.205333A123.562667 123.562667 0 0 0 41.710933 351.982933v516.7104c0 68.1984 55.296 123.4944 123.4944 123.4944h761.856a123.562667 123.562667 0 0 0 123.4944-123.4944V351.982933a123.562667 123.562667 0 0 0-123.4944-123.4944zM437.384533 118.510933h216.8832v103.8336H437.384533V118.510933z m530.8416 750.1824c0 22.7328-18.432 41.1648-41.1648 41.1648H165.205333a41.1648 41.1648 0 0 1-41.1648-41.1648V351.982933c0-22.7328 18.432-41.1648 41.1648-41.1648h761.856c22.7328 0 41.1648 18.432 41.1648 41.1648v516.7104z m-202.752-299.2128H586.069333V389.461333a41.1648 41.1648 0 0 0-82.3296 0v179.4048H323.720533a41.1648 41.1648 0 0 0 0 82.3296H503.125333v179.4048a41.1648 41.1648 0 0 0 82.3296 0V651.195733h179.4048c22.7328 0 41.1648-18.432 41.1648-41.1648a40.1408 40.1408 0 0 0-40.5504-40.5504z" p-id="50581" fill="#ffffff"></path></svg>