<?xml version="1.0" standalone="no"?><!DOCTYPE svg PUBLIC "-//W3C//DTD SVG 1.1//EN" "http://www.w3.org/Graphics/SVG/1.1/DTD/svg11.dtd"><svg t="1597150370310" class="icon" viewBox="0 0 1024 1024" version="1.1" xmlns="http://www.w3.org/2000/svg" p-id="52682" xmlns:xlink="http://www.w3.org/1999/xlink" width="200" height="200"><defs><style type="text/css"></style></defs><path d="M408 695.2c-4 0-8-0.8-11.2-3.2-12-6.4-16-20.8-9.6-32.8l298.4-559.2c6.4-12 20.8-16 32.8-9.6 12 6.4 16 20.8 9.6 32.8L429.6 682.4c-4.8 8-12.8 12.8-21.6 12.8z" p-id="52683" fill="#ffffff"></path><path d="M348 936c-24 0-48.8-5.6-71.2-17.6-73.6-39.2-102.4-132-62.4-205.6 39.2-73.6 132-102.4 205.6-62.4 73.6 39.2 102.4 132 62.4 205.6-28 51.2-80 80-134.4 80z m0-256c-37.6 0-73.6 20-92 55.2-27.2 50.4-8 113.6 43.2 140.8 50.4 27.2 113.6 8 140.8-43.2 27.2-50.4 8-113.6-43.2-140.8-15.2-8-32-12-48.8-12z" p-id="52684" fill="#ffffff"></path><path d="M616 695.2c-8.8 0-16.8-4.8-21.6-12.8L296 123.2c-6.4-12-1.6-26.4 9.6-32.8 12-6.4 26.4-1.6 32.8 9.6l298.4 559.2c6.4 12 1.6 26.4-9.6 32.8-4 2.4-7.2 3.2-11.2 3.2z" p-id="52685" fill="#ffffff"></path><path d="M676 936c-54.4 0-107.2-29.6-134.4-80.8-39.2-73.6-11.2-166.4 62.4-205.6 73.6-39.2 166.4-11.2 205.6 62.4 39.2 73.6 11.2 166.4-62.4 205.6-22.4 12.8-47.2 18.4-71.2 18.4zM584 832.8c27.2 50.4 90.4 69.6 140.8 43.2 50.4-27.2 69.6-90.4 43.2-140.8-27.2-50.4-90.4-69.6-140.8-43.2-50.4 27.2-69.6 90.4-43.2 140.8z" p-id="52686" fill="#ffffff"></path></svg>