<?xml version="1.0" standalone="no"?><!DOCTYPE svg PUBLIC "-//W3C//DTD SVG 1.1//EN" "http://www.w3.org/Graphics/SVG/1.1/DTD/svg11.dtd"><svg t="1597150931650" class="icon" viewBox="0 0 1024 1024" version="1.1" xmlns="http://www.w3.org/2000/svg" p-id="62698" xmlns:xlink="http://www.w3.org/1999/xlink" width="200" height="200"><defs><style type="text/css"></style></defs><path d="M320 704c0 35.346-28.654 64-64 64s-64-28.654-64-64 28.654-64 64-64 64 28.654 64 64z m448-64c-35.346 0-64 28.654-64 64s28.654 64 64 64 64-28.654 64-64-28.654-64-64-64z m256-336v160c0 26.51-21.49 48-48 48h-16v288c0 41.716-26.754 77.286-64 90.496V944c0 44.182-35.818 80-80 80h-96c-44.182 0-80-35.818-80-80v-48H384v48c0 44.182-35.818 80-80 80h-96c-44.182 0-80-35.818-80-80v-53.504c-37.246-13.21-64-48.78-64-90.496V512h-16c-26.51 0-48-21.49-48-48v-160c0-26.51 21.49-48 48-48h16v-54.858C64 42.906 350.672 0 512 0c161.952 0 448 42.912 448 201.142V256h16c26.51 0 48 21.49 48 48zM128 512h768V256H128v256z m0.87-320h766.26C881.954 120.522 715.472 64 512 64S142.046 120.522 128.87 192zM320 896H192v48c0 8.822 7.178 16 16 16h96c8.822 0 16-7.178 16-16v-48z m512 48v-48h-128v48c0 8.822 7.178 16 16 16h96c8.822 0 16-7.178 16-16z m64-144V576H128v224c0 17.674 14.326 32 32 32h704c17.674 0 32-14.326 32-32z" p-id="62699" fill="#ffffff"></path></svg>