<?xml version="1.0" standalone="no"?><!DOCTYPE svg PUBLIC "-//W3C//DTD SVG 1.1//EN" "http://www.w3.org/Graphics/SVG/1.1/DTD/svg11.dtd"><svg t="1597150964911" class="icon" viewBox="0 0 1024 1024" version="1.1" xmlns="http://www.w3.org/2000/svg" p-id="64219" xmlns:xlink="http://www.w3.org/1999/xlink" width="200" height="200"><defs><style type="text/css"></style></defs><path d="M372.359636 994.255559h-2.312672l-1.029446-0.104378c-12.723789-1.291412-23.291472-7.126304-30.558993-16.876365L212.885552 809.747311 45.896306 684.57752c-9.629311-6.373151-15.94618-17.254989-17.389042-30.0412-1.264806-11.205203 2.596128-22.708188 10.868535-32.393781l0.893347-0.979304 28.582988-29.372981c7.619538-7.617491 18.552541-11.987009 29.997198-11.987009 2.965541 0 7.30436 0 11.983939 1.663896l157.785629 47.718815 190.429097-190.515055-357.611747-190.808744-0.211824-0.119726c-11.062963-6.245238-18.896372-17.168008-21.494547-29.967522l-0.179078-0.881067-0.101308-0.89437c-1.437745-12.742209 3.14462-26.133194 11.958356-34.94693l42.694382-42.694381 0.523932-0.456394c11.092639-9.680477 25.88146-13.397125 38.806841-9.813507l459.994556 104.581894 99.915617-99.913571c55.150064-55.151088 115.807562-88.068801 162.278967-88.068801h0.111541c23.255657 0.026606 43.601031 8.131191 58.838059 23.436782 15.241123 15.170514 23.344684 35.409464 23.372314 58.462506 0.027629 24.62791-8.81783 52.392254-26.29283 82.520435-15.151072 26.119891-36.508495 53.276391-61.767785 78.537728l-100.595093 100.685143 105.359607 482.936057c3.791349 15.513322-2.114151 32.262798-15.121396 42.781363l-1.791809 1.449001-42.709731 20.930705c-6.567579 4.455475-14.786775 6.883781-23.442922 6.883781-1.812275 0-5.453199 0-10.175757-1.418302-12.391215-3.087315-21.958104-10.69048-27.066448-21.521153L589.612659 564.944839 399.025972 755.446591l42.540886 157.723208c3.685949 14.005992 0.082888 28.484751-9.887185 39.7227l-0.86367 0.915859-28.482705 28.384467c-7.54279 7.543813-18.758226 12.062733-29.973662 12.062734z m-0.828878-41.146119c0.011256 0 0.261966 0.109494 0.849344 0.213871a3.51301 3.51301 0 0 0 1.241271-0.303922l27.733644-27.638477c0.794086-0.99056 0.725524-1.416256 0.639567-1.750877l-48.65514-180.390463 246.837828-246.727311 210.784704 405.567969c0.128937 0.040932 0.287549 0.085958 0.478907 0.128936l0.630357 0.14531c0.095167-0.010233 0.178055-0.021489 0.248663-0.034793l1.139963-0.905626 41.164539-20.173458c0.107447-0.192382 0.173962-0.360204 0.204661-0.478907l-0.107447-0.474815-110.188588-505.072217 116.400056-116.50648c46.966685-46.966685 76.118632-97.575316 76.079746-132.075061-0.014326-12.283768-3.737114-21.955034-11.383258-29.565363-7.67582-7.710612-17.448394-11.434423-29.941939-11.44875h-0.072655c-35.31532 0-86.392626 29.142737-133.327588 76.079746L646.391826 277.593296 163.293063 167.758772a5.334495 5.334495 0 0 0-1.432628 0.728594l-41.368177 41.368176c-0.115634 0.206708-0.226151 0.545422-0.295735 0.873903 0.267083 0.579191 0.632403 1.038656 1.055028 1.310856l405.783887 216.511125L280.236496 675.460886l-180.958399-54.726416h-0.428765c-0.461511 0-1.006933 0.137123-1.309832 0.264013l-27.355021 28.114315c-0.484024 0.620124-0.76748 1.125637-0.910743 1.438768 0.035816 0.186242 0.075725 0.345877 0.112564 0.478907l0.478907 0.360204L242.123456 780.509407l129.119753 172.259272c0.180102 0.2415 0.271176 0.326435 0.287549 0.340761z" fill="#ffffff" p-id="64220"></path></svg>