<?xml version="1.0" standalone="no"?><!DOCTYPE svg PUBLIC "-//W3C//DTD SVG 1.1//EN" "http://www.w3.org/Graphics/SVG/1.1/DTD/svg11.dtd"><svg t="1597151047943" class="icon" viewBox="0 0 1024 1024" version="1.1" xmlns="http://www.w3.org/2000/svg" p-id="66404" xmlns:xlink="http://www.w3.org/1999/xlink" width="200" height="200"><defs><style type="text/css"></style></defs><path d="M256 938.666667h85.333333l128-106.666667h-85.333333l-128 106.666667zM512 64C121.6 64 128 405.333333 128 405.333333v554.666667c64 0 64-64 64-64V405.333333S172.8 128 512 128s320 277.333333 320 277.333333v490.666667c0 64 64 64 64 64V405.333333s12.8-341.333333-384-341.333333z m170.666667 746.666667c57.6 0 64-66.133333 64-66.133334V341.333333c0-64-64-66.133333-64-66.133333H341.333333c-64 0-64 66.133333-64 66.133333v403.2c0 64 64 66.133333 64 66.133334h341.333334z m-53.333334-64c-29.866667 0-53.333333-23.466667-53.333333-53.333334s23.466667-53.333333 53.333333-53.333333 53.333333 23.466667 53.333334 53.333333-23.466667 53.333333-53.333334 53.333334zM405.333333 320h213.333334v64H405.333333v-64z m-64 85.333333h341.333334v170.666667H341.333333v-170.666667z m53.333334 234.666667c29.866667 0 53.333333 23.466667 53.333333 53.333333S424.533333 746.666667 394.666667 746.666667 341.333333 723.2 341.333333 693.333333s23.466667-53.333333 53.333334-53.333333z m160 192l128 106.666667h85.333333l-128-106.666667h-85.333333z" p-id="66405" fill="#ffffff"></path></svg>