<?xml version="1.0" standalone="no"?><!DOCTYPE svg PUBLIC "-//W3C//DTD SVG 1.1//EN" "http://www.w3.org/Graphics/SVG/1.1/DTD/svg11.dtd"><svg t="1597151077998" class="icon" viewBox="0 0 1024 1024" version="1.1" xmlns="http://www.w3.org/2000/svg" p-id="67368" xmlns:xlink="http://www.w3.org/1999/xlink" width="200" height="200"><defs><style type="text/css"></style></defs><path d="M884.363636 465.454545h-51.2l-55.854545-204.8C768 230.4 740.072727 209.454545 709.818182 209.454545H295.563636c-34.909091 0-62.836364 23.272727-69.818181 58.181819L190.836364 465.454545H139.636364c-25.6 0-46.545455 20.945455-46.545455 46.545455v256h837.818182V512c0-25.6-20.945455-46.545455-46.545455-46.545455z m-612.072727-190.836363c2.327273-11.636364 11.636364-18.618182 23.272727-18.618182h414.254546c11.636364 0 18.618182 6.981818 23.272727 16.290909l53.527273 193.163636H237.381818l34.909091-190.836363zM884.363636 721.454545H139.636364v-209.454545h744.727272v209.454545z" p-id="67369" fill="#ffffff"></path><path d="M232.727273 605.090909h116.363636v46.545455h-116.363636zM651.636364 605.090909h139.636363v46.545455h-139.636363zM395.636364 186.181818h232.727272c13.963636 0 23.272727-9.309091 23.272728-23.272727s-9.309091-23.272727-23.272728-23.272727H395.636364c-13.963636 0-23.272727 9.309091-23.272728 23.272727s9.309091 23.272727 23.272728 23.272727zM232.727273 837.818182H186.181818v-69.818182H139.636364v116.363636h139.636363v-116.363636h-46.545454zM837.818182 837.818182h-46.545455v-69.818182h-46.545454v116.363636h139.636363v-116.363636h-46.545454z" p-id="67370" fill="#ffffff"></path></svg>