<?xml version="1.0" standalone="no"?><!DOCTYPE svg PUBLIC "-//W3C//DTD SVG 1.1//EN" "http://www.w3.org/Graphics/SVG/1.1/DTD/svg11.dtd"><svg t="1597151147393" class="icon" viewBox="0 0 1024 1024" version="1.1" xmlns="http://www.w3.org/2000/svg" p-id="69227" xmlns:xlink="http://www.w3.org/1999/xlink" width="200" height="200"><defs><style type="text/css"></style></defs><path d="M873.872794 762.819512c0 15.383362-12.485359 27.868721-27.868721 27.868721L65.675792 790.688233l0-55.737442 780.327258 0C861.387435 734.950791 873.872794 747.43615 873.872794 762.819512zM957.478957 567.848982c0 99.658767-50.051953 111.363344-110.973464 111.363344L65.675792 679.212326 65.675792 233.311767l334.425675 0c126.356826 0 253.383918 48.882314 354.212324 111.474884L623.052259 344.786651l0 55.737442 0 55.737442 270.773983 0C933.957241 498.79014 957.478957 538.976398 957.478957 567.848982zM288.626583 344.786651 177.151699 344.786651l0 111.474884 111.474884 0L288.626583 344.786651zM511.577375 344.786651 400.102491 344.786651l0 111.474884 111.474884 0L511.577375 344.786651z" p-id="69228" fill="#ffffff"></path></svg>