<?xml version="1.0" standalone="no"?><!DOCTYPE svg PUBLIC "-//W3C//DTD SVG 1.1//EN" "http://www.w3.org/Graphics/SVG/1.1/DTD/svg11.dtd"><svg t="1597133259057" class="icon" viewBox="0 0 1024 1024" version="1.1" xmlns="http://www.w3.org/2000/svg" p-id="10931" xmlns:xlink="http://www.w3.org/1999/xlink" width="200" height="200"><defs><style type="text/css"></style></defs><path d="M77.312 927.744h901.12c17.92 0 33.792 14.336 33.792 33.792 0 17.92-14.336 33.792-33.792 33.792H45.056c-8.192 0-17.92-3.072-24.064-9.728-6.656-6.656-9.728-16.384-9.728-24.064V94.208c0-11.264 6.656-22.528 16.384-29.184 9.728-6.656 22.528-6.656 33.792 0 9.728 6.656 16.384 17.92 16.384 29.184-0.512 0-0.512 833.536-0.512 833.536z m124.416-184.32c-12.8 12.8-33.792 14.336-46.592 1.536s-14.336-33.792-1.536-46.592l253.44-269.824c6.656-6.656 16.384-11.264 24.064-9.728 9.728 0 17.92 4.608 24.064 11.264l182.272 206.848 310.272-331.264c8.192-8.192 20.992-12.8 32.256-9.728 11.264 3.072 20.992 11.264 24.064 22.528 3.072 11.264 0 24.064-8.192 32.256l-332.8 356.864c-6.656 6.656-16.384 11.264-24.064 11.264-9.728 0-17.92-4.608-24.064-11.264l-184.32-206.848-228.864 242.688z" fill="#4E5D69" p-id="10932"></path></svg>