<?xml version="1.0" standalone="no"?><!DOCTYPE svg PUBLIC "-//W3C//DTD SVG 1.1//EN" "http://www.w3.org/Graphics/SVG/1.1/DTD/svg11.dtd"><svg t="1597133195465" class="icon" viewBox="0 0 1024 1024" version="1.1" xmlns="http://www.w3.org/2000/svg" p-id="8618" xmlns:xlink="http://www.w3.org/1999/xlink" width="200" height="200"><defs><style type="text/css"></style></defs><path d="M739.913143 767.780571H271.36c-20.041143 0-33.426286 12.726857-33.426286 31.963429 0 19.163429 13.385143 31.963429 33.426286 31.963429h468.553143c20.114286 0 33.499429-12.8 33.499428-31.963429a32.768 32.768 0 0 0-33.499428-31.963429z m100.425143-639.414857H739.913143V64.438857H649.581714C619.446857 26.038857 565.906286 0.512 505.636571 0.512c-60.269714 0-113.810286 25.6-143.872 63.926857H271.36v63.926857H170.934857c-73.581714 0-133.851429 57.563429-133.851428 127.853715v639.414857c0 70.290286 60.269714 127.853714 133.851428 127.853714h669.403429c73.581714 0 133.851429-57.563429 133.851428-127.853714V256.219429c0-70.290286-60.269714-127.853714-133.851428-127.853715z m-502.052572 0h73.654857c0-35.108571 40.155429-63.926857 93.696-63.926857 50.176 0 93.696 28.745143 93.696 63.926857h73.654858v127.853715H338.285714V128.365714z m568.978286 767.268572c0 35.108571-30.134857 63.926857-66.925714 63.926857H170.934857c-36.790857 0-66.925714-28.745143-66.925714-63.926857V256.219429c0-35.108571 30.134857-63.926857 66.925714-63.926858H271.36v127.926858h468.553143V192.292571h100.425143c36.790857 0 66.925714 28.818286 66.925714 63.926858v639.414857zM739.913143 607.817143H271.36c-20.041143 0-33.426286 12.8-33.426286 31.963428 0 19.236571 13.385143 31.963429 33.426286 31.963429h468.553143c20.114286 0 33.499429-12.726857 33.499428-31.963429a32.768 32.768 0 0 0-33.499428-31.963428z m0-159.817143H271.36c-20.041143 0-33.426286 12.8-33.426286 31.963429S251.318857 512 271.36 512h468.553143c20.114286 0 33.499429-12.8 33.499428-31.963429a32.768 32.768 0 0 0-33.499428-31.963428z" p-id="8619"></path></svg>