<svg xmlns="http://www.w3.org/2000/svg" xmlns:xlink="http://www.w3.org/1999/xlink" viewBox="0 0 448.38 390.12"><defs><style>.cls-1{fill:#e1801e;}.cls-2{fill:#e7b158;}.cls-3{fill:#f5b617;}.cls-4{fill:#231815;}.cls-12,.cls-5{fill:#ffe200;}.cls-6{clip-path:url(#clip-path);}.cls-7{fill:#bd641d;}.cls-8{fill:#fff;}.cls-18,.cls-8{opacity:0.3;}.cls-9{fill:#983423;}.cls-10{fill:#ec6619;}.cls-10,.cls-12,.cls-14,.cls-15{stroke:#231815;stroke-linecap:round;stroke-linejoin:round;stroke-width:5px;}.cls-11{fill:#cfb318;}.cls-13{fill:#ad4223;}.cls-14{fill:#e1403e;}.cls-15{fill:#cc241c;}.cls-16{clip-path:url(#clip-path-2);}.cls-17{fill:#bc873c;}.cls-18{fill:#fdfdfe;}</style><clipPath id="clip-path"><path class="cls-1" d="M347.84,193.45c-19.93-42.83-34.59-42.88-34.59-42.88a4.78,4.78,0,0,1-1.38-1.89c-1.72-6.12-8.21-33.77,10.41-48a3.34,3.34,0,0,0,1.28-1.93,7.18,7.18,0,0,0-.7-5.45c-2.17-3.32-9.59-5.12-16.13-4-9.62,1.6-10.7,6.93-26.47,16.67a13.89,13.89,0,0,1-5.58,1.79c-2.29.28-5.16-1.6-10.21-6.77C262.05,98.5,259,95.1,255,94.75c-8.06-.7-11.34,9.74-20.71,11.11-12.47,1.82-18.21-16.73-30.6-15.4-10.92,1.17-12.77,16.26-23.18,16.09-9.14-.15-13.26-11-21.34-9.82-4,.59-6.79,4.17-9.05,6.79-4.73,5.46-7.48,7.52-9.78,7.38a14,14,0,0,1-5.68-1.45c-16.34-8.76-17.74-14-27.44-15-6.6-.69-13.89,1.56-15.85,5a7.16,7.16,0,0,0-.37,5.48,3.38,3.38,0,0,0,1.39,1.85c19.46,13,14.67,41.05,13.33,47.26a3.37,3.37,0,0,1-1.26,2c-18.63,14.34-28.5,41.05-29.6,44.17-4.19,20.83-9,62.09,13.53,95.36,50.41,74.28,207.83,64.85,250.33-5.68C355.89,261.39,363.18,226.41,347.84,193.45Z"/></clipPath><clipPath id="clip-path-2"><path class="cls-2" d="M91.93,106.06l.3.21c3-2.42,9-3.85,14.53-3.3,9.7,1,11.1,6,27.44,14.28a14.49,14.49,0,0,0,5.68,1.38c2.3.13,5.05-1.83,9.78-7,2.26-2.48,5.08-5.89,9.05-6.45,8.08-1.15,12.2,9.19,21.34,9.33,10.41.16,12.26-14.18,23.18-15.3,12.39-1.26,18.13,16.38,30.6,14.65,9.37-1.31,12.64-11.23,20.7-10.56,4,.33,7,3.57,9.45,5.91,5.06,4.91,7.93,6.71,10.21,6.44a14.55,14.55,0,0,0,5.59-1.7c15.77-9.26,16.85-14.33,26.46-15.86,5.68-.89,12,.28,15,2.66l.57-.45a3.22,3.22,0,0,0,1.28-1.84,6.51,6.51,0,0,0-.71-5.17c-2.16-3.16-9.58-4.87-16.13-3.84-9.61,1.53-10.69,6.6-26.46,15.86a14.55,14.55,0,0,1-5.59,1.7c-2.28.27-5.15-1.53-10.21-6.44-2.42-2.35-5.45-5.58-9.45-5.91-8.06-.67-11.33,9.25-20.7,10.56-12.47,1.73-18.21-15.91-30.6-14.65-10.92,1.12-12.77,15.46-23.18,15.3-9.14-.14-13.26-10.48-21.34-9.33-4,.56-6.79,4-9.05,6.45-4.73,5.19-7.48,7.15-9.78,7a14.49,14.49,0,0,1-5.68-1.38c-16.34-8.32-17.74-13.32-27.44-14.28-6.6-.66-13.89,1.49-15.85,4.76a6.51,6.51,0,0,0-.37,5.21A3.22,3.22,0,0,0,91.93,106.06Z"/></clipPath></defs><title>资源 10</title><g id="图层_2" data-name="图层 2"><g id="图层_1-2" data-name="图层 1"><path class="cls-3" d="M287.17,128.52a27.58,27.58,0,1,1,19.46-8A27.41,27.41,0,0,1,287.17,128.52Z"/><path class="cls-4" d="M287.16,75.84a25.09,25.09,0,1,1-17.7,7.31,25,25,0,0,1,17.7-7.31m0-5h0a30.11,30.11,0,1,0,21.33,8.87,29.88,29.88,0,0,0-21.33-8.87Z"/><path class="cls-5" d="M281.21,116.6a2.55,2.55,0,0,1-1-.2,2.5,2.5,0,0,1-1.49-2.45l.45-7.37a5.55,5.55,0,0,0-1.72-4.38l-5.34-5.09a2.5,2.5,0,0,1,1.72-4.31H274l7.89.49h.28a4.46,4.46,0,0,0,3.21-1.38l5.46-5.73a2.48,2.48,0,0,1,2.89-.53,2.51,2.51,0,0,1,1.4,2.58L294,97.09a2.22,2.22,0,0,0,.79,2l6.87,5.7a2.5,2.5,0,0,1-1.6,4.42h-.15l-7.63-.47h-.31a5,5,0,0,0-3.63,1.55L283,115.83A2.51,2.51,0,0,1,281.21,116.6Z"/><path class="cls-4" d="M292.64,87.91l-1.16,8.86a4.73,4.73,0,0,0,1.67,4.25l6.87,5.7-7.63-.47h-.46a7.52,7.52,0,0,0-5.44,2.33l-5.28,5.53.46-7.37a8.1,8.1,0,0,0-2.49-6.34l-5.35-5.09,7.9.48.43,0a6.93,6.93,0,0,0,5-2.16l5.46-5.73m0-5A5,5,0,0,0,289,84.47l-5.46,5.73a1.94,1.94,0,0,1-1.4.6H282l-7.9-.48h-.31a5,5,0,0,0-3.45,8.62l5.35,5.09a3.09,3.09,0,0,1,.95,2.41l-.46,7.38a5,5,0,0,0,8.61,3.75l5.28-5.53a2.5,2.5,0,0,1,1.82-.78h.15l7.63.47H300a5,5,0,0,0,3.19-8.85l-6.75-5.6,1.14-8.71a5,5,0,0,0-2.81-5.16,4.93,4.93,0,0,0-2.15-.49Zm0,10Z"/><path class="cls-3" d="M205.58,57.68a27.59,27.59,0,0,1-1.22-55.15q.63,0,1.26,0a27.59,27.59,0,0,1,1.22,55.15Q206.21,57.68,205.58,57.68Z"/><path class="cls-4" d="M205.62,5a25.09,25.09,0,0,1,1.11,50.16l-1.15,0A25.09,25.09,0,0,1,204.47,5c.38,0,.77,0,1.15,0m0-5h0c-.46,0-.91,0-1.37,0a30.09,30.09,0,0,0,1.33,60.15c.46,0,.91,0,1.37,0A30.09,30.09,0,0,0,205.62,0Z"/><path class="cls-5" d="M211.34,45.86a2.52,2.52,0,0,1-1.79-.76l-5.15-5.3a5.62,5.62,0,0,0-4-1.69l-.4,0-7.36.53h-.18a2.5,2.5,0,0,1-1.74-4.29l5.67-5.52a4.4,4.4,0,0,0,1.33-3.5l-.56-7.89A2.49,2.49,0,0,1,198.71,15a2.36,2.36,0,0,1,.94-.19,2.49,2.49,0,0,1,1.91.89l5.77,6.81a2.22,2.22,0,0,0,1.7.79l.31,0L218.18,22a2.11,2.11,0,0,1,.35,0,2.5,2.5,0,0,1,1.75,4.29l-5.49,5.33a5,5,0,0,0-1.5,3.95l.54,7.63a2.49,2.49,0,0,1-1.47,2.46A2.64,2.64,0,0,1,211.34,45.86Z"/><path class="cls-4" d="M199.65,17.28l5.77,6.81A4.74,4.74,0,0,0,209,25.77a4.89,4.89,0,0,0,.66-.05l8.84-1.24-5.48,5.32a7.53,7.53,0,0,0-2.26,5.93l.55,7.63-5.15-5.3a8.07,8.07,0,0,0-5.79-2.45l-.57,0-7.37.53,5.67-5.51a7,7,0,0,0,2.09-5.47l-.57-7.9m18.88,7.2h0m-18.89-12.2a5,5,0,0,0-5,5.36l.57,7.89a2,2,0,0,1-.58,1.53L189,32.58a5,5,0,0,0,3.49,8.58h.36l7.36-.53h.22a3.11,3.11,0,0,1,2.21.93l5.14,5.3A5,5,0,0,0,216.33,43l-.55-7.63a2.5,2.5,0,0,1,.76-2L222,28.12a5,5,0,0,0-3.2-8.64h-.48a4.35,4.35,0,0,0-.52.06l-8.61,1.21-5.67-6.7a5,5,0,0,0-3.82-1.77Z"/><path class="cls-3" d="M241.42,72.51a28.53,28.53,0,0,1-4.42-.35,27.6,27.6,0,1,1,4.42.35Z"/><path class="cls-4" d="M241.36,19.82a25.1,25.1,0,1,1-24.74,21.1,25.08,25.08,0,0,1,24.74-21.1m0-5h0a30.1,30.1,0,0,0-4.76,59.81,31.21,31.21,0,0,0,4.82.38,30.09,30.09,0,0,0,4.77-59.8,31.36,31.36,0,0,0-4.83-.39Z"/><path class="cls-5" d="M244.31,61.57a2.51,2.51,0,0,1-2.11-1.15l-4-6.24a5.56,5.56,0,0,0-4-2.53l-7.32-1a2.5,2.5,0,0,1-1-4.58l6.68-4.25a4.42,4.42,0,0,0,2-3.15l1-7.85a2.49,2.49,0,0,1,2-2.12,2.28,2.28,0,0,1,.45,0,2.52,2.52,0,0,1,2.2,1.3l4.26,7.85A2.19,2.19,0,0,0,246.45,39l8.91.58a2.5,2.5,0,0,1,1.18,4.6l-6.45,4.11a5,5,0,0,0-2.28,3.56l-1,7.58a2.51,2.51,0,0,1-1.94,2.11A2.47,2.47,0,0,1,244.31,61.57Z"/><path class="cls-4" d="M238.18,31.17,242.44,39a4.72,4.72,0,0,0,3.85,2.46l8.91.58-6.45,4.1a7.49,7.49,0,0,0-3.42,5.35l-1,7.57-4-6.23a8.09,8.09,0,0,0-5.74-3.67l-7.32-1L234,43.94A7,7,0,0,0,237.13,39l1.05-7.84m0-5a4.73,4.73,0,0,0-.91.08,5,5,0,0,0-4.05,4.25l-1.05,7.85a2,2,0,0,1-.88,1.37L224.61,44a5,5,0,0,0,2,9.17l7.32,1a3.07,3.07,0,0,1,2.18,1.39l4,6.24a5,5,0,0,0,4.22,2.31,4.8,4.8,0,0,0,1.07-.11,5,5,0,0,0,3.89-4.22l1-7.58a2.53,2.53,0,0,1,1.15-1.79l6.45-4.1a5,5,0,0,0-2.36-9.2l-8.76-.58-4.19-7.71a5,5,0,0,0-4.39-2.61Z"/><path class="cls-3" d="M242,91.94a27.59,27.59,0,1,1,22.67-11.83A27.47,27.47,0,0,1,242,91.94Z"/><path class="cls-4" d="M242,39.25A25.09,25.09,0,1,1,221.41,50,25,25,0,0,1,242,39.25m0-5v0h0a30.1,30.1,0,1,0,17.17,5.4A30.11,30.11,0,0,0,242,34.25Z"/><path class="cls-5" d="M238.5,80.86a2.93,2.93,0,0,1-.58-.06,2.49,2.49,0,0,1-1.9-2.14l-.87-7.34a5.6,5.6,0,0,0-2.48-4l-6.17-4a2.52,2.52,0,0,1-1.06-2.67,2.49,2.49,0,0,1,2.14-1.9l7.86-.94a4.42,4.42,0,0,0,3.19-2L243,49.18a2.52,2.52,0,0,1,2.09-1.12,2.47,2.47,0,0,1,2.5,2.37l.44,8.92a2.21,2.21,0,0,0,1.14,1.83l7.77,4.38a2.5,2.5,0,0,1-.93,4.66l-7.59.9a5,5,0,0,0-3.6,2.23l-4.2,6.39A2.5,2.5,0,0,1,238.5,80.86Z"/><path class="cls-4" d="M245.06,50.56l.44,8.91a4.76,4.76,0,0,0,2.41,3.89l7.78,4.38-7.6.9A7.5,7.5,0,0,0,242.7,72l-4.2,6.38L237.63,71a8,8,0,0,0-3.58-5.79l-6.17-4.06,7.86-.93a7,7,0,0,0,5-3.08l4.34-6.61m0-5a5,5,0,0,0-4.17,2.25l-4.35,6.61a1.94,1.94,0,0,1-1.39.86l-7.86.93a5,5,0,0,0-2.16,9.15l6.17,4a3.05,3.05,0,0,1,1.36,2.21l.87,7.33a5,5,0,0,0,9.15,2.16l4.2-6.39a2.5,2.5,0,0,1,1.8-1.11l7.59-.9a5,5,0,0,0,1.87-9.32l-7.65-4.31-.43-8.77a5,5,0,0,0-5-4.75Z"/><path class="cls-3" d="M277.64,78a27.58,27.58,0,0,1-22.19-43.95A27.6,27.6,0,0,1,294,28.2a27.6,27.6,0,0,1,5.85,38.58A27.72,27.72,0,0,1,277.64,78Z"/><path class="cls-4" d="M277.68,25.33a25.09,25.09,0,1,1-20.22,10.21,25,25,0,0,1,20.22-10.21m0-5h0a30.09,30.09,0,0,0-17.86,54.32,29.89,29.89,0,0,0,17.82,5.86,30.09,30.09,0,0,0,17.87-54.32,29.83,29.83,0,0,0-17.83-5.86Z"/><path class="cls-5" d="M273.79,66.84a2.74,2.74,0,0,1-.64-.08,2.48,2.48,0,0,1-1.85-2.19l-.68-7.35a5.55,5.55,0,0,0-2.36-4.07l-6.06-4.22a2.5,2.5,0,0,1,1.2-4.54l7.88-.72a4.43,4.43,0,0,0,3.24-1.89L279,35.29a2.51,2.51,0,0,1,2-1.07,2.55,2.55,0,0,1,.72.1,2.5,2.5,0,0,1,1.78,2.34l.2,8.93a2.23,2.23,0,0,0,1.09,1.86L292.54,52a2.5,2.5,0,0,1-1.06,4.63l-7.61.7a5,5,0,0,0-3.66,2.13l-4.37,6.27A2.51,2.51,0,0,1,273.79,66.84Z"/><path class="cls-4" d="M281.09,36.72l.2,8.92a4.73,4.73,0,0,0,2.3,4l7.66,4.59-7.61.7a7.49,7.49,0,0,0-5.48,3.19l-4.37,6.27L273.11,57a8.06,8.06,0,0,0-3.42-5.89l-6.06-4.22,7.88-.72a7,7,0,0,0,5.06-2.95l4.52-6.49m0-5a5,5,0,0,0-4.1,2.14l-4.52,6.5a1.94,1.94,0,0,1-1.42.82l-7.88.72a5,5,0,0,0-2.4,9.08l6.06,4.22a3,3,0,0,1,1.3,2.24l.68,7.36a5,5,0,0,0,9.08,2.4l4.37-6.27a2.5,2.5,0,0,1,1.83-1.07l7.62-.7a5,5,0,0,0,2.11-9.27l-7.53-4.51-.2-8.78a5,5,0,0,0-3.56-4.67,5.07,5.07,0,0,0-1.44-.21Z"/><path class="cls-3" d="M166.27,68.93a27.6,27.6,0,1,1,24.12-14.16A27.58,27.58,0,0,1,166.27,68.93Z"/><path class="cls-4" d="M166.31,16.24a25.09,25.09,0,1,1-21.94,12.88,24.95,24.95,0,0,1,21.94-12.88m0-5h0a30.09,30.09,0,1,0,14.63,3.81,30.13,30.13,0,0,0-14.63-3.81Z"/><path class="cls-5" d="M164.2,58.14a1.84,1.84,0,0,1-.33,0,2.49,2.49,0,0,1-2.11-1.93L160.16,49a5.52,5.52,0,0,0-2.85-3.73l-6.55-3.42a2.5,2.5,0,0,1,.62-4.66l7.73-1.71a4.4,4.4,0,0,0,3-2.28l3.67-7A2.49,2.49,0,0,1,168,24.81a3,3,0,0,1,.42,0,2.52,2.52,0,0,1,2.06,2.1l1.32,8.83a2.24,2.24,0,0,0,1.31,1.71l8.18,3.58a2.51,2.51,0,0,1-.47,4.74l-7.46,1.65A5,5,0,0,0,170,50l-3.54,6.77A2.51,2.51,0,0,1,164.2,58.14Z"/><path class="cls-4" d="M168,27.31l1.33,8.83a4.72,4.72,0,0,0,2.78,3.63l8.17,3.58L172.78,45a7.52,7.52,0,0,0-5,3.85l-3.54,6.77-1.59-7.21A8.1,8.1,0,0,0,158.46,43l-6.54-3.42,7.73-1.71a6.92,6.92,0,0,0,4.65-3.56l3.66-7m0-5A5,5,0,0,0,163.53,25l-3.66,7a2,2,0,0,1-1.3,1l-7.73,1.71A5,5,0,0,0,149.6,44l6.55,3.42a3.09,3.09,0,0,1,1.57,2.06l1.6,7.21a5,5,0,0,0,4.22,3.88,4.89,4.89,0,0,0,.66,0A5,5,0,0,0,168.63,58l3.54-6.77a2.52,2.52,0,0,1,1.69-1.29l7.46-1.65a5,5,0,0,0,.93-9.46l-8-3.53-1.3-8.68a5,5,0,0,0-4.12-4.19,4.65,4.65,0,0,0-.83-.07Z"/><path class="cls-3" d="M112.12,95.53c-.88,0-1.77,0-2.65-.13a27.59,27.59,0,0,1,2.59-55.06,26.12,26.12,0,0,1,2.65.13,27.59,27.59,0,0,1-2.59,55.06Z"/><path class="cls-4" d="M112.06,42.84c.8,0,1.6,0,2.42.12A25.09,25.09,0,0,1,112.12,93c-.8,0-1.6,0-2.41-.12a25.09,25.09,0,0,1,2.35-50.07m0-5h0a30.09,30.09,0,0,0-2.83,60.05c1,.09,1.93.14,2.89.14A30.09,30.09,0,0,0,115,38c-1-.09-1.93-.14-2.89-.14Z"/><path class="cls-5" d="M115.92,84.37a2.5,2.5,0,0,1-2-1l-4.35-6a5.58,5.58,0,0,0-4.12-2.27l-7.37-.51a2.5,2.5,0,0,1-1.3-4.51l6.39-4.67A4.42,4.42,0,0,0,105,62.14l.54-7.89A2.48,2.48,0,0,1,107.38,52a2.13,2.13,0,0,1,.61-.08,2.51,2.51,0,0,1,2.12,1.17l4.76,7.55a2.21,2.21,0,0,0,1.88,1h8.93a2.5,2.5,0,0,1,1.48,4.52L121,70.71a5,5,0,0,0-2,3.71L118.42,82a2.52,2.52,0,0,1-1.8,2.23A2.42,2.42,0,0,1,115.92,84.37Z"/><path class="cls-4" d="M108,54.42,112.75,62a4.73,4.73,0,0,0,4,2.21h8.93l-6.17,4.51a7.51,7.51,0,0,0-3.06,5.55l-.53,7.63-4.36-6a8,8,0,0,0-6-3.29l-7.37-.51,6.39-4.67a7,7,0,0,0,2.83-5.13l.54-7.89m0-5a5.15,5.15,0,0,0-1.22.15A5,5,0,0,0,103,54.08L102.46,62a2,2,0,0,1-.79,1.43l-6.39,4.67a5,5,0,0,0,2.61,9l7.37.5a3.1,3.1,0,0,1,2.27,1.26l4.35,6a5,5,0,0,0,4,2.05,4.77,4.77,0,0,0,1.39-.2,5,5,0,0,0,3.6-4.46l.52-7.62a2.51,2.51,0,0,1,1-1.86l6.17-4.51a5,5,0,0,0-2.95-9H116.9l-4.68-7.43A5,5,0,0,0,108,49.42Z"/><path class="cls-3" d="M128.25,112.38a27.61,27.61,0,1,1,15.4-4.72A27.58,27.58,0,0,1,128.25,112.38Z"/><path class="cls-4" d="M128.2,59.69a25.1,25.1,0,1,1-14,4.29,25.06,25.06,0,0,1,14-4.29m0-5v0h0a30.08,30.08,0,1,0,25,13.27,30,30,0,0,0-25-13.27Z"/><path class="cls-5" d="M120.17,99.31a2.49,2.49,0,0,1-2.42-3.12l2-7.66a4.41,4.41,0,0,0-.68-3.68l-4.6-6.45a2.49,2.49,0,0,1,0-2.93,2.52,2.52,0,0,1,2-1,2.36,2.36,0,0,1,.78.13l8.48,2.81a2.33,2.33,0,0,0,.7.11,2.2,2.2,0,0,0,1.41-.51l6.9-5.67a2.48,2.48,0,0,1,1.59-.57,2.5,2.5,0,0,1,2.42,3.12l-1.9,7.41a5,5,0,0,0,.77,4.16l4.44,6.22a2.49,2.49,0,0,1-2,4,2.56,2.56,0,0,1-.62-.07l-7.16-1.84a5.39,5.39,0,0,0-1.38-.18,5.53,5.53,0,0,0-3.24,1l-6,4.29A2.53,2.53,0,0,1,120.17,99.31Z"/><path class="cls-4" d="M136.34,73.25h0m0,0-1.9,7.41a7.47,7.47,0,0,0,1.16,6.23L140,93.11l-7.16-1.83a8,8,0,0,0-2-.26,8.1,8.1,0,0,0-4.69,1.5l-6,4.29,2-7.66a6.94,6.94,0,0,0-1.07-5.76L116.48,77,125,79.76a4.79,4.79,0,0,0,1.49.24,4.7,4.7,0,0,0,3-1.08l6.9-5.67m0-5h-.08a5,5,0,0,0-3.13,1.16L126.38,75l-8.33-2.76a4.79,4.79,0,0,0-1.57-.26,5,5,0,0,0-4.07,7.91L117,86.3a2,2,0,0,1,.3,1.61l-2,7.66a5,5,0,0,0,7.75,5.31l6-4.29a3.07,3.07,0,0,1,1.79-.57,3.3,3.3,0,0,1,.76.1L138.79,98a5.36,5.36,0,0,0,1.25.16,5,5,0,0,0,4.07-7.91L139.67,84a2.51,2.51,0,0,1-.39-2.09l1.85-7.22a4.8,4.8,0,0,0,.21-1.43,5,5,0,0,0-5-5Zm0,10Z"/><path class="cls-3" d="M199,79.46A27.6,27.6,0,0,1,174,40,27.73,27.73,0,0,1,199,24.27,27.59,27.59,0,0,1,223.89,63.7,27.75,27.75,0,0,1,199,79.46Z"/><path class="cls-4" d="M199,26.77A25.09,25.09,0,1,1,176.3,41.1,25,25,0,0,1,199,26.77m0-5h0a30.09,30.09,0,1,0,12.89,2.91A29.87,29.87,0,0,0,199,21.77Z"/><path class="cls-5" d="M197.64,68.77a2.49,2.49,0,0,1-2.23-1.8l-2.06-7.09a5.52,5.52,0,0,0-3.1-3.54l-6.75-3A2.51,2.51,0,0,1,182,50.89a2.48,2.48,0,0,1,1.79-2.23l7.6-2.21A4.4,4.4,0,0,0,194.23,44l3.21-7.24a2.49,2.49,0,0,1,2.28-1.49H200a2.5,2.5,0,0,1,2.19,2l1.9,8.72a2.25,2.25,0,0,0,1.42,1.63l8.39,3a2.52,2.52,0,0,1,1.65,2.44,2.49,2.49,0,0,1-1.8,2.31l-7.34,2.14a5,5,0,0,0-3.19,2.78l-3.1,7a2.49,2.49,0,0,1-2.28,1.49Z"/><path class="cls-4" d="M199.72,37.76l1.9,8.73a4.76,4.76,0,0,0,3,3.44L213,53l-7.34,2.14a7.52,7.52,0,0,0-4.78,4.17l-3.09,7-2.06-7.09a8.08,8.08,0,0,0-4.49-5.13l-6.75-3,7.6-2.21A6.93,6.93,0,0,0,196.52,45l3.2-7.24m0-5a5,5,0,0,0-4.57,3L192,43a2,2,0,0,1-1.24,1.08l-7.6,2.21a5,5,0,0,0-.62,9.37l6.75,3a3.1,3.1,0,0,1,1.71,2l2.06,7.1a5,5,0,0,0,4.46,3.59h.34a5,5,0,0,0,4.57-3l3.09-7a2.56,2.56,0,0,1,1.6-1.4l7.34-2.13a5,5,0,0,0,.32-9.51l-8.26-3-1.86-8.58a5,5,0,0,0-4.38-3.91l-.51,0Z"/><path class="cls-3" d="M284.59,96.85a27.59,27.59,0,0,1-22.19-44,27.72,27.72,0,0,1,22.23-11.23A27.33,27.33,0,0,1,301,47a27.59,27.59,0,0,1-16.38,49.81Z"/><path class="cls-4" d="M284.63,44.16a25.1,25.1,0,1,1-20.22,10.21,25,25,0,0,1,20.22-10.21m0-5h0a30.09,30.09,0,0,0-17.87,54.32,29.86,29.86,0,0,0,17.83,5.87A30.09,30.09,0,0,0,302.46,45a29.86,29.86,0,0,0-17.83-5.87Z"/><path class="cls-5" d="M280.73,85.68a2.41,2.41,0,0,1-.64-.09,2.5,2.5,0,0,1-1.85-2.19l-.67-7.35A5.55,5.55,0,0,0,275.21,72l-6.06-4.22a2.5,2.5,0,0,1,1.2-4.55l7.88-.72a4.42,4.42,0,0,0,3.23-1.88l4.53-6.5A2.5,2.5,0,0,1,288,53.05a2.57,2.57,0,0,1,.72.11,2.5,2.5,0,0,1,1.78,2.34l.2,8.92a2.21,2.21,0,0,0,1.08,1.86l7.66,4.59a2.5,2.5,0,0,1-1.05,4.64l-7.62.69a5.07,5.07,0,0,0-3.66,2.13l-4.36,6.28A2.52,2.52,0,0,1,280.73,85.68Z"/><path class="cls-4" d="M288,55.55l.2,8.93a4.76,4.76,0,0,0,2.3,4L298.2,73l-7.61.69a7.56,7.56,0,0,0-5.49,3.19l-4.37,6.28-.67-7.36a8.09,8.09,0,0,0-3.43-5.89l-6.06-4.22,7.89-.72a7,7,0,0,0,5.06-2.94l4.52-6.5m0-5a5,5,0,0,0-4.1,2.15l-4.53,6.49A1.91,1.91,0,0,1,278,60l-7.88.72a5,5,0,0,0-2.4,9.09L273.78,74a3.06,3.06,0,0,1,1.3,2.24l.67,7.35a5,5,0,0,0,9.09,2.4l4.37-6.27A2.5,2.5,0,0,1,291,78.69l7.61-.69a5,5,0,0,0,2.12-9.27l-7.53-4.51-.2-8.78a5,5,0,0,0-3.56-4.67,4.8,4.8,0,0,0-1.44-.22Z"/><path class="cls-3" d="M302.74,112.87a27.59,27.59,0,0,1-22.2-43.95,27.72,27.72,0,0,1,22.24-11.23,27.6,27.6,0,0,1,22.19,44A27.71,27.71,0,0,1,302.74,112.87Z"/><path class="cls-4" d="M302.78,60.19A25.09,25.09,0,1,1,282.55,70.4a25,25,0,0,1,20.23-10.21m0-5h0a30.09,30.09,0,0,0-17.87,54.32,29.83,29.83,0,0,0,17.83,5.86A30.21,30.21,0,0,0,327,103.13a30.09,30.09,0,0,0-24.2-47.94Z"/><path class="cls-5" d="M298.88,101.7a2.34,2.34,0,0,1-.64-.08,2.48,2.48,0,0,1-1.85-2.19l-.67-7.35A5.58,5.58,0,0,0,293.35,88l-6.06-4.22a2.5,2.5,0,0,1,1.2-4.54l7.88-.72a4.45,4.45,0,0,0,3.24-1.88l4.52-6.5a2.51,2.51,0,0,1,2.05-1.07,2.64,2.64,0,0,1,.73.11,2.49,2.49,0,0,1,1.77,2.33l.21,8.93A2.19,2.19,0,0,0,310,82.31l7.66,4.59a2.5,2.5,0,0,1-1.06,4.63l-7.61.7a5,5,0,0,0-3.66,2.13l-4.37,6.27A2.5,2.5,0,0,1,298.88,101.7Z"/><path class="cls-4" d="M306.18,71.58l.21,8.93a4.71,4.71,0,0,0,2.3,3.95l7.65,4.59-7.61.69a7.51,7.51,0,0,0-5.48,3.19l-4.37,6.27-.67-7.35A8.11,8.11,0,0,0,294.78,86l-6.06-4.22L296.6,81a6.94,6.94,0,0,0,5.06-2.94l4.52-6.5m0-5a5,5,0,0,0-4.1,2.14l-4.52,6.5a1.92,1.92,0,0,1-1.41.82l-7.89.72a5,5,0,0,0-2.4,9.08l6.06,4.22a3.09,3.09,0,0,1,1.31,2.25l.67,7.35a5,5,0,0,0,3.7,4.38,5.06,5.06,0,0,0,1.28.17,5,5,0,0,0,4.1-2.15l4.37-6.27a2.54,2.54,0,0,1,1.84-1.07l7.61-.7a5,5,0,0,0,2.11-9.26l-7.53-4.52-.2-8.77a5,5,0,0,0-3.55-4.68,5.19,5.19,0,0,0-1.45-.21Z"/><path class="cls-3" d="M262.87,116.38a27.59,27.59,0,1,1,19.46-8A27.38,27.38,0,0,1,262.87,116.38Z"/><path class="cls-4" d="M262.87,63.7A25.09,25.09,0,1,1,245.17,71a25,25,0,0,1,17.7-7.31m0-5h0a30.09,30.09,0,1,0,21.33,8.86,29.91,29.91,0,0,0-21.33-8.86Z"/><path class="cls-5" d="M256.92,104.46a2.51,2.51,0,0,1-2.5-2.65l.46-7.37a5.58,5.58,0,0,0-1.72-4.38L247.81,85a2.5,2.5,0,0,1,1.73-4.31h.15l7.9.49h.27a4.49,4.49,0,0,0,3.22-1.37l5.45-5.73a2.52,2.52,0,0,1,1.82-.78,2.4,2.4,0,0,1,1.07.25,2.48,2.48,0,0,1,1.4,2.58L269.67,85a2.21,2.21,0,0,0,.78,2l6.87,5.71a2.5,2.5,0,0,1-1.59,4.42h-.16l-7.63-.47h-.31A5,5,0,0,0,264,98.15l-5.27,5.54A2.51,2.51,0,0,1,256.92,104.46Z"/><path class="cls-4" d="M268.34,75.77l-1.15,8.85a4.74,4.74,0,0,0,1.67,4.26l6.87,5.7-7.63-.47h-.47a7.48,7.48,0,0,0-5.44,2.33L256.92,102l.45-7.37a8,8,0,0,0-2.49-6.34l-5.34-5.1,7.9.49h.42a7,7,0,0,0,5-2.15l5.45-5.73m0-5a5,5,0,0,0-3.63,1.55l-5.45,5.73a1.94,1.94,0,0,1-1.41.6h-.12l-7.9-.49h-.3a5,5,0,0,0-3.45,8.62l5.35,5.1a3.08,3.08,0,0,1,.94,2.41l-.45,7.37a5,5,0,0,0,3,4.89,4.82,4.82,0,0,0,2,.42,5,5,0,0,0,3.62-1.55l5.27-5.53a2.51,2.51,0,0,1,1.82-.78h.16l7.63.47h.31a5,5,0,0,0,3.19-8.85l-6.76-5.6,1.14-8.71a5,5,0,0,0-4.95-5.65Zm0,10h0Z"/><path class="cls-3" d="M154.42,91.29c-.88,0-1.77,0-2.65-.12a27.59,27.59,0,0,1,2.59-55.06c.88,0,1.77,0,2.65.12a27.59,27.59,0,0,1-2.59,55.06Z"/><path class="cls-4" d="M154.36,38.61c.8,0,1.6,0,2.41.11a25.09,25.09,0,0,1-2.35,50.07c-.8,0-1.6,0-2.41-.11a25.09,25.09,0,0,1,2.35-50.07m0-5h0a30.09,30.09,0,0,0-2.83,60,28,28,0,0,0,2.89.14,30.09,30.09,0,0,0,2.83-60,28,28,0,0,0-2.89-.14Z"/><path class="cls-5" d="M158.22,80.14a2.5,2.5,0,0,1-2-1l-4.36-6a5.54,5.54,0,0,0-4.11-2.27l-7.37-.51a2.5,2.5,0,0,1-1.3-4.51l6.39-4.67a4.43,4.43,0,0,0,1.8-3.28l.55-7.9a2.48,2.48,0,0,1,1.88-2.25,2.54,2.54,0,0,1,.61-.07,2.5,2.5,0,0,1,2.12,1.16l4.76,7.55a2.2,2.2,0,0,0,1.89,1.05H168A2.5,2.5,0,0,1,169.46,62l-6.18,4.51a5,5,0,0,0-2,3.71l-.53,7.63a2.49,2.49,0,0,1-1.8,2.23A2.68,2.68,0,0,1,158.22,80.14Z"/><path class="cls-4" d="M150.29,50.19l4.76,7.55a4.75,4.75,0,0,0,4,2.21H168l-6.17,4.51A7.53,7.53,0,0,0,158.74,70l-.52,7.63-4.36-6a8.08,8.08,0,0,0-6-3.29l-7.37-.5,6.39-4.67a7,7,0,0,0,2.83-5.13l.54-7.89m0-5a4.68,4.68,0,0,0-1.22.15,5,5,0,0,0-3.77,4.5l-.54,7.9a2,2,0,0,1-.79,1.43l-6.39,4.67a5,5,0,0,0,2.61,9l7.37.51a3.09,3.09,0,0,1,2.27,1.25l4.35,6a5,5,0,0,0,4,2,5.13,5.13,0,0,0,1.39-.2,5,5,0,0,0,3.6-4.46l.52-7.63a2.52,2.52,0,0,1,1-1.86L170.93,64a5,5,0,0,0-3-9H159.2l-4.68-7.43a5,5,0,0,0-4.23-2.33Z"/><circle class="cls-3" cx="175.29" cy="79.92" r="27.59"/><path class="cls-4" d="M175.29,54.83A25.09,25.09,0,1,1,150.2,79.92a25.09,25.09,0,0,1,25.09-25.09m0-5a30.09,30.09,0,1,0,30.09,30.09,30.13,30.13,0,0,0-30.09-30.09Z"/><path class="cls-5" d="M180.43,95.93a2.48,2.48,0,0,1-1.87-.84l-4.91-5.52a5.55,5.55,0,0,0-4.16-1.87l-7.6.2a2.5,2.5,0,0,1-1.66-4.37l5.92-5.26a4.44,4.44,0,0,0,1.49-3.43l-.21-7.91a2.52,2.52,0,0,1,1.66-2.43,2.63,2.63,0,0,1,.83-.14,2.51,2.51,0,0,1,2,1l5.46,7.07a2.26,2.26,0,0,0,1.77.87h.21l8.89-.85h.23a2.5,2.5,0,0,1,1.66,4.37l-5.71,5.07a5,5,0,0,0-1.69,3.89l.21,7.64a2.52,2.52,0,0,1-1.58,2.39A2.46,2.46,0,0,1,180.43,95.93Z"/><path class="cls-4" d="M169.93,66.86l5.45,7.07a4.75,4.75,0,0,0,3.75,1.83,3.46,3.46,0,0,0,.45,0l8.88-.84L182.75,80a7.54,7.54,0,0,0-2.53,5.82l.21,7.64-4.91-5.52a8,8,0,0,0-6-2.71h-.22l-7.38.2,5.92-5.26a7,7,0,0,0,2.33-5.37l-.21-7.91m18.53,8h0m-18.55-13a4.85,4.85,0,0,0-1.67.29A5,5,0,0,0,164.93,67l.21,7.91a1.93,1.93,0,0,1-.65,1.5l-5.92,5.26a5,5,0,0,0,3.32,8.74H162l7.38-.2h.09a3.09,3.09,0,0,1,2.29,1l4.91,5.52a5,5,0,0,0,3.74,1.68,4.88,4.88,0,0,0,1.83-.35,5,5,0,0,0,3.16-4.78l-.2-7.64a2.51,2.51,0,0,1,.85-2l5.65-5a5,5,0,0,0-3.1-8.79h-.34l-.36,0-8.67.83-5.37-7a5,5,0,0,0-4-1.94Z"/><path class="cls-3" d="M219.73,111.16a27.59,27.59,0,1,1,25.84-17.91A27.73,27.73,0,0,1,219.73,111.16Z"/><path class="cls-4" d="M219.74,58.47a25.1,25.1,0,1,1-23.5,16.29,25,25,0,0,1,23.5-16.29m0-5v0h0A30.23,30.23,0,0,0,191.56,73a30.1,30.1,0,0,0,28.17,40.66A30.09,30.09,0,0,0,230.3,55.39a29.89,29.89,0,0,0-10.56-1.92Z"/><path class="cls-5" d="M219.8,100.52a2.5,2.5,0,0,1-2.33-1.6L214.81,92a5.51,5.51,0,0,0-3.38-3.26l-7-2.41a2.5,2.5,0,0,1-.08-4.7l7.38-2.84a4.4,4.4,0,0,0,2.6-2.7l2.58-7.48A2.5,2.5,0,0,1,219.3,67h0a2.51,2.51,0,0,1,2.35,1.76l2.62,8.53a2.22,2.22,0,0,0,1.56,1.5l8.61,2.33a2.49,2.49,0,0,1,.25,4.74l-7.13,2.75a5,5,0,0,0-2.94,3l-2.5,7.22a2.5,2.5,0,0,1-2.32,1.69Z"/><path class="cls-4" d="M219.3,69.45,221.93,78a4.71,4.71,0,0,0,3.28,3.17l8.62,2.33-7.13,2.75a7.51,7.51,0,0,0-4.41,4.56L219.8,98l-2.65-6.9a8.1,8.1,0,0,0-4.9-4.73l-7-2.41,7.39-2.84a7,7,0,0,0,4.07-4.21l2.58-7.48m0-5a5,5,0,0,0-4.73,3.37L212,75.3a2,2,0,0,1-1.14,1.18l-7.38,2.84a5,5,0,0,0,.16,9.39l7,2.41a3.09,3.09,0,0,1,1.86,1.8l2.65,6.89A5,5,0,0,0,219.8,103h.09a5,5,0,0,0,4.64-3.37L227,92.42a2.52,2.52,0,0,1,1.48-1.53l7.13-2.74a5,5,0,0,0-.49-9.5l-8.48-2.28L224.07,68a5,5,0,0,0-4.69-3.53Z"/><path class="cls-1" d="M208.59,349.64c-54.15,0-99.85-19.71-122.25-52.71C65,265.49,67,226.69,72.43,199.68a2.25,2.25,0,0,1,.09-.35C73.61,196.25,83.74,168.81,103,154a.92.92,0,0,0,.34-.51c1.14-5.32,6-32.43-12.28-44.66a6,6,0,0,1-2.4-3.24,9.5,9.5,0,0,1,.6-7.41c2.5-4.39,9.84-6.4,15.6-6.4a26.12,26.12,0,0,1,2.68.14c6.33.66,9.52,3,14.35,6.44a114.24,114.24,0,0,0,14,8.87,11.35,11.35,0,0,0,4.65,1.15h0c1.4,0,4-2.19,7.73-6.52l.46-.53c2.31-2.7,5.49-6.4,10.11-7.09a11,11,0,0,1,1.61-.12c4.39,0,7.63,2.63,10.77,5.18,3,2.4,5.74,4.67,9.37,4.73h.14c4,0,6.48-3.14,9.4-6.77,3.24-4,6.92-8.62,13.33-9.31a13.18,13.18,0,0,1,1.53-.08c6.48,0,11.1,4.31,15.57,8.49,3.91,3.65,7.61,7.1,12.06,7.1a8.86,8.86,0,0,0,1.35-.1c3.8-.55,6.45-2.94,9.26-5.47,3.11-2.8,6.33-5.69,11-5.69.33,0,.66,0,1,0,4.65.4,8,3.9,10.53,6.45l.49.51c3.93,4,6.61,6,8,6h.14a11.62,11.62,0,0,0,4.58-1.43,114.25,114.25,0,0,0,13.44-9.72c4.6-3.76,7.65-6.25,13.92-7.3a27.07,27.07,0,0,1,4.35-.35c4.94,0,11.64,1.44,14.29,5.48A9.52,9.52,0,0,1,326,99.3a6,6,0,0,1-2.2,3.38c-17.45,13.32-11,40.09-9.52,45.33a1.8,1.8,0,0,0,.3.33c3.75,1.19,17.48,7.87,35.43,44,13.2,26.57,9.36,68.12-9.13,98.81-21.41,35.53-73.34,58.5-132.28,58.5Z"/><path class="cls-4" d="M310.66,89c5.34,0,10.46,1.69,12.2,4.35a7.18,7.18,0,0,1,.7,5.45,3.34,3.34,0,0,1-1.28,1.93c-18.62,14.22-12.13,41.87-10.41,48a4.78,4.78,0,0,0,1.38,1.89s14.55,2.69,34.52,42.87c13.26,26.68,8.12,67.95-9,96.41-22.36,37.1-76.5,57.29-130.15,57.29-48.34,0-96.29-16.4-120.18-51.61C65.83,262.26,70.69,221,74.88,200.17c1.1-3.12,11-29.83,29.6-44.17a3.37,3.37,0,0,0,1.26-2c1.34-6.21,6.13-34.21-13.33-47.26A3.38,3.38,0,0,1,91,104.92a7.16,7.16,0,0,1,.37-5.48c1.72-3,7.56-5.14,13.43-5.14a21.67,21.67,0,0,1,2.42.13c9.7,1,11.1,6.26,27.44,15a14,14,0,0,0,5.68,1.45h.22c2.26,0,5-2.09,9.56-7.38,2.26-2.62,5.08-6.2,9.05-6.79a8.94,8.94,0,0,1,1.24-.09c7.29,0,11.44,9.76,20.1,9.91h.18c10.25,0,12.14-14.93,23-16.09a10.88,10.88,0,0,1,1.26-.07c11,0,16.73,15.59,27.63,15.59a12.51,12.51,0,0,0,1.71-.12c9.06-1.33,12.42-11.14,19.93-11.14.26,0,.51,0,.78,0,4,.35,7,3.75,9.45,6.22,4.73,4.84,7.55,6.8,9.76,6.8a3.4,3.4,0,0,0,.45,0,13.89,13.89,0,0,0,5.58-1.79c15.77-9.74,16.85-15.07,26.47-16.67a23.5,23.5,0,0,1,3.93-.32m0-5a28.67,28.67,0,0,0-4.76.39c-6.93,1.15-10.53,4.1-15.09,7.83a111.31,111.31,0,0,1-13.18,9.52,8.76,8.76,0,0,1-3.34,1c-.51-.18-2.13-1.07-6.25-5.27l-.48-.5c-2.6-2.68-6.53-6.72-12.11-7.21-.4,0-.81,0-1.21,0-5.66,0-9.4,3.36-12.7,6.33-2.63,2.37-4.9,4.41-7.95,4.86a6.78,6.78,0,0,1-1,.07c-3.47,0-6.66-3-10.35-6.43-4.6-4.29-9.81-9.16-17.28-9.16-.59,0-1.19,0-1.79.09-7.45.8-11.65,6-15,10.23-3,3.73-4.81,5.84-7.45,5.84h-.09c-2.77,0-5.12-2-7.85-4.17-3.31-2.69-7.06-5.74-12.34-5.74a13.3,13.3,0,0,0-2,.15c-5.54.82-9.21,5.1-11.64,7.93l-.45.52c-3.85,4.45-5.42,5.44-5.92,5.65A8.66,8.66,0,0,1,137,105a111.86,111.86,0,0,1-13.73-8.69c-4.78-3.45-8.56-6.17-15.55-6.9a28.51,28.51,0,0,0-2.94-.15C98.14,89.3,90.06,91.67,87,97a12,12,0,0,0-.82,9.35,8.39,8.39,0,0,0,3.41,4.61c16.32,11,12.6,35.3,11.34,41.48-19.48,15.3-29.7,43-30.81,46.1a5.23,5.23,0,0,0-.18.68c-5.53,27.48-7.54,67,14.29,99.15,22.86,33.69,69.34,53.81,124.32,53.81,28,0,55.21-5.23,78.75-15.13,25.25-10.61,44.5-26,55.68-44.58,8.84-14.67,14.74-32.76,16.61-50.94,1.95-18.92-.67-36.78-7.38-50.28-16.86-33.92-30.31-42.63-35.83-44.86-1.73-6.68-6.4-30,8.9-41.68a8.46,8.46,0,0,0,3.12-4.82,12,12,0,0,0-1.4-9.28C323.85,85.7,316.49,84,310.66,84Z"/><path class="cls-1" d="M347.84,193.45c-19.93-42.83-34.59-42.88-34.59-42.88a4.78,4.78,0,0,1-1.38-1.89c-1.72-6.12-8.21-33.77,10.41-48a3.34,3.34,0,0,0,1.28-1.93,7.18,7.18,0,0,0-.7-5.45c-2.17-3.32-9.59-5.12-16.13-4-9.62,1.6-10.7,6.93-26.47,16.67a13.89,13.89,0,0,1-5.58,1.79c-2.29.28-5.16-1.6-10.21-6.77C262.05,98.5,259,95.1,255,94.75c-8.06-.7-11.34,9.74-20.71,11.11-12.47,1.82-18.21-16.73-30.6-15.4-10.92,1.17-12.77,16.26-23.18,16.09-9.14-.15-13.26-11-21.34-9.82-4,.59-6.79,4.17-9.05,6.79-4.73,5.46-7.48,7.52-9.78,7.38a14,14,0,0,1-5.68-1.45c-16.34-8.76-17.74-14-27.44-15-6.6-.69-13.89,1.56-15.85,5a7.16,7.16,0,0,0-.37,5.48,3.38,3.38,0,0,0,1.39,1.85c19.46,13,14.67,41.05,13.33,47.26a3.37,3.37,0,0,1-1.26,2c-18.63,14.34-28.5,41.05-29.6,44.17-4.19,20.83-9,62.09,13.53,95.36,50.41,74.28,207.83,64.85,250.33-5.68C355.89,261.39,363.18,226.41,347.84,193.45Z"/><g class="cls-6"><path class="cls-7" d="M344,121.65s-12.85,141.84-69.67,177.49-156.6,20.31-188.89,3.75S143,390.12,143,390.12l221.44-32,84-214.51Z"/><path class="cls-8" d="M82.39,40.25s58.76,100,31.8,134C100.36,191.66,54,212.52,44.57,270.52S0,135.54,0,135.54l58.53-95Z"/><path class="cls-7" d="M327.21,158.07a3.39,3.39,0,0,1-1.54-1.89A63.12,63.12,0,0,1,323.29,145c-42.42,17.08-80.82,20.7-113.81,21.63-55,1.56-94.92-9.71-113.32-18.06a63.34,63.34,0,0,1-1.67,12.94,2.43,2.43,0,0,1-.25.65c40.13,12.91,80.28,19.59,116.18,18.62,52.93-1.41,96.63-15.86,117.43-22.33Z"/><path class="cls-7" d="M155.49,160.1c-36.27,17.23-18.55,55.37,8.19,55.28,35.54-.12,56.44-28.93,56.44-28.93S191.74,142.87,155.49,160.1Zm16.87,46.73c-19,.07-31.65-27.08-5.83-39.35s46,18.76,46,18.76S197.66,206.75,172.36,206.83Z"/><path class="cls-7" d="M219.34,186.52s20.9,28.81,56.45,28.93c26.74.1,44.45-38,8.19-55.28S219.34,186.52,219.34,186.52Zm7.58-.2s20.21-31,46-18.76,13.21,39.42-5.83,39.35C241.8,206.82,226.92,186.32,226.92,186.32Z"/><path class="cls-7" d="M213,189s-32.87,25.37-41.45,76.49l29.25-2s-6.88-17.67,14.5-71.25Z"/><path class="cls-7" d="M224.47,185.54s32.87,25.37,41.45,76.49l-29.25-2s6.87-17.67-14.5-71.25Z"/><rect class="cls-7" x="210.79" y="173.32" width="17.56" height="21.8" rx="5.91"/></g><path class="cls-4" d="M150.48,153.21a3.49,3.49,0,0,1-.48.23l-.25.07-.49.08a4.71,4.71,0,0,1-.75,0l-.54-.14a2.24,2.24,0,0,1-.45-.19,4.21,4.21,0,0,1-.68-.42l-.48-.41a7.88,7.88,0,0,1-1.21-1.59,16.58,16.58,0,0,1-.78-1.5l-.6-1.46a51.93,51.93,0,0,1-1.69-5.8q-.68-2.9-1.18-5.79c-.36-1.92-.62-3.86-.93-5.78.71,1.82,1.37,3.64,2.13,5.43s1.51,3.57,2.34,5.31a50.05,50.05,0,0,0,2.69,5l.76,1.1c.27.31.52.69.79.94a2.94,2.94,0,0,0,.71.59l.1,0s0-.06-.05-.06a.69.69,0,0,0-.3-.11,1.29,1.29,0,0,0-.39,0,2.43,2.43,0,0,0-.31,0l-.16.05a2.05,2.05,0,0,0-.4.19,2.5,2.5,0,1,1,2.6,4.27Z"/><path class="cls-4" d="M268.36,148.38c-.18.1-.15.1-.17.12s0,0,0,0a.1.1,0,0,0,.09,0,1.24,1.24,0,0,0,.28-.2,3.8,3.8,0,0,0,.62-.64,11.13,11.13,0,0,0,1.18-1.75,29,29,0,0,0,1.85-4.24c.51-1.51,1-3.05,1.34-4.63s.7-3.17,1-4.78c.11,1.63.21,3.27.23,4.92s0,3.31-.13,5a30.86,30.86,0,0,1-.81,5.1,15,15,0,0,1-.91,2.63,8.8,8.8,0,0,1-.75,1.36,6.21,6.21,0,0,1-.53.71,4.12,4.12,0,0,1-.36.38,1.93,1.93,0,0,1-.24.2,1.59,1.59,0,0,1-.42.29,2.5,2.5,0,1,1-2.29-4.44Z"/><path class="cls-4" d="M188,157.36a71.56,71.56,0,0,1-4.28-8,86.13,86.13,0,0,1-3.32-8.31,74,74,0,0,1-2.4-8.59,68.72,68.72,0,0,1-1.35-8.78v-.08a.65.65,0,0,1,.58-.71.7.7,0,0,1,.35.06,7.41,7.41,0,0,1,1.51,1,13.74,13.74,0,0,1,1.22,1.19,20.08,20.08,0,0,1,2,2.68,31.43,31.43,0,0,1,1.64,2.88c.49,1,.93,2,1.35,3-.52-1-1.07-1.91-1.65-2.84a29.37,29.37,0,0,0-1.89-2.64,18.88,18.88,0,0,0-2.2-2.35,12.89,12.89,0,0,0-1.23-1,6.25,6.25,0,0,0-1.26-.7l.91-.73a66.26,66.26,0,0,0,2.19,8.36,69.09,69.09,0,0,0,3.17,8,79.43,79.43,0,0,0,4,7.59,68.31,68.31,0,0,0,4.7,7l.05.06a2.51,2.51,0,1,1-4,3.08A1.64,1.64,0,0,1,188,157.36Z"/><path class="cls-4" d="M219.27,157a68.32,68.32,0,0,0,3.76-7.51,79.78,79.78,0,0,0,3-8c.45-1.36.8-2.74,1.18-4.12s.69-2.78.91-4.2a67.64,67.64,0,0,0,1.08-8.53l1,.6A6.43,6.43,0,0,0,229,126a12.83,12.83,0,0,0-1.09,1.12,17.15,17.15,0,0,0-1.87,2.58c-.57.91-1.06,1.88-1.54,2.85s-.86,2-1.25,3c.28-1.06.59-2.1.94-3.14a28.56,28.56,0,0,1,1.25-3,19.81,19.81,0,0,1,1.66-2.89,15.07,15.07,0,0,1,1.06-1.33,6.84,6.84,0,0,1,1.37-1.21.65.65,0,0,1,.89.19.68.68,0,0,1,.11.33v.09a67,67,0,0,1-.19,8.84c-.08,1.48-.32,2.94-.49,4.41s-.45,2.93-.77,4.38a81,81,0,0,1-2.21,8.64,71.36,71.36,0,0,1-3.19,8.48,2.51,2.51,0,0,1-4.56-2.09l.12-.23Z"/><circle class="cls-9" cx="210.24" cy="255.35" r="75.56"/><path class="cls-4" d="M210.24,182.29a73.06,73.06,0,1,1-73.06,73.06,73.06,73.06,0,0,1,73.06-73.06m0-5a78.06,78.06,0,1,0,78.06,78.06,78.15,78.15,0,0,0-78.06-78.06Z"/><circle class="cls-10" cx="210.24" cy="255.35" r="65.66"/><polygon class="cls-11" points="254.33 267.21 254.33 253.9 224.3 253.9 249.06 225.36 234.49 212.04 214.03 234.91 193.57 212.04 178.99 225.36 203.76 253.9 173.72 253.9 173.72 267.21 204.19 267.21 204.19 277.61 173.72 278.05 173.72 291.66 204.63 290.78 205.07 311.86 212.36 311.86 215.69 311.86 222.98 311.86 223.42 290.78 254.33 291.66 254.33 278.05 223.86 277.61 223.86 267.21 254.33 267.21"/><polygon class="cls-12" points="250.05 262.67 250.05 249.35 220.01 249.35 244.78 220.81 230.2 207.49 209.75 230.36 189.29 207.49 174.71 220.81 199.47 249.35 169.44 249.35 169.44 262.67 199.91 262.67 199.91 273.06 169.44 273.5 169.44 287.11 200.35 286.24 200.79 307.31 208.08 307.31 211.41 307.31 218.7 307.31 219.14 286.24 250.05 287.11 250.05 273.5 219.58 273.06 219.58 262.67 250.05 262.67"/><path class="cls-13" d="M204,181.74s-29.33,27.31-32.73,76.76l28.07-4.73s-8.33-16.13,7.2-69.16Z"/><path class="cls-13" d="M221.08,181.63s31.92,24.24,40.25,73.09l-28.4-1.89s6.67-16.88-14.09-68.09Z"/><path class="cls-14" d="M315.76,149.23a3.5,3.5,0,0,1-1.41-1.89,69.26,69.26,0,0,1-2.16-11.16c-38.72,17.08-73.77,20.69-103.88,21.63-50.19,1.56-86.63-9.72-103.43-18.07a69,69,0,0,1-1.52,12.95,3,3,0,0,1-.23.65c36.63,12.91,73.27,19.58,106,18.62,48.31-1.42,88.19-15.87,107.17-22.33C316.15,149.49,316,149.35,315.76,149.23Z"/><path class="cls-14" d="M143,152c-36.05,16.47-18.44,52.91,8.14,52.82,35.33-.11,56.1-27.64,56.1-27.64S179,135.51,143,152Zm16.77,44.66c-18.93.06-31.46-25.88-5.8-37.61S199.7,177,199.7,177,184.91,196.56,159.76,196.64Z"/><path class="cls-14" d="M206.46,177.23s20.77,27.53,56.1,27.65c26.58.09,44.19-36.36,8.14-52.83S206.46,177.23,206.46,177.23ZM214,177s20.09-29.65,45.74-17.93,13.13,37.68-5.8,37.61C228.78,196.63,214,177,214,177Z"/><path class="cls-14" d="M200.19,179.64s-32.67,24.24-41.2,73.09l29.07-1.89s-6.83-16.88,14.42-68.09Z"/><path class="cls-14" d="M211.55,176.29s32.67,24.24,41.2,73.1l-29.07-1.9s6.83-16.88-14.42-68.09Z"/><rect class="cls-15" x="197.95" y="164.61" width="17.46" height="20.83" rx="5.87"/><path class="cls-2" d="M140.1,121.14h-.36a16.8,16.8,0,0,1-6.68-1.65,119.68,119.68,0,0,1-14.57-8.76c-4.48-3.07-6.95-4.76-12-5.26-.7-.07-1.43-.11-2.16-.11-4.22,0-8.45,1.15-10.53,2.85a2.48,2.48,0,0,1-1.59.57,2.56,2.56,0,0,1-1.38-.41l-.2-.14a5.83,5.83,0,0,1-2.5-3.19,8.88,8.88,0,0,1,.61-7.22c2.51-4.19,9.84-6.1,15.58-6.1a26.09,26.09,0,0,1,2.67.13c6.3.62,9.49,2.81,14.31,6.11a114.92,114.92,0,0,0,14,8.44,11.92,11.92,0,0,0,4.69,1.1h0c2.14,0,6.39-4.67,7.79-6.2l.46-.51c2.31-2.57,5.49-6.08,10.09-6.74a12.26,12.26,0,0,1,1.59-.11c4.36,0,7.59,2.5,10.72,4.91,3,2.29,5.75,4.45,9.42,4.51h.14c4,0,6.52-3,9.44-6.44,3.24-3.84,6.91-8.19,13.3-8.85.51,0,1-.07,1.52-.07,6.45,0,11.06,4.1,15.52,8.06,3.92,3.48,7.62,6.77,12.11,6.77a10.65,10.65,0,0,0,1.37-.1c3.81-.53,6.47-2.8,9.29-5.21,3.1-2.66,6.31-5.4,11-5.4.32,0,.65,0,1,0,4.62.38,8,3.7,10.49,6.13l.5.48c1.46,1.42,5.92,5.76,8,5.76h.15a11.86,11.86,0,0,0,4.61-1.38A113.72,113.72,0,0,0,292,93.9c4.61-3.58,7.64-6,13.9-6.94a27.92,27.92,0,0,1,4.33-.33c4.92,0,11.61,1.37,14.25,5.22A8.87,8.87,0,0,1,325.51,99a5.72,5.72,0,0,1-2.24,3.29l-.24.18-.28.23a2.51,2.51,0,0,1-1.52.51,2.48,2.48,0,0,1-1.55-.54c-1.82-1.45-5.64-2.42-9.51-2.42a22.77,22.77,0,0,0-3.54.27c-5,.79-7.34,2.62-11.61,5.95a118.45,118.45,0,0,1-14,9.59,16.52,16.52,0,0,1-6.56,2,5.84,5.84,0,0,1-.73,0c-3,0-6.13-2-11.51-7.17l-.5-.5c-2.15-2.1-4.59-4.48-7.41-4.72l-.57,0c-2.82,0-5,1.85-7.73,4.2-3.09,2.64-6.59,5.63-11.86,6.36a14.14,14.14,0,0,1-2,.15c-6.39,0-11-4.08-15.43-8-3.93-3.5-7.65-6.8-12.2-6.8-.33,0-.67,0-1,.05-4.38.45-7.11,3.68-10,7.1-3.25,3.85-6.93,8.21-13.26,8.21H180c-5.33-.08-9.09-3-12.4-5.55-2.69-2.08-5-3.87-7.66-3.87a6.77,6.77,0,0,0-.89.06c-2.8.4-5.07,2.92-7.08,5.14l-.48.52C146.3,119,143.21,121.14,140.1,121.14Z"/><path class="cls-4" d="M310.18,89.13c5.34,0,10.45,1.61,12.19,4.14a6.51,6.51,0,0,1,.71,5.17,3.22,3.22,0,0,1-1.28,1.84l-.57.45c-2.31-1.84-6.61-3-11.06-3a25.91,25.91,0,0,0-3.93.3c-9.61,1.53-10.69,6.6-26.46,15.86a14.55,14.55,0,0,1-5.59,1.7,3.15,3.15,0,0,1-.44,0c-2.22,0-5-1.87-9.77-6.47-2.42-2.35-5.45-5.58-9.45-5.91l-.77,0c-7.51,0-10.87,9.33-19.93,10.59a12.51,12.51,0,0,1-1.71.12c-10.9,0-16.66-14.83-27.63-14.83q-.62,0-1.26.06c-10.86,1.11-12.75,15.3-23,15.3h-.18c-8.66-.13-12.81-9.42-20.1-9.42a8.83,8.83,0,0,0-1.24.09c-4,.56-6.79,4-9.05,6.45-4.58,5-7.31,7-9.56,7h-.22a14.49,14.49,0,0,1-5.68-1.38c-16.34-8.32-17.74-13.32-27.44-14.28-.8-.08-1.61-.12-2.41-.12-4.81,0-9.6,1.35-12.12,3.42l-.3-.21a3.22,3.22,0,0,1-1.39-1.76,6.51,6.51,0,0,1,.37-5.21c1.72-2.88,7.56-4.88,13.43-4.88.81,0,1.62,0,2.42.12,9.7,1,11.1,6,27.44,14.28a14.49,14.49,0,0,0,5.68,1.38h.22c2.25,0,5-2,9.56-7,2.26-2.49,5.08-5.89,9.05-6.45a8.83,8.83,0,0,1,1.24-.09c7.29,0,11.44,9.29,20.1,9.42h.18c10.25,0,12.14-14.19,23-15.3q.65-.06,1.26-.06c11,0,16.73,14.83,27.63,14.83a12.62,12.62,0,0,0,1.71-.12c9.06-1.26,12.42-10.59,19.93-10.59l.77,0c4,.33,7,3.56,9.45,5.91,4.74,4.6,7.55,6.47,9.77,6.47a3.15,3.15,0,0,0,.44,0,14.55,14.55,0,0,0,5.59-1.7C295.55,96,296.63,91,306.24,89.43a25.94,25.94,0,0,1,3.94-.3m0-5v0a30.48,30.48,0,0,0-4.72.36c-6.89,1.1-10.49,3.89-15,7.43A111.91,111.91,0,0,1,277.24,101a9.53,9.53,0,0,1-3.45,1c-.49-.14-2.08-.92-6.32-5l-.49-.48c-2.59-2.54-6.51-6.37-12-6.83-.4,0-.8,0-1.19,0-5.59,0-9.32,3.19-12.61,6-2.64,2.25-4.91,4.2-8,4.63a7.12,7.12,0,0,1-1,.08c-3.54,0-6.74-2.85-10.45-6.14-4.58-4.07-9.78-8.69-17.18-8.69a17.63,17.63,0,0,0-1.77.09c-7.39.75-11.59,5.72-15,9.72-3,3.55-4.82,5.55-7.53,5.55h-.1c-2.83,0-5.2-1.87-7.94-4-3.29-2.54-7-5.43-12.24-5.43a14.32,14.32,0,0,0-1.95.14c-5.49.78-9.16,4.84-11.59,7.53l-.45.5c-4,4.34-5.49,5.21-6,5.38a9.38,9.38,0,0,1-3.52-.82,112.53,112.53,0,0,1-13.74-8.27C118,92.62,114.2,90,107.25,89.35c-1-.09-1.93-.14-2.91-.14-6.64,0-14.7,2.26-17.72,7.31a11.38,11.38,0,0,0-.87,9.24,8.31,8.31,0,0,0,3.44,4.49l.3.2a5,5,0,0,0,5.91-.31c1.39-1.14,4.9-2.29,8.95-2.29a17.25,17.25,0,0,1,1.92.1c4.39.43,6.4,1.81,10.81,4.83a122.7,122.7,0,0,0,14.85,8.93,19.58,19.58,0,0,0,7.66,1.91l.51,0c4.47,0,8.39-3.32,13.25-8.66l.48-.53c1.72-1.91,3.68-4.07,5.58-4.34a3.44,3.44,0,0,1,.54,0c1.8,0,3.81,1.55,6.13,3.35,3.44,2.66,7.73,6,13.89,6.07h.26c7.49,0,11.75-5,15.17-9.1,3.07-3.64,5.12-5.89,8.34-6.22a6.28,6.28,0,0,1,.75,0c3.6,0,6.82,2.86,10.54,6.17,4.57,4.06,9.75,8.66,17.09,8.66a17.72,17.72,0,0,0,2.4-.17c6-.83,9.95-4.22,13.13-6.94,2.69-2.3,4.3-3.6,6.11-3.6h.36c1.93.16,4,2.21,5.87,4l.51.5c5,4.86,9,7.88,13.25,7.88a8.6,8.6,0,0,0,1-.06,19.51,19.51,0,0,0,7.54-2.36,122.35,122.35,0,0,0,14.25-9.78c4.2-3.27,6.12-4.76,10.46-5.45a20.21,20.21,0,0,1,3.15-.24c3.68,0,6.78.94,7.95,1.87a5,5,0,0,0,3.11,1.09,4.93,4.93,0,0,0,3-1l.33-.25.15-.12a8.22,8.22,0,0,0,3.2-4.74,11.34,11.34,0,0,0-1.45-9.16c-3.19-4.64-10.52-6.3-16.31-6.3Z"/><path class="cls-2" d="M91.93,106.06l.3.21c3-2.42,9-3.85,14.53-3.3,9.7,1,11.1,6,27.44,14.28a14.49,14.49,0,0,0,5.68,1.38c2.3.13,5.05-1.83,9.78-7,2.26-2.48,5.08-5.89,9.05-6.45,8.08-1.15,12.2,9.19,21.34,9.33,10.41.16,12.26-14.18,23.18-15.3,12.39-1.26,18.13,16.38,30.6,14.65,9.37-1.31,12.64-11.23,20.7-10.56,4,.33,7,3.57,9.45,5.91,5.06,4.91,7.93,6.71,10.21,6.44a14.55,14.55,0,0,0,5.59-1.7c15.77-9.26,16.85-14.33,26.46-15.86,5.68-.89,12,.28,15,2.66l.57-.45a3.22,3.22,0,0,0,1.28-1.84,6.51,6.51,0,0,0-.71-5.17c-2.16-3.16-9.58-4.87-16.13-3.84-9.61,1.53-10.69,6.6-26.46,15.86a14.55,14.55,0,0,1-5.59,1.7c-2.28.27-5.15-1.53-10.21-6.44-2.42-2.35-5.45-5.58-9.45-5.91-8.06-.67-11.33,9.25-20.7,10.56-12.47,1.73-18.21-15.91-30.6-14.65-10.92,1.12-12.77,15.46-23.18,15.3-9.14-.14-13.26-10.48-21.34-9.33-4,.56-6.79,4-9.05,6.45-4.73,5.19-7.48,7.15-9.78,7a14.49,14.49,0,0,1-5.68-1.38c-16.34-8.32-17.74-13.32-27.44-14.28-6.6-.66-13.89,1.49-15.85,4.76a6.51,6.51,0,0,0-.37,5.21A3.22,3.22,0,0,0,91.93,106.06Z"/><g class="cls-16"><path class="cls-17" d="M274.8,55.86s-34.73,69.22-61.48,68.5,101.74,17.78,101.74,17.78l82.44-25.86L369.37,72.06Z"/><path class="cls-18" d="M91.27,65.83s11.43,41.62,41.79,54.76l-57,14.67L53.91,87.06Z"/></g></g></g></svg>