<?xml version="1.0" standalone="no"?><!DOCTYPE svg PUBLIC "-//W3C//DTD SVG 1.1//EN" "http://www.w3.org/Graphics/SVG/1.1/DTD/svg11.dtd"><svg t="1597125078838" class="icon" viewBox="0 0 1024 1024" version="1.1" xmlns="http://www.w3.org/2000/svg" p-id="1061" xmlns:xlink="http://www.w3.org/1999/xlink" width="200" height="200"><defs><style type="text/css"></style></defs><path d="M864 1024h-704A160 160 0 0 1 0 864v-704A160 160 0 0 1 160 0H512a32 32 0 0 1 0 64H160A96 96 0 0 0 64 160v704A96 96 0 0 0 160 960h704a96 96 0 0 0 96-96V512a32 32 0 0 1 64 0v352a160 160 0 0 1-160 160zM532.48 536.96a32.128 32.128 0 0 1-45.44-45.44L939.52 39.04a32.128 32.128 0 0 1 45.44 45.44z" fill="#162248" p-id="1062"></path></svg>