<?xml version="1.0" standalone="no"?><!DOCTYPE svg PUBLIC "-//W3C//DTD SVG 1.1//EN" "http://www.w3.org/Graphics/SVG/1.1/DTD/svg11.dtd"><svg t="1614414612787" class="icon" viewBox="0 0 1024 1024" version="1.1" xmlns="http://www.w3.org/2000/svg" p-id="18589" xmlns:xlink="http://www.w3.org/1999/xlink" width="200" height="200"><defs><style type="text/css"></style></defs><path d="M1023.251402 0l-209.704421 23.013053 69.039158 69.039158-227.597474 278.258526L418.660244 151.983158a43.008 43.008 0 0 0-57.290105-0.538947L14.072455 464.949895a42.846316 42.846316 0 0 0-3.072 60.362105 43.385263 43.385263 0 0 0 60.362105 3.072L389.503192 240.909474l240.909473 222.531368c8.730947 8.138105 20.48 11.749053 31.744 11.210105a45.594947 45.594947 0 0 0 30.181053-15.306105l250.610526-306.391579L1000.292244 210.189474 1023.251402 0zM133.233718 1022.976H30.941507a30.773895 30.773895 0 0 1-30.72-30.666105v-347.836632c0-16.869053 13.850947-30.72 30.72-30.72h102.292211c16.869053 0 30.72 13.850947 30.72 30.72v347.836632c0 16.869053-13.850947 30.72-30.72 30.72z" p-id="18590"></path><path d="M419.684244 1022.976H317.445928a30.773895 30.773895 0 0 1-30.72-30.666105V439.888842c0-16.869053 13.850947-30.72 30.72-30.72h102.292211c16.869053 0 30.72 13.850947 30.72 30.72v552.421053c0 16.869053-13.850947 30.72-30.72 30.72z m286.450527 0h-102.292211a30.773895 30.773895 0 0 1-30.72-30.666105v-398.982737c0-16.869053 13.850947-30.72 30.72-30.72h102.292211c16.869053 0 30.72 13.850947 30.72 30.72v398.982737c0 16.869053-13.850947 30.72-30.72 30.72z m286.450526 0h-102.292211a30.773895 30.773895 0 0 1-30.72-30.666105V337.596632c0-16.869053 13.797053-30.72 30.72-30.72h102.292211c16.869053 0 30.72 13.850947 30.72 30.72v654.713263c0 16.869053-13.850947 30.72-30.72 30.72z" p-id="18591"></path></svg>