<?xml version="1.0" standalone="no"?><!DOCTYPE svg PUBLIC "-//W3C//DTD SVG 1.1//EN" "http://www.w3.org/Graphics/SVG/1.1/DTD/svg11.dtd"><svg t="1614568729165" class="icon" viewBox="0 0 1024 1024" version="1.1" xmlns="http://www.w3.org/2000/svg" p-id="2146" xmlns:xlink="http://www.w3.org/1999/xlink" width="200" height="200"><defs><style type="text/css"></style></defs><path d="M909.136 920.272H684.514a20.203 20.203 0 0 0-0.73-2.038l-50.871-120.13c37.015-14.878 70.86-36.01 100.237-62.08l21.5 21.5-24.105 24.105c-7.79 7.79-7.79 20.421 0 28.211 3.896 3.894 9 5.842 14.106 5.842s10.21-1.948 14.105-5.842l76.418-76.418c7.79-7.79 7.79-20.421 0-28.212-7.792-7.788-20.419-7.788-28.211 0l-24.103 24.103-21.44-21.439C812.03 651.32 844.262 578 848.616 497.381h28.603v33.911c0 11.017 8.931 19.948 19.947 19.948s19.948-8.93 19.948-19.948V423.574c0-11.017-8.932-19.947-19.948-19.947s-19.947 8.93-19.947 19.947v33.911h-28.755c-4.829-79.31-36.633-151.443-86.342-207.33l20.738-20.739 24.103 24.102c3.896 3.895 9 5.842 14.105 5.842 5.106 0 10.21-1.948 14.105-5.843 7.79-7.79 7.79-20.42 0-28.21l-76.418-76.417c-7.793-7.79-20.42-7.79-28.212 0.001-7.79 7.79-7.79 20.42 0 28.21l24.104 24.104-20.71 20.71c-56.417-50.377-129.473-82.481-209.793-86.913v-28.596h33.91c11.017 0 19.948-8.93 19.948-19.947s-8.931-19.947-19.947-19.947H450.339c-11.016 0-19.948 8.93-19.948 19.947s8.932 19.947 19.948 19.947h33.911v28.695c-79.847 4.767-152.439 36.87-208.533 87.07l-20.967-20.966 24.103-24.103c7.79-7.79 7.79-20.422 0-28.212-7.792-7.79-20.42-7.79-28.212 0l-76.416 76.416c-7.79 7.79-7.79 20.422 0 28.212 3.895 3.895 9.001 5.842 14.105 5.842s10.21-1.947 14.106-5.842l24.103-24.103 21.026 21.027c-49.562 55.848-81.264 127.87-86.085 207.043h-30.304v-33.91c0-11.018-8.93-19.948-19.948-19.948s-19.947 8.93-19.947 19.947v107.717c0 11.017 8.93 19.948 19.947 19.948s19.948-8.93 19.948-19.948v-33.91h30.153c4.345 80.482 36.476 153.69 86.938 210.205l-21.727 21.727-24.103-24.103c-7.79-7.786-20.422-7.788-28.21 0-7.791 7.79-7.792 20.422-0.002 28.212l76.416 76.418c3.896 3.894 9 5.842 14.106 5.842 5.104 0 10.21-1.948 14.105-5.842 7.79-7.79 7.79-20.42 0-28.211l-24.103-24.104 21.757-21.757c30.935 27.515 66.845 49.542 106.2 64.55L335.02 918.55c-0.229 0.57-0.42 1.144-0.594 1.72H111.228c-11.017 0-19.947 8.932-19.947 19.948s8.93 19.947 19.947 19.947h797.908c11.016 0 19.947-8.931 19.947-19.947s-8.931-19.947-19.947-19.947z m-291.78-158.906l-83.648-197.532a89.607 89.607 0 0 0 18.524-8.726l152.672 152.67c-25.744 22.491-55.294 40.722-87.548 53.588zM454.919 478.62c0-27.6 22.454-50.054 50.054-50.054 25.589 0 46.74 19.305 49.688 44.114a19.939 19.939 0 0 0-0.594 4.754c0 1.883 0.278 3.697 0.767 5.423-2.16 25.623-23.689 45.816-49.861 45.816-27.6 0-50.054-22.454-50.054-50.053z m29.331 303.544a302.964 302.964 0 0 1-48.307-7.182l48.307-119.778v126.96z m39.896-138.605l55.108 130.138a302.9 302.9 0 0 1-55.108 8.565V643.56z m209.03 36.07l-152.511-152.51c5.76-8.959 9.983-18.991 12.273-29.738h215.704c-4.257 69.627-32.03 132.993-75.466 182.248z m75.315-222.144H592.389a89.419 89.419 0 0 0-11.14-26.456l152.628-152.63c42.545 48.58 69.903 110.765 74.614 179.086zM705.694 250.161L553.141 402.714a89.385 89.385 0 0 0-28.995-11.966V174.976c69.329 4.333 132.433 31.978 181.548 75.185zM484.25 175.074v216.033a89.44 89.44 0 0 0-27.778 11.819l-152.51-152.51c48.792-43.029 111.432-70.688 180.288-75.342zM275.812 278.688l152.67 152.671a89.419 89.419 0 0 0-10.928 26.126h-216.1c4.702-68.185 31.958-130.26 74.358-178.797z m-74.508 218.693h215.701a89.405 89.405 0 0 0 12.06 29.407L276.513 679.34c-43.29-49.214-70.96-112.47-75.21-181.959z m103.448 210.142L457.38 554.895a89.568 89.568 0 0 0 20.478 9.488L397.63 763.312c-34.339-12.99-65.733-32.015-92.878-55.789z m116.113 104.844a342.65 342.65 0 0 0 63.385 9.77v30.313h-33.911c-11.016 0-19.948 8.931-19.948 19.947s8.932 19.947 19.948 19.947h107.717c11.016 0 19.947-8.93 19.947-19.947s-8.931-19.947-19.947-19.947h-33.911v-30.213a342.425 342.425 0 0 0 70.827-11.42l46.35 109.456H377.347l43.518-107.906z" p-id="2147"></path></svg>