<?xml version="1.0" standalone="no"?><!DOCTYPE svg PUBLIC "-//W3C//DTD SVG 1.1//EN" "http://www.w3.org/Graphics/SVG/1.1/DTD/svg11.dtd"><svg t="1597150444072" class="icon" viewBox="0 0 1024 1024" version="1.1" xmlns="http://www.w3.org/2000/svg" p-id="53941" xmlns:xlink="http://www.w3.org/1999/xlink" width="200" height="200"><defs><style type="text/css"></style></defs><path d="M852.06096 449.794167c-11.634995 11.252681-26.777046 17.968768-40.495202 17.968768-4.506491 0-10.765005-0.758608-15.04873-4.416181-12.264158-10.46096-25.259831-15.768203-38.592662-15.768203-25.100282 0-54.421072 20.012794-54.375917 77.31778l29.49539 266.286359c0 24.176105-19.606397 43.836689-43.713264 43.836689L334.028222 835.019379c-24.109878 0-43.728316-19.663594-43.773471-42.948636l29.594732-268.059454c0-56.359737-27.222578-76.432738-52.690122-76.432738-13.326811 0-26.144873 5.557103-38.059831 16.51477-3.759925 3.446849-10.147883 3.955597-13.621825 3.955597-13.23048 0-28.206961-6.481279-40.094826-17.366698l-3.242145-2.959172c-8.374788-7.655315-13.098024-17.935654-13.332832-28.929445-0.228786-10.993791 4.054939-21.466792 12.086548-29.459266L274.492568 286.163688c28.345437-28.249106 60.577234-43.478457 67.317404-43.478457 5.120602 0.505738 31.6508 16.51477 52.973095 48.0873 1.541298 2.278833 38.722107 55.802822 116.900847 55.802822 77.965005 0 115.329445-53.487865 116.894826-55.802822 21.996613-32.590028 50.305927-47.9127 55.853998-48.0873 9.416369 0 42.954657 16.683349 69.490875 43.920978l98.992286 101.605268c8.097836 8.320602 12.45682 19.326435 12.28222 31.003575C865.020508 430.895202 860.3635 441.744497 852.06096 449.794167L852.06096 449.794167zM797.344873 244.190405c-30.145626-30.943368-78.597178-62.26604-112.915146-62.26604-38.183255 0-81.770085 38.782314-105.976294 74.64158-0.86698 1.20715-21.743744 29.260583-66.778551 29.260583-45.393039 0-65.926623-28.074506-66.655127-29.110066-24.341675-36.024835-66.959172-74.795108-103.020132-74.795108-33.607526 0-80.722484 31.701976-110.290122 61.161242L128.120414 346.235183c-19.916463 19.862277-30.555033 46.079398-29.961994 73.837817 0.574976 27.779492 12.324365 53.523989 33.065663 72.501223l3.251176 2.977234c23.08937 21.141675 52.617874 33.252305 80.999436 33.252305 16.334149 0 31.13904-3.958608 43.532643-11.577799 0.132455 1.785136 0.225776 3.738852 0.234807 5.894262l-29.603763 268.062465c0 57.672248 46.825964 104.600564 104.39285 104.600564l355.296331 0c57.548824 0 104.368768-46.928316 104.326623-105.482596l-29.507432-266.286359c0-3.45889 0.1746-6.372907 0.442521-8.826341 13.269614 8.73904 29.326811 13.326811 46.973471 13.326811 29.507432 0 59.619944-12.775917 82.640075-35.0254 19.997742-19.368579 31.238382-45.420132 31.647789-73.368203 0.409407-27.969144-10.069614-54.357855-29.516463-74.325494L797.344873 244.190405 797.344873 244.190405zM797.344873 244.190405" p-id="53942" fill="#ffffff"></path></svg>