<?xml version="1.0" standalone="no"?><!DOCTYPE svg PUBLIC "-//W3C//DTD SVG 1.1//EN" "http://www.w3.org/Graphics/SVG/1.1/DTD/svg11.dtd"><svg t="1597150463509" class="icon" viewBox="0 0 1024 1024" version="1.1" xmlns="http://www.w3.org/2000/svg" p-id="54834" xmlns:xlink="http://www.w3.org/1999/xlink" width="200" height="200"><defs><style type="text/css"></style></defs><path d="M681.992 360.657v-135.12l-1.924-4.973C661.103 171.482 553.643-14.584 458.863 3.247 385.811 16.873 377.36 129.165 377.36 212.44v148.221c-33.872 17.364-57.119 52.619-57.119 93.223v456.94c0 57.73 46.976 104.712 104.717 104.712h209.436c57.74 0 104.716-46.982 104.716-104.713v-456.94c0.001-40.604-23.246-75.86-57.118-93.226z m-257.033 45.628h209.435c22.984 0 42.217 16.38 46.64 38.079H378.315c4.424-21.699 23.658-38.079 46.643-38.079z m44.383-346.888c36.22-6.779 124.295 101.123 155.532 176.954v112.817H434.479V212.44c0-115.682 21.912-150.637 34.863-153.042z m212.65 851.424c0 26.25-21.353 47.596-47.598 47.596H424.959c-26.245 0-47.598-21.345-47.598-47.596V482.44h304.632l-0.001 428.381z" fill="#ffffff" p-id="54835"></path></svg>