<?xml version="1.0" standalone="no"?><!DOCTYPE svg PUBLIC "-//W3C//DTD SVG 1.1//EN" "http://www.w3.org/Graphics/SVG/1.1/DTD/svg11.dtd"><svg t="1597150549483" class="icon" viewBox="0 0 1024 1024" version="1.1" xmlns="http://www.w3.org/2000/svg" p-id="56967" xmlns:xlink="http://www.w3.org/1999/xlink" width="200" height="200"><defs><style type="text/css"></style></defs><path d="M766.72 0H257.28C164.8128 0 89.6 76.032 89.6 169.4976v684.9792C89.6 947.9424 164.8128 1024 257.28 1024h509.44c92.4672 0 167.68-76.032 167.68-169.5232V169.4976C934.4 76.032 859.1872 0 766.72 0z m117.4016 186.5728H291.5584c-13.8752 0-25.1392 11.392-25.1392 25.4208s11.264 25.4208 25.1392 25.4208h592.5632v617.0624c0 65.4336-52.6592 118.6816-117.4016 118.6816H257.28c-64.7168 0-117.376-53.248-117.376-118.6816V169.4976c0-65.4336 52.6592-118.6816 117.376-118.6816h509.44c64.7424 0 117.4016 53.2224 117.4016 118.6816v17.0752z m-139.2128-94.5152c-15.872 0-28.7232 13.0048-28.7232 29.0304 0 16.0512 12.8512 29.0304 28.7232 29.0304 15.872 0 28.7232-13.0048 28.7232-29.0304 0-16.0256-12.8512-29.0304-28.7232-29.0304zM512 855.2448c142.3616 0 258.2016-117.0944 258.2016-261.0176S654.3616 333.184 512 333.184 253.824 450.2784 253.824 594.2272c-0.0256 143.9232 115.7888 261.0176 258.176 261.0176z m0-471.2192c114.6368 0 207.9232 94.2848 207.9232 210.2016 0 115.8912-93.2608 210.176-207.9232 210.176-114.6368 0-207.8976-94.2848-207.8976-210.176 0-115.9168 93.2608-210.2016 207.8976-210.2016z m-119.808 235.6224a25.2928 25.2928 0 0 0 25.1392-25.4208c0-52.7616 42.4704-95.6928 94.6432-95.6928a25.2928 25.2928 0 0 0 25.1392-25.4208 25.2928 25.2928 0 0 0-25.1392-25.4208c-79.9232 0-144.9472 65.7408-144.9472 146.5344a25.344 25.344 0 0 0 25.1648 25.4208z" p-id="56968" fill="#ffffff"></path></svg>