<?xml version="1.0" standalone="no"?><!DOCTYPE svg PUBLIC "-//W3C//DTD SVG 1.1//EN" "http://www.w3.org/Graphics/SVG/1.1/DTD/svg11.dtd"><svg t="1597150586341" class="icon" viewBox="0 0 1024 1024" version="1.1" xmlns="http://www.w3.org/2000/svg" p-id="57870" xmlns:xlink="http://www.w3.org/1999/xlink" width="200" height="200"><defs><style type="text/css"></style></defs><path d="M880.7 323.2c-26.5-26.8-61.5-42.1-96-42.1H602.3c-13.3 0-24 10.7-24 24s10.7 24 24 24h182.3c46 0 89.5 43.9 89.5 90.4v274.6c0 46.8-37.7 89.4-79.1 89.4H226.9c-46.6 0-79.1-47.1-79.1-89.4V400.7c0-40.1 39-71.5 88.8-71.5h68c13.3 0 24-10.7 24-24s-10.7-24-24-24h-68c-36.8 0-71.1 12.2-96.6 34.4-25.9 22.5-40.1 52.7-40.1 85V694c0 34 12.9 68.3 35.6 94.2 24.4 27.9 56.9 43.3 91.5 43.3h568.1c33.4 0 66.4-15.7 90.7-43.2 23.1-26.2 36.4-60.5 36.4-94.3V419.5c0-34.6-15.2-69.7-41.5-96.3zM361.8 237.5h180c13.3 0 24.1-10.7 24.1-24s-10.7-24-24-24H361.8c-13.3 0-24 10.7-24 24s10.7 24 24 24z" p-id="57871" fill="#ffffff"></path><path d="M464.4 739.9c101 0 182.8-81.9 182.8-182.9s-81.8-182.7-182.8-182.7c-100.9 0-182.8 81.8-182.8 182.8s81.8 182.8 182.8 182.8z m-95.3-278.1c25.5-25.5 59.3-39.5 95.3-39.5s69.8 14 95.3 39.5 39.5 59.3 39.5 95.3-14 69.8-39.5 95.3-59.3 39.5-95.3 39.5-69.8-14-95.3-39.5-39.5-59.3-39.5-95.3 14-69.8 39.5-95.3z" p-id="57872" fill="#ffffff"></path><path d="M694.002437 426.960977a45.4 45.4 0 1 0 89.628677-14.537549 45.4 45.4 0 1 0-89.628677 14.537549Z" p-id="57873" fill="#ffffff"></path></svg>