<?xml version="1.0" standalone="no"?><!DOCTYPE svg PUBLIC "-//W3C//DTD SVG 1.1//EN" "http://www.w3.org/Graphics/SVG/1.1/DTD/svg11.dtd"><svg t="1597150675693" class="icon" viewBox="0 0 1031 1024" version="1.1" xmlns="http://www.w3.org/2000/svg" p-id="58912" xmlns:xlink="http://www.w3.org/1999/xlink" width="201.3671875" height="200"><defs><style type="text/css"></style></defs><path d="M1013.161943 244.017021H10.949177c-3.631206 0-7.262411-2.178723-8.714894-5.083688-2.178723-2.904965-2.904965-7.262411-1.452482-10.167376L94.466908 6.53617c1.452482-4.357447 5.809929-6.53617 10.167375-6.53617h815.568795c4.357447 0 7.988652 2.904965 10.167376 6.53617L1023.329319 228.765957c1.452482 3.631206 0.726241 7.262411-0.726241 10.167376-2.178723 2.904965-5.809929 5.083688-9.441135 5.083688z m-985.50922-21.787234h969.531915L912.214425 21.787234H111.896695L27.652723 222.229787z" p-id="58913" fill="#ffffff"></path><path d="M1013.161943 938.303546H10.949177c-5.809929 0-10.893617-5.083688-10.893617-10.893617V233.849645c0-5.809929 5.083688-10.893617 10.893617-10.893617h1002.212766c5.809929 0 10.893617 5.083688 10.893617 10.893617v693.560284c0 6.53617-5.083688 10.893617-10.893617 10.893617z m-991.319149-21.787234h980.425532V244.743262H21.842794v671.77305z" p-id="58914" fill="#ffffff"></path><path d="M512.05556 938.303546c-5.809929 0-10.893617-5.083688-10.893617-10.893617V233.849645c0-5.809929 5.083688-10.893617 10.893617-10.893617s10.893617 5.083688 10.893617 10.893617v693.560284c0 6.53617-5.083688 10.893617-10.893617 10.893617z" p-id="58915" fill="#ffffff"></path><path d="M506.971872 591.886525H16.032865c-5.809929 0-10.893617-5.083688-10.893617-10.893617S10.222936 570.099291 16.032865 570.099291h490.212766c5.809929 0 10.893617 5.083688 10.893617 10.893617s-4.357447 10.893617-10.167376 10.893617zM931.096695 620.93617c-5.809929 0-10.893617-5.083688-10.893617-10.893617v-116.198581c0-5.809929 5.083688-10.893617 10.893617-10.893617s10.893617 5.083688 10.893617 10.893617v116.198581c0 5.809929-4.357447 10.893617-10.893617 10.893617zM931.096695 1024c-5.809929 0-10.893617-5.083688-10.893617-10.893617v-84.970213c0-5.809929 5.083688-10.893617 10.893617-10.893617s10.893617 5.083688 10.893617 10.893617V1013.106383c0 5.809929-4.357447 10.893617-10.893617 10.893617zM850.483929 997.129078c-5.809929 0-10.893617-5.083688-10.893617-10.893617v-58.099291c0-5.809929 5.083688-10.893617 10.893617-10.893617s10.893617 5.083688 10.893617 10.893617v58.099291c0 5.809929-5.083688 10.893617-10.893617 10.893617zM93.014425 1024c-5.809929 0-10.893617-5.083688-10.893617-10.893617v-84.970213c0-5.809929 5.083688-10.893617 10.893617-10.893617s10.893617 5.083688 10.893617 10.893617V1013.106383c0 5.809929-5.083688 10.893617-10.893617 10.893617zM173.627191 997.129078c-5.809929 0-10.893617-5.083688-10.893617-10.893617v-58.099291c0-5.809929 5.083688-10.893617 10.893617-10.893617s10.893617 5.083688 10.893617 10.893617v58.099291c0 5.809929-5.083688 10.893617-10.893617 10.893617z" p-id="58916" fill="#ffffff"></path></svg>