<?xml version="1.0" standalone="no"?><!DOCTYPE svg PUBLIC "-//W3C//DTD SVG 1.1//EN" "http://www.w3.org/Graphics/SVG/1.1/DTD/svg11.dtd"><svg t="1597150835327" class="icon" viewBox="0 0 1024 1024" version="1.1" xmlns="http://www.w3.org/2000/svg" p-id="61892" xmlns:xlink="http://www.w3.org/1999/xlink" width="200" height="200"><defs><style type="text/css"></style></defs><path d="M938.1376 194.304c-23.1936-27.136-53.6576-42.1376-85.6576-42.1376H460.8c-42.3424 0-84.8896 16.128-119.9104 45.568a213.504 213.504 0 0 0-50.0736 60.928s-18.688 34.6112-21.504 60.0576c-2.048 10.9056-3.072 21.8624-3.072 32.6656 0 103.424 85.248 187.5456 189.952 187.5456l93.0816-0.512a24.064 24.064 0 0 0-0.1536-48.1792H455.8336c-32.1024 3.1232-71.2704-25.6-71.2704-25.6A133.9392 133.9392 0 0 1 326.656 391.168c-11.9296-42.5984 1.8944-84.8384 1.8944-84.8384 9.1648-25.6 25.6-48.9984 47.2064-67.1744 25.2928-21.1456 55.6032-32.8704 85.1968-32.8704h391.68c21.6576 0 37.2736 14.5408 44.6976 23.1936 12.4928 14.5408 20.0704 33.6896 20.48 51.5072l-33.6384 254.1056-0.768 5.376c-2.9184 22.016-8.5504 62.976-30.4128 97.5872-25.9072 40.9088-66.8672 60.7232-125.184 60.7232h-411.136c-19.0464 0-33.6896-12.1344-42.5984-22.272a111.8208 111.8208 0 0 1-23.9616-47.36L159.232 92.0064s-5.8368-32.4608-14.7456-47.4624c-17.92-30.208-40.96-39.5264-56.5248-41.6768-17.7664-2.4576-43.3152 12.288-35.2256 32 4.4032 10.752 19.456 15.104 32.8704 28.416 19.712 19.456 22.7328 51.3536 22.7328 51.3536l88.576 523.9808c0 0.3584 0.1536 0.5632 0.1536 0.9216 5.12 25.7024 18.432 52.1728 36.352 72.5504 23.296 26.7264 52.1216 40.8064 83.1488 40.8064h410.9824c41.216 0 77.312-8.448 107.3664-25.2416 25.7024-14.336 47.104-34.7136 63.488-60.6208 28.2624-44.6464 35.1232-94.976 38.4-119.2448l0.6656-5.12v-0.256l33.8944-256.1536a35.584 35.584 0 0 0 0.2048-3.584 138.24 138.24 0 0 0-33.4336-88.3712zM360.96 771.1232a126.464 126.464 0 0 0 0 252.8768 126.5152 126.5152 0 0 0 126.2592-126.464 126.5152 126.5152 0 0 0-126.2592-126.4128z m0 198.8096a72.3968 72.3968 0 0 1 0-144.6912 72.3968 72.3968 0 0 1 0 144.6912zM757.76 771.072a126.464 126.464 0 0 0 0 252.8768 126.464 126.464 0 0 0 0-252.8768z m0 198.8096a72.3968 72.3968 0 0 1 0-144.6912 72.3968 72.3968 0 0 1 0 144.6912z" fill="#ffffff" p-id="61893"></path></svg>