<?xml version="1.0" standalone="no"?><!DOCTYPE svg PUBLIC "-//W3C//DTD SVG 1.1//EN" "http://www.w3.org/Graphics/SVG/1.1/DTD/svg11.dtd"><svg t="1597149652151" class="icon" viewBox="0 0 1024 1024" version="1.1" xmlns="http://www.w3.org/2000/svg" p-id="35667" xmlns:xlink="http://www.w3.org/1999/xlink" width="200" height="200"><defs><style type="text/css"></style></defs><path d="M226.893 981.248a25.6 25.6 0 1 1-44.186-25.856l178.944-305.971a25.6 25.6 0 1 1 44.211 25.856L226.918 981.248zM469.99 565.581a25.6 25.6 0 1 1-44.185-25.856l43.699-74.701a25.6 25.6 0 1 1 44.186 25.856l-43.7 74.7zM571.392 380.57a25.6 25.6 0 0 1-42.394-28.698l49.408-72.96a25.6 25.6 0 1 1 42.394 28.723l-49.408 72.96zM698.24 175.334a25.6 25.6 0 1 1-44.211-25.856l30.515-52.198a25.6 25.6 0 1 1 44.211 25.856l-30.515 52.173z" fill="#ffffff" p-id="35668"></path><path d="M640 332.8a102.4 102.4 0 1 1 0-204.8 102.4 102.4 0 0 1 0 204.8z m0-51.2a51.2 51.2 0 1 0 0-102.4 51.2 51.2 0 0 0 0 102.4z m128 256a76.8 76.8 0 1 1 0-153.6 76.8 76.8 0 0 1 0 153.6z m0-51.2a25.6 25.6 0 1 0 0-51.2 25.6 25.6 0 0 0 0 51.2zM409.6 691.2a76.8 76.8 0 1 1 0-153.6 76.8 76.8 0 0 1 0 153.6z m0-51.2a25.6 25.6 0 1 0 0-51.2 25.6 25.6 0 0 0 0 51.2z" fill="#ffffff" p-id="35669"></path><path d="M110.592 923.853a25.6 25.6 0 0 1-27.546-43.162l469.71-299.827a25.6 25.6 0 1 1 27.545 43.162L110.592 923.853z m577.587-368.487a25.6 25.6 0 1 1-27.648-43.084l56.781-36.455a25.6 25.6 0 0 1 27.648 43.085l-56.78 36.454z m145.075-92.825a25.6 25.6 0 1 1-27.545-43.162l98.739-63.027a25.6 25.6 0 1 1 27.546 43.162l-98.74 63.027zM409.6 392.346L553.83 307.2l79.156 145.408-140.8 78.131L409.6 392.346zM510.72 461.9l53.018-29.415-29.543-54.246-54.272 32.051 30.797 51.61z" fill="#ffffff" p-id="35670"></path><path d="M558.515 478.029l164.147 33.254-38.476 161.024-156.928-36.173L558.49 478.03z m28.595 119.373l59.085 13.619 14.336-60.083-61.773-12.519-11.648 58.983z" fill="#ffffff" p-id="35671"></path></svg>