<?xml version="1.0" standalone="no"?><!DOCTYPE svg PUBLIC "-//W3C//DTD SVG 1.1//EN" "http://www.w3.org/Graphics/SVG/1.1/DTD/svg11.dtd"><svg t="1597149625322" class="icon" viewBox="0 0 1451 1024" version="1.1" xmlns="http://www.w3.org/2000/svg" p-id="34723" xmlns:xlink="http://www.w3.org/1999/xlink" width="283.3984375" height="200"><defs><style type="text/css"></style></defs><path d="M1399.868503 946.210573H51.859618c-28.431808 0-51.859618 17.513994-51.859618 38.894714s23.314083 38.894713 51.859618 38.894713h1348.008885c28.431808 0 51.859618-17.513994 51.859618-38.894713s-23.314083-38.894713-51.859618-38.894714M155.52199 881.386051h1140.627277a51.802754 51.802754 0 0 0 51.859618-51.859618v-51.859618a621.803643 621.803643 0 0 0-536.621946-615.491782 103.662372 103.662372 0 1 0-189.242114-58.512661 102.354509 102.354509 0 0 0 18.139493 58.512661 621.633052 621.633052 0 0 0-536.565082 615.548645v51.859618a51.802754 51.802754 0 0 0 51.859618 51.859618m25.929809-103.719236a545.890715 545.890715 0 0 1 469.352288-538.555308 77.6757 77.6757 0 0 0 53.451799-120.892048 25.929809 25.929809 0 1 1 47.310529-14.557086 24.678809 24.678809 0 0 1-4.54909 14.557086 77.6757 77.6757 0 0 0 53.451799 120.892048 545.890715 545.890715 0 0 1 469.69347 538.555308v25.929809H181.451799z" p-id="34724" fill="#ffffff"></path><path d="M525.874722 351.75833a509.270546 509.270546 0 0 0-225.862283 225.862283 38.83785 38.83785 0 1 0 69.487339 34.686806A431.196801 431.196801 0 0 1 560.675255 421.131941a38.83785 38.83785 0 1 0-34.857396-69.373611" p-id="34725" fill="#ffffff"></path></svg>