<?xml version="1.0" standalone="no"?><!DOCTYPE svg PUBLIC "-//W3C//DTD SVG 1.1//EN" "http://www.w3.org/Graphics/SVG/1.1/DTD/svg11.dtd"><svg t="1597149714233" class="icon" viewBox="0 0 1024 1024" version="1.1" xmlns="http://www.w3.org/2000/svg" p-id="37475" xmlns:xlink="http://www.w3.org/1999/xlink" width="200" height="200"><defs><style type="text/css"></style></defs><path d="M391.9 212c0.2 0.3 0.3 1.1 0.3 2.3V359c0 1.2 0.2 2-0.1 2.3H155.4c-0.3-0.3-1.9-1.1-1.9-2.3V214.3c0-1.2 1.6-2 1.9-2.3h236.9m0.6-29.8H154.7c-16.5 0-31.1 14.4-31.1 32.1V359c0 17.8 14.6 32.1 31.1 32.1h238.2c16.5 0 29.2-14.4 29.2-32.1V214.3c0-17.8-13.1-32.1-29.5-32.1h0.3z m388 477.6c16.5 0 29.8 13.4 29.8 29.8 0 16.5-13.4 29.8-29.8 29.8-16.5 0-29.8-13.4-29.8-29.8-0.1-16.5 13.3-29.8 29.8-29.8m0-29.9c-33 0-59.7 26.7-59.7 59.7s26.7 59.7 59.7 59.7 59.7-26.7 59.7-59.7-26.8-59.7-59.7-59.7z m-492.5 29.9c16.5 0 29.8 13.4 29.8 29.8 0 16.5-13.4 29.8-29.8 29.8-16.5 0-29.8-13.4-29.8-29.8-0.1-16.5 13.3-29.8 29.8-29.8m0-29.9c-33 0-59.7 26.7-59.7 59.7s26.7 59.7 59.7 59.7 59.7-26.7 59.7-59.7-26.7-59.7-59.7-59.7z m506.8-298.5v-44.8c14.9-58.4-14.9-89.5-74.6-89.5-22.8 0-101.6 13.5-134.3 29.8-29.8 14.9-29.8 29.8-14.9 44.8h0.6c8.4-8.4 21.9-16.8 42.5-22.5-0.7-0.3 66.6-21.2 106.1-22.3 22.6-0.6 39.5 5.4 46.2 14.7 6.7 9.4 3.8 24.5 0.1 35.5-1 3-1.5 6.2-1.5 9.4v44.8c0 3.8 0.7 7.6 2.1 11.1 7.7 19.2 19.9 46.9 34.1 79 36.7 82.9 98.1 221.8 98.1 263.1 0 70-56.9 126.9-126.9 126.9-49.6 0-94.9-29.2-115.4-74.5-4.9-10.7-15.5-17.5-27.2-17.5H422.9c-11.7 0-22.3 6.8-27.2 17.5-20.6 45.3-65.9 74.5-115.4 74.5-70 0-126.9-56.9-126.9-126.9 0-7 0.7-14.3 2.1-22.3 1.3-7.4-0.2-15.1-4.3-21.4-18.1-27.9-27.6-60.1-27.6-93.1 0-43.4 11-77.4 19.3-97h248.8c-26.5 24.4-37.3 68.5-26.3 114.9 13.6 57.8 54.5 95.1 104 95.1 5.7 0 11.4-0.5 17.2-1.4 123-20.4 204.8-108.3 218.9-235 6.2-55.7-7.3-105.3-38-139.6-2-2.3-4.3-4.3-6.5-6.4-11.3-10.2-46.8-3.4-33.6 10.5 34.7 23.9 55.2 71.3 48.4 132.1-14.9 134.3-104.5 194-194 208.9-4.2 0.7-8.4 1-12.3 1-79.9 0-104.2-136.8-47.4-165.2V421H124.2c-15.8 28.8-30.5 74.6-30.5 126.9 0 40.3 12 77.8 32.4 109.3-1.6 8.9-2.6 18.1-2.6 27.5 0 86.5 70.2 156.7 156.7 156.7 63.5 0 118-37.8 142.6-92h207.3c24.6 54.2 79.2 92 142.6 92 86.5 0 156.7-70.2 156.7-156.7 0.1-63.7-104.4-278.6-134.2-353.3z m0 0" fill="#ffffff" p-id="37476"></path></svg>