<?xml version="1.0" standalone="no"?><!DOCTYPE svg PUBLIC "-//W3C//DTD SVG 1.1//EN" "http://www.w3.org/Graphics/SVG/1.1/DTD/svg11.dtd"><svg t="1597149772951" class="icon" viewBox="0 0 1024 1024" version="1.1" xmlns="http://www.w3.org/2000/svg" p-id="38380" xmlns:xlink="http://www.w3.org/1999/xlink" width="200" height="200"><defs><style type="text/css"></style></defs><path d="M739.949642 873.728508h-457.970456c-10.200316 0-20.014846-4.824889-26.926256-13.238512-6.585999-7.999185-10.037611-18.453281-9.715269-29.429263l3.38305-113.020077c-17.264199-11.917424-32.423457-25.634844-45.643549-41.209563-27.563776-32.470529-46.960545-73.315796-59.298548-124.865869-10.869558-45.415352-16.396435-98.742908-17.394159-167.824264a10.231015 10.231015 0 0 1 10.232039-10.380418h42.789549a10.196223 10.196223 0 0 1 1.454118-4.708231c13.979386-23.195282 29.584806-45.467541 46.3834-66.195632 82.702584-101.929484 184.687326-158.062945 287.171442-158.062945 102.46365 0 204.448392 56.132438 287.169395 158.056805 16.806781 20.738323 32.413224 43.00956 46.390563 66.200748a10.177803 10.177803 0 0 1 1.454118 4.708232h39.118949a10.233062 10.233062 0 0 1 10.232039 10.379395c-0.994654 69.080332-6.520507 122.407887-17.390065 167.825286-12.33698 51.550073-31.733749 92.394317-59.298548 124.865869-14.06432 16.568351-30.330796 31.04097-48.981574 43.473117 0.110517 0.555655 0.177032 1.128707 0.194428 1.713015l3.245927 109.040439c0.345877 10.963703-3.100618 21.425985-9.705036 29.442566-6.898107 8.404414-16.705474 13.229303-26.895557 13.229302z m-471.128127-143.159514l-3.02694 101.099583c-0.173962 5.932106 1.671059 11.700483 5.064343 15.82236 3.060709 3.724835 7.007601 5.77247 11.120268 5.77247h457.970456c4.101411 0 8.040117-2.046612 11.092639-5.76326 3.402493-4.130064 5.241374-9.890254 5.05411-15.814174l-2.957355-99.340519c-58.368362 31.753191-137.025816 46.874587-240.550635 46.874587-105.437377-0.001023-185.082322-15.685237-243.766886-48.651047z m-121.784694-336.343351c2.918469 132.933615 24.518417 213.847459 71.64269 269.361821 55.112202 64.925708 148.504242 95.16543 293.907867 95.16543 145.399531 0 238.789525-30.239721 293.901726-95.16543 47.128367-55.518454 68.727291-136.431276 71.638597-269.361821h-731.09088z m54.931077-20.466124h624.900349c-12.55699-20.277836-26.390044-39.767725-41.179888-58.017368-78.754668-97.037057-175.095877-150.482293-271.273356-150.482293-96.196922 0-192.537108 53.444213-271.275404 150.487409-14.781658 18.241456-28.612665 37.731346-41.171701 58.012252z" p-id="38381" fill="#ffffff"></path><path d="M403.520333 306.556954a10.202363 10.202363 0 0 1-7.235798-2.997263c-3.996011-3.996011-3.996011-10.475586 0-14.47262l35.59059-35.589566c3.996011-3.993964 10.475586-3.993964 14.471596 0 3.996011 3.996011 3.996011 10.475586 0 14.472619l-35.59059 35.589567a10.202363 10.202363 0 0 1-7.235798 2.997263zM598.946234 306.556954a10.204409 10.204409 0 0 1-7.235798-2.997263l-35.590589-35.589567c-3.996011-3.996011-3.997034-10.475586 0-14.472619 3.996011-3.994987 10.475586-3.994987 14.471596 0l35.59059 35.589566c3.996011 3.996011 3.997034 10.475586 0 14.47262a10.204409 10.204409 0 0 1-7.235799 2.997263z" p-id="38382" fill="#ffffff"></path></svg>