<?xml version="1.0" standalone="no"?><!DOCTYPE svg PUBLIC "-//W3C//DTD SVG 1.1//EN" "http://www.w3.org/Graphics/SVG/1.1/DTD/svg11.dtd"><svg t="1597149806136" class="icon" viewBox="0 0 1024 1024" version="1.1" xmlns="http://www.w3.org/2000/svg" p-id="38910" xmlns:xlink="http://www.w3.org/1999/xlink" width="200" height="200"><defs><style type="text/css"></style></defs><path d="M1021.44 448c2.56-7.68 2.56-17.92-5.12-25.6C829.44 220.16 624.64 207.36 614.4 207.36c0 0-2.56 0-2.56 0-30.72-43.52-79.36-71.68-135.68-71.68-20.48 0-40.96 5.12-58.88 10.24-2.56-5.12-7.68-7.68-10.24-12.8-7.68-7.68-15.36-17.92-25.6-25.6-10.24-7.68-20.48-17.92-30.72-25.6-10.24-7.68-23.04-15.36-33.28-20.48L296.96 51.2l-17.92-7.68c-12.8-5.12-25.6-7.68-35.84-12.8C217.6 25.6 197.12 23.04 176.64 20.48 156.16 17.92 140.8 20.48 128 20.48c-5.12 0-10.24 0-12.8 0-2.56 0-5.12 0-5.12 0-5.12 0-10.24 5.12-10.24 10.24 0 5.12 5.12 10.24 10.24 10.24 0 0 23.04-2.56 61.44 2.56 17.92 2.56 38.4 7.68 61.44 15.36 10.24 5.12 23.04 7.68 33.28 12.8L281.6 81.92l15.36 10.24c10.24 5.12 20.48 12.8 28.16 20.48 10.24 7.68 17.92 15.36 25.6 23.04 7.68 7.68 15.36 17.92 20.48 25.6 2.56 2.56 2.56 5.12 5.12 7.68-40.96 30.72-66.56 79.36-66.56 133.12 0 17.92 2.56 35.84 7.68 53.76L7.68 680.96C2.56 686.08 0 693.76 0 698.88l0 281.6c0 7.68 2.56 15.36 10.24 20.48 5.12 2.56 10.24 5.12 15.36 5.12 2.56 0 5.12 0 7.68 0l972.8-266.24c10.24-2.56 17.92-12.8 17.92-23.04L1024 453.12C1024 450.56 1024 450.56 1021.44 448zM404.48 212.48c2.56 5.12 5.12 7.68 5.12 12.8 5.12 10.24 7.68 15.36 7.68 15.36l0 2.56c0 0 0 0 0 2.56 7.68 12.8 23.04 15.36 33.28 7.68s15.36-23.04 7.68-33.28c0 0-2.56-5.12-10.24-15.36-2.56-2.56-2.56-7.68-5.12-10.24 10.24-2.56 17.92-2.56 28.16-2.56 64 0 115.2 51.2 115.2 115.2 0 64-51.2 115.2-115.2 115.2-64 0-115.2-51.2-115.2-115.2C360.96 263.68 378.88 232.96 404.48 212.48zM345.6 401.92c30.72 40.96 76.8 66.56 130.56 66.56 92.16 0 166.4-74.24 166.4-166.4 0-15.36-2.56-28.16-5.12-40.96 53.76 10.24 192 46.08 325.12 176.64L102.4 655.36 345.6 401.92zM972.8 693.76 51.2 947.2l0-227.84L972.8 486.4 972.8 693.76z" p-id="38911" fill="#ffffff"></path></svg>