<?xml version="1.0" standalone="no"?><!DOCTYPE svg PUBLIC "-//W3C//DTD SVG 1.1//EN" "http://www.w3.org/Graphics/SVG/1.1/DTD/svg11.dtd"><svg t="1597149841937" class="icon" viewBox="0 0 1024 1024" version="1.1" xmlns="http://www.w3.org/2000/svg" p-id="40098" xmlns:xlink="http://www.w3.org/1999/xlink" width="200" height="200"><defs><style type="text/css"></style></defs><path d="M641.045758 155.409741c-1.022433-4.08973-2.044865-8.17946-4.08973-12.26919 1.022433 4.08973 3.067298 8.17946 4.08973 12.26919zM646.157921 80.772168c14.314055 21.471083 24.53838 47.031895 29.650543 74.637573-6.134595-27.605678-16.35892-53.16649-29.650543-74.637573zM378.280604 196.307042c0-9.201893 2.044865-19.426218 3.067297-27.605678-2.044865 8.17946-3.067298 17.381353-3.067297 27.605678zM348.630061 155.409741c6.134595-27.605678 16.35892-53.16649 29.650543-74.637573-13.291623 21.471083-23.515948 47.031895-29.650543 74.637573zM643.090623 167.678931zM383.392766 155.409741c1.022433-4.08973 2.044865-8.17946 4.08973-12.26919-1.022433 4.08973-2.044865 8.17946-4.08973 12.26919z" p-id="40099" fill="#ffffff"></path><path d="M849.62199 384.434623c0-120.647036-76.682438-219.822989-173.813526-229.024882-6.134595-27.605678-16.35892-53.16649-29.650543-74.637573v-1.022432c-2.044865-4.08973-5.112163-7.157028-8.17946-11.246758-1.022433-1.022433-1.022433-2.044865-2.044865-3.067297-2.044865-3.067298-5.112163-6.134595-8.17946-9.201893l-3.067298-3.067298-8.17946-8.17946c0-1.022433-2.044865-2.044865-3.067297-3.067297-6.134595-5.112163-11.246758-10.224325-17.381353-14.314055l-2.044865-2.044865c-2.044865-1.022433-4.08973-3.067298-6.134595-4.08973-2.044865-1.022433-5.112163-3.067298-7.157028-4.08973l-6.134595-3.067298c-3.067298-1.022433-5.112163-2.044865-8.17946-4.08973-2.044865-1.022433-4.08973-2.044865-6.134595-2.044865l-9.201892-3.067297c-2.044865-1.022433-4.08973-1.022433-6.134595-2.044865-3.067298-1.022433-7.157028-1.022433-10.224325-2.044865-2.044865 0-3.067298-1.022433-5.112163-1.022433-6.134595 1.022433-12.26919 1.022433-17.381353 1.022433s-11.246758 0-16.35892 1.022432c-2.044865 0-3.067298 1.022433-5.112162 1.022433-3.067298 1.022433-7.157028 1.022433-10.224325 2.044865-2.044865 0-4.08973 1.022433-6.134595 2.044865l-9.201893 3.067297c-2.044865 0-4.08973 0-6.134595 1.022433-3.067298 1.022433-5.112163 2.044865-8.17946 4.08973l-6.134595 3.067297c-2.044865 1.022433-5.112163 3.067298-7.157028 4.08973-2.044865 1.022433-4.08973 2.044865-6.134595 4.08973-1.022433 0-1.022433 1.022433-2.044865 2.044865-6.134595 4.08973-12.26919 9.201893-17.381352 14.314055l-3.067298 3.067298-8.17946 8.17946-3.067298 3.067297c-3.067298 3.067298-5.112163 6.134595-8.17946 9.201893-1.022433 1.022433-1.022433 2.044865-2.044865 3.067298-3.067298 3.067298-6.134595 7.157028-8.17946 10.224325v1.022432c-14.314055 21.471083-24.53838 47.031895-29.650543 74.637573C251.498973 164.611634 174.816534 263.787587 174.816534 384.434623c0 85.884331 38.852435 160.521904 96.108656 200.396772-10.224325 22.493515-16.35892 48.054328-16.35892 75.660006 0 68.502978 35.785138 126.781631 85.884331 148.252713-2.044865 12.26919-2.044865 18.403785-2.044865 18.403786 0 108.377846 77.704871 195.284609 173.813526 195.284609s173.813526-87.929196 173.813527-195.284609c0 0-1.022433-7.157028-2.044865-18.403786 50.099193-22.493515 85.884331-80.772168 85.884331-148.252713 0-27.605678-6.134595-53.16649-16.358921-75.660006 57.25622-39.874868 96.108656-114.512441 96.108656-200.396772zM645.135488 830.215197C644.113056 914.054663 584.81197 982.557641 512.219262 982.557641s-131.893794-68.502978-132.916226-152.342444c0-2.044865 1.022433-6.134595 1.022433-11.246758 1.022433-9.201893 3.067298-23.515948 6.134595-40.8973 7.157028-47.031895 18.403785-117.579739 33.740273-189.150014 46.009463-207.553799 85.884331-236.18191 93.041358-240.27164 6.134595 4.08973 46.009463 34.762705 90.996493 241.294073 15.336488 71.570276 26.583245 141.095686 33.740273 188.127581 2.044865 17.381353 4.08973 30.672975 5.112162 40.8973 1.022433 5.112163 2.044865 9.201893 2.044865 11.246758z m87.929196-279.124075c-11.246758 7.157028-22.493515 12.26919-35.785138 16.35892 10.224325 9.201893 18.403785 20.44865 24.538381 33.740273 8.17946 17.381353 13.291623 37.830003 13.291622 59.301086 0 48.054328-23.515948 88.951628-58.278653 107.355413-20.44865-137.005956-76.682438-460.094629-164.611634-460.094629-89.974061 0-146.207849 323.088673-166.656499 460.094629-33.740273-18.403785-58.278653-59.301086-58.278653-107.355413 0-21.471083 5.112163-41.919733 13.291623-59.301086 6.134595-13.291623 14.314055-24.53838 24.53838-33.740273-12.26919-4.08973-24.53838-9.201893-35.785138-16.35892-49.07676-31.695408-82.817033-95.086223-82.817033-166.656499 0-96.108656 59.301086-174.835959 134.961091-187.105149 7.157028-1.022433 13.291623-2.044865 20.448651-2.044865 4.08973 0 9.201893 0 13.291622 1.022433 0-9.201893 2.044865-19.426218 3.067298-27.605678 0-2.044865 1.022433-5.112163 1.022432-7.157028 0-2.044865 1.022433-4.08973 1.022433-5.112162 1.022433-4.08973 2.044865-8.17946 4.08973-12.26919 1.022433-2.044865 2.044865-5.112163 3.067297-7.157028 1.022433-2.044865 2.044865-4.08973 2.044865-6.134595 1.022433-2.044865 2.044865-4.08973 3.067298-7.157027l3.067297-6.134595 3.067298-6.134596 3.067297-6.134595c1.022433-2.044865 2.044865-4.08973 3.067298-5.112162 2.044865-3.067298 5.112163-6.134595 7.157028-10.224325 1.022433-1.022433 2.044865-3.067298 3.067297-4.08973 2.044865-2.044865 3.067298-4.08973 5.112163-6.134595l4.08973-4.08973c2.044865-2.044865 4.08973-3.067298 5.112162-5.112163 1.022433-1.022433 3.067298-2.044865 4.08973-3.067297 2.044865-2.044865 4.08973-3.067298 6.134595-5.112163 1.022433-1.022433 2.044865-2.044865 4.08973-3.067297 3.067298-2.044865 7.157028-4.08973 10.224325-6.134596 1.022433 0 1.022433-1.022433 2.044865-1.022432 9.201893 0 12.26919-1.022433 15.336488-2.044865 1.022433-1.022433 3.067298-1.022433 4.08973-1.022433 3.067298-1.022433 5.112163-2.044865 8.17946-2.044865 1.022433 0 3.067298-1.022433 4.08973-1.022432 3.067298-1.022433 5.112163-1.022433 8.17946-2.044865 1.022433 0 3.067298 0 4.08973-1.022433 4.08973-1.022433 8.17946-1.022433 12.26919-1.022432 4.08973 0 8.17946 0 12.26919 1.022432 1.022433 0 3.067298 0 4.08973 1.022433 3.067298 0 6.134595 1.022433 8.179461 2.044865 1.022433 0 3.067298 1.022433 4.08973 1.022432 3.067298 1.022433 5.112163 2.044865 8.17946 2.044865 1.022433 0 3.067298 1.022433 4.08973 1.022433 4.08973 1.022433 7.157028 2.044865 10.224325 4.08973 1.022433 0 1.022433 1.022433 2.044865 1.022432 4.08973 2.044865 7.157028 4.08973 10.224325 6.134596 1.022433 1.022433 2.044865 2.044865 4.08973 3.067297 2.044865 1.022433 4.08973 3.067298 6.134595 5.112163 1.022433 1.022433 3.067298 2.044865 4.08973 3.067297 2.044865 2.044865 4.08973 3.067298 5.112163 5.112163l4.08973 4.08973c2.044865 1.022433 4.08973 3.067298 5.112162 5.112162 1.022433 1.022433 2.044865 3.067298 3.067298 4.08973 2.044865 3.067298 5.112163 6.134595 7.157027 10.224325 1.022433 2.044865 2.044865 4.08973 3.067298 5.112163l3.067297 6.134595 3.067298 6.134595 3.067297 6.134595c1.022433 2.044865 2.044865 4.08973 3.067298 7.157028 1.022433 2.044865 2.044865 4.08973 2.044865 6.134595 1.022433 2.044865 2.044865 5.112163 3.067297 7.157027 1.022433 4.08973 3.067298 8.17946 4.08973 12.26919 0 2.044865 1.022433 4.08973 1.022433 5.112163 1.022433 2.044865 1.022433 5.112163 1.022432 7.157027 2.044865 9.201893 3.067298 18.403785 3.067298 27.605678 4.08973 0 8.17946-1.022433 13.291623-1.022432 7.157028 0 14.314055 1.022433 20.44865 2.044865 76.682438 12.26919 134.961091 92.018926 134.961091 187.105149 3.067298 71.570276-30.672975 133.938659-79.749736 165.634066zM410.998444 41.919733c6.134595-5.112163 11.246758-10.224325 17.381353-14.314055-6.134595 5.112163-11.246758 9.201893-17.381353 14.314055z" p-id="40100" fill="#ffffff"></path><path d="M849.62199 384.434623c0-120.647036-76.682438-219.822989-173.813526-229.024882-6.134595-27.605678-16.35892-53.16649-29.650543-74.637573v-1.022432c-2.044865-4.08973-5.112163-7.157028-8.17946-11.246758-1.022433-1.022433-1.022433-2.044865-2.044865-3.067297-2.044865-3.067298-5.112163-6.134595-8.17946-9.201893l-3.067298-3.067298-8.17946-8.17946c0-1.022433-2.044865-2.044865-3.067297-3.067297-6.134595-5.112163-11.246758-10.224325-17.381353-14.314055l-2.044865-2.044865c-2.044865-1.022433-4.08973-3.067298-6.134595-4.08973-2.044865-1.022433-5.112163-3.067298-7.157028-4.08973l-6.134595-3.067298c-3.067298-1.022433-5.112163-2.044865-8.17946-4.08973-2.044865-1.022433-4.08973-2.044865-6.134595-2.044865l-9.201892-3.067297c-2.044865-1.022433-4.08973-1.022433-6.134595-2.044865-3.067298-1.022433-7.157028-1.022433-10.224325-2.044865-2.044865 0-3.067298-1.022433-5.112163-1.022433-6.134595 1.022433-12.26919 1.022433-17.381353 1.022433s-11.246758 0-16.35892 1.022432c-2.044865 0-3.067298 1.022433-5.112162 1.022433-3.067298 1.022433-7.157028 1.022433-10.224325 2.044865-2.044865 0-4.08973 1.022433-6.134595 2.044865l-9.201893 3.067297c-2.044865 0-4.08973 0-6.134595 1.022433-3.067298 1.022433-5.112163 2.044865-8.17946 4.08973l-6.134595 3.067297c-2.044865 1.022433-5.112163 3.067298-7.157028 4.08973-2.044865 1.022433-4.08973 2.044865-6.134595 4.08973-1.022433 0-1.022433 1.022433-2.044865 2.044865-6.134595 4.08973-12.26919 9.201893-17.381352 14.314055l-3.067298 3.067298-8.17946 8.17946-3.067298 3.067297c-3.067298 3.067298-5.112163 6.134595-8.17946 9.201893-1.022433 1.022433-1.022433 2.044865-2.044865 3.067298-3.067298 3.067298-6.134595 7.157028-8.17946 10.224325v1.022432c-14.314055 21.471083-24.53838 47.031895-29.650543 74.637573C251.498973 164.611634 174.816534 263.787587 174.816534 384.434623c0 85.884331 38.852435 160.521904 96.108656 200.396772-10.224325 22.493515-16.35892 48.054328-16.35892 75.660006 0 68.502978 35.785138 126.781631 85.884331 148.252713-2.044865 12.26919-2.044865 18.403785-2.044865 18.403786 0 108.377846 77.704871 195.284609 173.813526 195.284609s173.813526-87.929196 173.813527-195.284609c0 0-1.022433-7.157028-2.044865-18.403786 50.099193-22.493515 85.884331-80.772168 85.884331-148.252713 0-27.605678-6.134595-53.16649-16.358921-75.660006 57.25622-39.874868 96.108656-114.512441 96.108656-200.396772zM645.135488 830.215197C644.113056 914.054663 584.81197 982.557641 512.219262 982.557641s-131.893794-68.502978-132.916226-152.342444c0-2.044865 1.022433-6.134595 1.022433-11.246758 1.022433-9.201893 3.067298-23.515948 6.134595-40.8973 7.157028-47.031895 18.403785-117.579739 33.740273-189.150014 46.009463-207.553799 85.884331-236.18191 93.041358-240.27164 6.134595 4.08973 46.009463 34.762705 90.996493 241.294073 15.336488 71.570276 26.583245 141.095686 33.740273 188.127581 2.044865 17.381353 4.08973 30.672975 5.112162 40.8973 1.022433 5.112163 2.044865 9.201893 2.044865 11.246758z m87.929196-279.124075c-11.246758 7.157028-22.493515 12.26919-35.785138 16.35892 10.224325 9.201893 18.403785 20.44865 24.538381 33.740273 8.17946 17.381353 13.291623 37.830003 13.291622 59.301086 0 48.054328-23.515948 88.951628-58.278653 107.355413-20.44865-137.005956-76.682438-460.094629-164.611634-460.094629-89.974061 0-146.207849 323.088673-166.656499 460.094629-33.740273-18.403785-58.278653-59.301086-58.278653-107.355413 0-21.471083 5.112163-41.919733 13.291623-59.301086 6.134595-13.291623 14.314055-24.53838 24.53838-33.740273-12.26919-4.08973-24.53838-9.201893-35.785138-16.35892-49.07676-31.695408-82.817033-95.086223-82.817033-166.656499 0-96.108656 59.301086-174.835959 134.961091-187.105149 7.157028-1.022433 13.291623-2.044865 20.448651-2.044865 4.08973 0 9.201893 0 13.291622 1.022433 0-9.201893 2.044865-19.426218 3.067298-27.605678 0-2.044865 1.022433-5.112163 1.022432-7.157028 0-2.044865 1.022433-4.08973 1.022433-5.112162 1.022433-4.08973 2.044865-8.17946 4.08973-12.26919 1.022433-2.044865 2.044865-5.112163 3.067297-7.157028 1.022433-2.044865 2.044865-4.08973 2.044865-6.134595 1.022433-2.044865 2.044865-4.08973 3.067298-7.157027l3.067297-6.134595 3.067298-6.134596 3.067297-6.134595c1.022433-2.044865 2.044865-4.08973 3.067298-5.112162 2.044865-3.067298 5.112163-6.134595 7.157028-10.224325 1.022433-1.022433 2.044865-3.067298 3.067297-4.08973 2.044865-2.044865 3.067298-4.08973 5.112163-6.134595l4.08973-4.08973c2.044865-2.044865 4.08973-3.067298 5.112162-5.112163 1.022433-1.022433 3.067298-2.044865 4.08973-3.067297 2.044865-2.044865 4.08973-3.067298 6.134595-5.112163 1.022433-1.022433 2.044865-2.044865 4.08973-3.067297 3.067298-2.044865 7.157028-4.08973 10.224325-6.134596 1.022433 0 1.022433-1.022433 2.044865-1.022432 9.201893 0 12.26919-1.022433 15.336488-2.044865 1.022433-1.022433 3.067298-1.022433 4.08973-1.022433 3.067298-1.022433 5.112163-2.044865 8.17946-2.044865 1.022433 0 3.067298-1.022433 4.08973-1.022432 3.067298-1.022433 5.112163-1.022433 8.17946-2.044865 1.022433 0 3.067298 0 4.08973-1.022433 4.08973-1.022433 8.17946-1.022433 12.26919-1.022432 4.08973 0 8.17946 0 12.26919 1.022432 1.022433 0 3.067298 0 4.08973 1.022433 3.067298 0 6.134595 1.022433 8.179461 2.044865 1.022433 0 3.067298 1.022433 4.08973 1.022432 3.067298 1.022433 5.112163 2.044865 8.17946 2.044865 1.022433 0 3.067298 1.022433 4.08973 1.022433 4.08973 1.022433 7.157028 2.044865 10.224325 4.08973 1.022433 0 1.022433 1.022433 2.044865 1.022432 4.08973 2.044865 7.157028 4.08973 10.224325 6.134596 1.022433 1.022433 2.044865 2.044865 4.08973 3.067297 2.044865 1.022433 4.08973 3.067298 6.134595 5.112163 1.022433 1.022433 3.067298 2.044865 4.08973 3.067297 2.044865 2.044865 4.08973 3.067298 5.112163 5.112163l4.08973 4.08973c2.044865 1.022433 4.08973 3.067298 5.112162 5.112162 1.022433 1.022433 2.044865 3.067298 3.067298 4.08973 2.044865 3.067298 5.112163 6.134595 7.157027 10.224325 1.022433 2.044865 2.044865 4.08973 3.067298 5.112163l3.067297 6.134595 3.067298 6.134595 3.067297 6.134595c1.022433 2.044865 2.044865 4.08973 3.067298 7.157028 1.022433 2.044865 2.044865 4.08973 2.044865 6.134595 1.022433 2.044865 2.044865 5.112163 3.067297 7.157027 1.022433 4.08973 3.067298 8.17946 4.08973 12.26919 0 2.044865 1.022433 4.08973 1.022433 5.112163 1.022433 2.044865 1.022433 5.112163 1.022432 7.157027 2.044865 9.201893 3.067298 18.403785 3.067298 27.605678 4.08973 0 8.17946-1.022433 13.291623-1.022432 7.157028 0 14.314055 1.022433 20.44865 2.044865 76.682438 12.26919 134.961091 92.018926 134.961091 187.105149 3.067298 71.570276-30.672975 133.938659-79.749736 165.634066z" p-id="40101" fill="#ffffff"></path><path d="M364.988981 930.413583c-10.224325-12.26919-18.403785-27.605678-24.53838-42.942165 0-2.044865-1.022433-6.134595-2.044865-11.246758h-1.022433c11.246758-3.067298 21.471083-8.17946 21.471083-16.35892l-10.224325-40.897301c-10.224325 30.672975-57.25622 23.515948-57.256221 23.515948-35.785138-5.112163-70.547843-33.740273-85.88433-76.682438-7.157028-19.426218-9.201893-37.830003-7.157028-56.233788 1.022433-13.291623 5.112163-26.583245 11.246758-37.830003-12.26919 1.022433-24.53838 0-36.807571-3.067297-53.16649-12.26919-103.265683-57.25622-126.781631-120.647036-30.672975-84.861898-4.08973-172.791094 59.301086-208.576232 6.134595-3.067298 11.246758-6.134595 17.381353-8.17946 4.08973-1.022433 8.17946-2.044865 11.246757-3.067298-3.067298-8.17946-5.112163-17.381353-6.134595-25.560812 0-2.044865-1.022433-4.08973-1.022432-7.157028 0-2.044865 0-3.067298-1.022433-5.112163 0-4.08973-1.022433-8.17946-1.022432-12.26919v-7.157027-6.134595c0-2.044865 0-4.08973 1.022432-7.157028 0-2.044865 0-4.08973 1.022433-6.134595 0-2.044865 1.022433-4.08973 1.022432-6.134595 0-2.044865 1.022433-4.08973 1.022433-6.134595 0-2.044865 1.022433-4.08973 1.022432-6.134595 1.022433-4.08973 2.044865-7.157028 3.067298-11.246758 1.022433-2.044865 1.022433-3.067298 2.044865-5.112162s2.044865-4.08973 3.067297-7.157028c1.022433-2.044865 1.022433-3.067298 2.044865-5.112162l3.067298-6.134595c1.022433-1.022433 2.044865-3.067298 3.067297-4.08973 1.022433-2.044865 3.067298-4.08973 4.08973-6.134595 1.022433-1.022433 2.044865-2.044865 2.044865-3.067298 2.044865-3.067298 5.112163-6.134595 7.157028-9.201893 0-1.022433 1.022433-1.022433 2.044865-2.044865 2.044865-2.044865 4.08973-4.08973 7.157027-6.134595 1.022433-1.022433 2.044865-2.044865 3.067298-2.044865 2.044865-2.044865 4.08973-3.067298 6.134595-5.112162 1.022433-1.022433 2.044865-2.044865 3.067298-2.044865 2.044865-1.022433 4.08973-3.067298 7.157027-4.08973 1.022433-1.022433 2.044865-1.022433 3.067298-2.044865 3.067298-2.044865 7.157028-3.067298 11.246757-5.112163 4.08973-1.022433 7.157028-2.044865 11.246758-3.067297 1.022433 0 2.044865 0 4.08973-1.022433 3.067298-1.022433 5.112163-1.022433 8.17946-1.022432h16.35892c3.067298 0 6.134595 0 9.201893 1.022432h2.044865c4.08973 0 7.157028 1.022433 11.246757 2.044865 1.022433 0 3.067298 1.022433 4.08973 1.022433 2.044865 1.022433 5.112163 1.022433 7.157028 2.044865 2.044865 1.022433 3.067298 1.022433 5.112162 2.044865l6.134595 3.067297c2.044865 1.022433 3.067298 1.022433 5.112163 2.044865l6.134595 3.067298c1.022433 1.022433 3.067298 2.044865 4.08973 2.044865 2.044865 1.022433 3.067298 2.044865 5.112163 3.067297 12.26919-5.112163 25.560813-8.17946 39.874867-9.201892v-1.022433c-5.112163-5.112163-10.224325-9.201893-15.336487-13.291622h-1.022433c-3.067298-3.067298-7.157028-5.112163-10.224325-7.157028-1.022433-1.022433-2.044865-1.022433-2.044865-2.044865-3.067298-2.044865-6.134595-4.08973-10.224325-6.134595 1.022433 0 0-1.022433-1.022432-1.022432-3.067298-2.044865-6.134595-3.067298-9.201893-5.112163-1.022433-1.022433-3.067298-1.022433-4.08973-2.044865-6.134595-3.067298-13.291623-5.112163-20.44865-7.157028-1.022433 0-2.044865-1.022433-2.044865-1.022432-2.044865-1.022433-4.08973-1.022433-7.157028-1.022433-3.067298-1.022433-5.112163-1.022433-8.17946-1.022432-2.044865 0-4.08973 0-6.134595-1.022433-3.067298 0-5.112163 0-8.17946-1.022432h-15.336488c-2.044865 0-4.08973 0-6.134595 1.022432-3.067298 0-6.134595 1.022433-10.224325 2.044865-2.044865 0-3.067298 1.022433-5.112162 1.022433-5.112163 1.022433-9.201893 2.044865-14.314055 4.08973-5.112163 2.044865-9.201893 4.08973-14.314056 6.134595-1.022433 1.022433-3.067298 2.044865-4.08973 2.044865-3.067298 2.044865-6.134595 3.067298-8.17946 5.112163-2.044865 1.022433-3.067298 2.044865-5.112162 3.067297-2.044865 2.044865-5.112163 3.067298-7.157028 5.112163-2.044865 1.022433-3.067298 3.067298-5.112162 4.08973l-6.134595 6.134595c-2.044865 2.044865-3.067298 3.067298-4.08973 5.112162-2.044865 2.044865-3.067298 4.08973-5.112163 6.134595-1.022433 2.044865-3.067298 3.067298-4.08973 5.112163 0 1.022433-1.022433 1.022433-1.022432 2.044865-4.08973 6.134595-8.17946 12.26919-11.246758 18.403785-1.022433 1.022433-1.022433 3.067298-2.044865 4.08973-2.044865 3.067298-3.067298 6.134595-4.08973 10.224325-1.022433 1.022433-1.022433 2.044865-1.022433 4.08973-1.022433 3.067298-3.067298 7.157028-4.08973 11.246758 0 1.022433-1.022433 2.044865-1.022432 3.067297L100.178961 225.957584v1.022433c-5.112163 23.515948-6.134595 49.07676-2.044865 75.660006-84.861898 38.852435-120.647036 150.297579-81.7946 256.630559C43.945173 634.930588 102.223826 688.097078 165.614642 705.478431c-2.044865 23.515948 1.022433 48.054328 10.224325 72.592708 21.471083 60.323518 72.592708 100.198386 123.714334 103.265684 2.044865 11.246758 4.08973 17.381353 4.08973 17.381352 30.672975 84.861898 110.422711 134.961091 187.105149 123.714334-53.16649-8.17946-99.175953-42.942165-125.759199-92.018926zM926.304428 301.61759c4.08973-26.583245 3.067298-52.144058-2.044865-75.660006v-1.022432l-3.067297-12.26919c0-1.022433-1.022433-2.044865-1.022433-3.067298-1.022433-4.08973-2.044865-7.157028-4.08973-11.246757 0-1.022433-1.022433-2.044865-1.022432-4.08973-1.022433-3.067298-3.067298-6.134595-4.08973-10.224325-1.022433-1.022433-1.022433-3.067298-2.044865-4.08973-3.067298-6.134595-7.157028-12.26919-11.246758-18.403786 0-1.022433-1.022433-1.022433-1.022432-2.044865-1.022433-2.044865-3.067298-4.08973-4.08973-5.112162-2.044865-2.044865-3.067298-4.08973-5.112163-6.134595-1.022433-2.044865-3.067298-3.067298-4.08973-5.112163l-6.134595-6.134595c-2.044865-1.022433-3.067298-3.067298-5.112163-4.08973-2.044865-2.044865-5.112163-4.08973-7.157027-5.112162-2.044865-1.022433-3.067298-2.044865-5.112163-3.067298-3.067298-2.044865-6.134595-3.067298-8.17946-5.112162-1.022433-1.022433-3.067298-2.044865-4.08973-2.044865-4.08973-2.044865-9.201893-4.08973-14.314055-6.134596-5.112163-2.044865-9.201893-3.067298-14.314055-4.08973-2.044865 0-3.067298-1.022433-5.112163-1.022432-3.067298-1.022433-6.134595-1.022433-10.224325-2.044865-2.044865 0-4.08973 0-6.134595-1.022433h-15.336487c-3.067298 0-5.112163 0-8.17946 1.022433-2.044865 0-4.08973 0-6.134595 1.022432-3.067298 0-5.112163 1.022433-8.179461 1.022433-2.044865 0-4.08973 1.022433-7.157027 1.022432-1.022433 0-2.044865 1.022433-2.044865 1.022433-7.157028 2.044865-13.291623 4.08973-20.44865 7.157027-1.022433 1.022433-3.067298 1.022433-4.08973 2.044866-3.067298 1.022433-6.134595 3.067298-9.201893 5.112162-1.022433 1.022433-2.044865 1.022433-3.067297 2.044865-3.067298 2.044865-6.134595 4.08973-10.224326 6.134595-1.022433 1.022433-2.044865 1.022433-2.044865 2.044865-3.067298 2.044865-7.157028 5.112163-10.224325 7.157028h-1.022432c-5.112163 4.08973-10.224325 8.17946-15.336488 13.291622v1.022433c13.291623 1.022433 26.583245 5.112163 39.874868 9.201892 2.044865-1.022433 3.067298-2.044865 5.112163-3.067297 1.022433-1.022433 3.067298-2.044865 4.08973-2.044865l6.134595-3.067298c2.044865-1.022433 3.067298-1.022433 5.112162-2.044865l6.134595-3.067297c2.044865-1.022433 3.067298-1.022433 5.112163-2.044865s5.112163-1.022433 7.157027-2.044865c1.022433 0 3.067298-1.022433 4.08973-1.022433 4.08973-1.022433 7.157028-2.044865 11.246758-2.044865h2.044865c3.067298 0 6.134595-1.022433 9.201893-1.022432h16.35892c3.067298 0 5.112163 1.022433 8.17946 1.022432 1.022433 0 2.044865 0 4.08973 1.022433 4.08973 1.022433 7.157028 2.044865 11.246757 3.067297 4.08973 1.022433 7.157028 3.067298 11.246758 5.112163 1.022433 1.022433 2.044865 1.022433 3.067298 2.044865 2.044865 1.022433 5.112163 3.067298 7.157027 4.08973 1.022433 1.022433 2.044865 2.044865 3.067298 2.044865 2.044865 1.022433 4.08973 3.067298 6.134595 5.112162 1.022433 1.022433 2.044865 2.044865 3.067297 2.044865 2.044865 2.044865 5.112163 4.08973 7.157028 6.134595 0 1.022433 1.022433 1.022433 2.044865 2.044865 3.067298 3.067298 5.112163 6.134595 7.157027 9.201893 1.022433 1.022433 2.044865 2.044865 2.044865 3.067298 1.022433 2.044865 3.067298 4.08973 4.08973 6.134595 1.022433 1.022433 2.044865 3.067298 3.067298 4.08973l3.067298 6.134595c1.022433 2.044865 2.044865 3.067298 2.044865 5.112162 1.022433 2.044865 2.044865 4.08973 3.067297 7.157028 1.022433 2.044865 1.022433 3.067298 2.044865 5.112162 1.022433 3.067298 2.044865 7.157028 3.067298 11.246758 1.022433 2.044865 1.022433 4.08973 1.022432 6.134595 0 2.044865 1.022433 4.08973 1.022433 6.134595 0 2.044865 1.022433 4.08973 1.022432 6.134595 0 2.044865 0 4.08973 1.022433 6.134595 0 2.044865 0 4.08973 1.022432 7.157028V278.101642c0 4.08973 0 8.17946-1.022432 12.26919 0 2.044865 0 3.067298-1.022433 5.112163 0 2.044865-1.022433 4.08973-1.022432 7.157028-1.022433 8.17946-3.067298 17.381353-6.134595 25.560812 4.08973 1.022433 8.17946 2.044865 11.246757 3.067298 6.134595 2.044865 12.26919 5.112163 17.381353 8.17946 63.390816 35.785138 89.974061 123.714334 59.301085 208.576232-23.515948 63.390816-72.592708 108.377846-126.781631 120.647036-12.26919 3.067298-24.53838 4.08973-36.80757 3.067297 6.134595 11.246758 9.201893 24.53838 11.246758 37.830003 2.044865 18.403785 0 36.80757-7.157028 56.233788-15.336488 41.919733-50.099193 70.547843-85.884331 76.682438 0 0-47.031895 7.157028-57.25622-23.515948l-10.224325 40.897301c0 8.17946 10.224325 13.291623 22.493515 16.35892h-1.022433c-1.022433 5.112163-2.044865 8.17946-2.044865 11.246758-6.134595 16.35892-14.314055 30.672975-24.53838 42.942165-26.583245 49.07676-72.592708 83.839466-125.759198 90.996493 76.682438 11.246758 156.432174-38.852435 187.105149-123.714333 0 0 1.022433-6.134595 4.08973-17.381353 51.121625-3.067298 101.220818-42.942165 123.714333-103.265683 9.201893-24.53838 12.26919-49.07676 10.224325-72.592708C921.192266 688.097078 978.448486 634.930588 1006.054164 559.270582c38.852435-106.332981 3.067298-217.778124-79.749736-257.652992z" p-id="40102" fill="#ffffff"></path></svg>