<?xml version="1.0" standalone="no"?><!DOCTYPE svg PUBLIC "-//W3C//DTD SVG 1.1//EN" "http://www.w3.org/Graphics/SVG/1.1/DTD/svg11.dtd"><svg t="1597149868462" class="icon" viewBox="0 0 1024 1024" version="1.1" xmlns="http://www.w3.org/2000/svg" p-id="40940" xmlns:xlink="http://www.w3.org/1999/xlink" width="200" height="200"><defs><style type="text/css"></style></defs><path d="M873.664 245.152c0-72.096-21.984-177.088-63.968-238.208C806.72 2.592 801.792 0 796.512 0L221.152 0C215.872 0 210.944 2.592 207.968 6.944 165.984 68.128 144 173.088 144 245.152 144 434.976 295.36 646.08 496 656.96L496 928 364.832 928c-36.512-2.4-64 25.088-64 61.6L300.832 1008c0 8.832 7.168 16 16 16l384 0c8.832 0 16-7.168 16-16L716.832 992c0-37.248-28.128-66.4-64-64L528 928l0-271.04C728.64 646.08 873.664 434.976 873.664 245.152zM684.832 992l-352 0 0-2.4c0-18.848 13.152-32 32-32l288 0C671.104 957.6 684.832 972.384 684.832 992zM229.824 32 787.84 32c33.696 54.144 52.192 143.04 53.536 205.696-27.04-6.272-55.872-9.92-88.64-9.92-101.152 0-152.288 29.472-201.76 57.984-47.904 27.616-93.152 53.696-185.728 53.696S227.488 313.312 179.616 285.696L178.656 285.12C177.056 271.712 176 258.336 176 245.152 176 182.336 194.816 88.288 229.824 32zM185.952 326.016c43.424 23.968 93.216 45.376 179.328 45.376 101.12 0 152.256-29.472 201.728-57.984 47.904-27.584 93.152-53.696 185.76-53.696 32.8 0 61.408 3.52 87.648 10.24-12.704 169.984-152.864 356-331.552 356C349.696 625.984 221.216 478.368 185.952 326.016z" p-id="40941" fill="#ffffff"></path></svg>