<?xml version="1.0" standalone="no"?><!DOCTYPE svg PUBLIC "-//W3C//DTD SVG 1.1//EN" "http://www.w3.org/Graphics/SVG/1.1/DTD/svg11.dtd"><svg t="1597149967738" class="icon" viewBox="0 0 1024 1024" version="1.1" xmlns="http://www.w3.org/2000/svg" p-id="41746" xmlns:xlink="http://www.w3.org/1999/xlink" width="200" height="200"><defs><style type="text/css"></style></defs><path d="M730.59328 476.416c-20.6848 17.408-54.0672 27.7504-91.5968 28.3648a23.1424 23.1424 0 0 0-9.9328 2.4576 23.1936 23.1936 0 0 0-16.0768 6.1952l-14.08 13.1584a23.1424 23.1424 0 0 0-9.728 9.0624l-211.456 197.3248a69.888 69.888 0 0 1-98.7136-3.4304 69.888 69.888 0 0 1 3.3792-98.7136L516.62848 412.3648l1.1264-1.024c2.1504-2.048 4.4032-3.84 6.7584-5.5296a23.552 23.552 0 0 0 1.792-1.4848 23.1936 23.1936 0 0 0 8.704-18.1248c0-34.8672 14.6944-71.0144 37.376-92.0064 18.5344-17.152 44.7488-25.4976 80.128-25.4976h2.56l-8.6016 6.9632a82.688 82.688 0 0 0-30.2592 56.064c-2.304 22.1696 4.096 43.8784 18.1248 61.0816 13.9776 17.2032 33.8944 27.9552 56.064 30.2592 22.1696 2.304 43.8784-4.096 61.0816-18.1248l18.4832-15.0016c-1.024 33.8944-15.872 66.7648-39.3216 86.4768m-10.752 244.6336a31.5392 31.5392 0 0 1-33.5872 29.8496 31.5904 31.5904 0 0 1-21.9136-10.5984L561.83808 624.8448l46.5408-43.4176 103.5776 116.6336c5.632 6.2976 8.3968 14.4896 7.8848 23.04m-437.248-406.6304l-20.3264-25.4976a107.7248 107.7248 0 0 0-7.0144-7.936 195.584 195.584 0 0 1 11.1616-10.5984l0.6656-0.6144c10.4448-10.0864 16.1792-13.312 18.5344-14.336 2.3552 2.0992 6.144 6.8096 7.68 8.7552l20.3264 25.4976c3.2768 4.096 4.7616 9.3184 4.1472 14.592a19.8144 19.8144 0 0 1-35.1232 10.1376m526.6944 23.6032l-12.1856-39.7824-27.5456 31.232a37.0688 37.0688 0 0 1-4.352 4.1984l-43.1616 35.072a36.4544 36.4544 0 0 1-26.9312 7.9872 36.4544 36.4544 0 0 1-32.7168-40.2432 36.4544 36.4544 0 0 1 13.312-24.7296l43.1616-35.072a37.5808 37.5808 0 0 1 1.792-1.3824l33.792-24.1664L716.30848 235.008A163.072 163.072 0 0 0 652.46208 222.1568c-47.0016 0-84.6336 12.7488-111.7696 37.888-29.696 27.4944-48.9472 70.656-51.8656 114.688l-2.8672 2.56-47.872 44.6464-83.2-85.5552a66.4064 66.4064 0 0 0-4.864-75.6224L329.64608 235.2128c-8.0384-10.0864-20.1728-25.2928-40.448-26.624C268.05248 207.2064 249.21088 222.4128 235.13088 236.032c-18.7904 16.7936-29.7984 29.5936-30.208 45.1072-0.512 14.7456 8.704 23.9616 14.7456 30.0544 2.2016 2.2016 4.3008 4.3008 6.2976 6.7584l20.3264 25.5488a65.8944 65.8944 0 0 0 52.0704 24.9344c6.8096 0 13.4656-1.0752 19.8144-3.072l85.9136 88.3712L250.64448 596.7872a116.5312 116.5312 0 0 0-5.6832 164.5056c22.8864 24.576 53.9648 36.9664 85.1456 36.9664 28.416 0 56.9344-10.3424 79.36-31.232l118.272-110.3872 101.8368 114.5856c15.4624 17.408 36.9664 26.3168 58.624 26.3168a78.4384 78.4384 0 0 0 58.5216-130.3552L643.75808 551.168c29.0304-0.9216 79.2064-7.5264 116.7872-39.1168 17.5616-14.7968 32-34.6112 41.7792-57.344 9.2672-21.6064 14.1824-45.2608 14.1824-68.5056a163.84 163.84 0 0 0-7.168-48.128" p-id="41747" fill="#ffffff"></path><path d="M333.94688 653.1072a29.44 29.44 0 1 0 29.44 29.4912 29.44 29.44 0 0 0-29.44-29.4912" p-id="41748" fill="#ffffff"></path></svg>