<?xml version="1.0" standalone="no"?><!DOCTYPE svg PUBLIC "-//W3C//DTD SVG 1.1//EN" "http://www.w3.org/Graphics/SVG/1.1/DTD/svg11.dtd"><svg t="1597149997768" class="icon" viewBox="0 0 1024 1024" version="1.1" xmlns="http://www.w3.org/2000/svg" p-id="42854" xmlns:xlink="http://www.w3.org/1999/xlink" width="200" height="200"><defs><style type="text/css"></style></defs><path d="M805.92 517.84A18.08 18.08 0 0 0 787.84 536v357.52a18.08 18.08 0 1 0 36.24 0V536a18.08 18.08 0 0 0-18.16-18.16zM748.24 739.52H264A18.08 18.08 0 0 0 264 776h484.24a18.08 18.08 0 0 0 0-36.24zM748.24 875.28H264a18.08 18.08 0 0 0 0 36.24h484.24a18.08 18.08 0 0 0 0-36.24zM206.48 516.72a18.08 18.08 0 0 0-18.08 18.08v357.44a18.08 18.08 0 1 0 36.16 0V534.88a18.08 18.08 0 0 0-18.08-18.16z" p-id="42855" fill="#ffffff"></path><path d="M906.72 498.08L526 117.36a17.44 17.44 0 0 0-14-4.8 17.68 17.68 0 0 0-13.92 4.8l-380.8 380.72a18.08 18.08 0 0 0 25.6 25.6L512 154.56l369.12 369.12a18.08 18.08 0 0 0 25.68-25.6z" p-id="42856" fill="#ffffff"></path></svg>