<?xml version="1.0" standalone="no"?><!DOCTYPE svg PUBLIC "-//W3C//DTD SVG 1.1//EN" "http://www.w3.org/Graphics/SVG/1.1/DTD/svg11.dtd"><svg t="1597150050981" class="icon" viewBox="0 0 1024 1024" version="1.1" xmlns="http://www.w3.org/2000/svg" p-id="45009" xmlns:xlink="http://www.w3.org/1999/xlink" width="200" height="200"><defs><style type="text/css"></style></defs><path d="M761.92768 1003.52 262.07232 1003.52c-41.41056 0-74.97728-33.82272-74.97728-75.54048l0.01024-857.51808C187.09504 42.28096 202.9568 20.48 237.08672 20.48l549.82656 0c36.1984 0 49.98144 28.04736 49.98144 49.98144l0.01024 857.51808C836.90496 969.69728 803.33824 1003.52 761.92768 1003.52L761.92768 1003.52zM520.32512 970.24c27.60704 0 49.99168-22.4256 49.99168-50.09408 0-27.66848-22.38464-50.10432-49.99168-50.10432-27.5968 0-49.98144 22.4256-49.98144 50.10432C470.35392 947.8144 492.72832 970.24 520.32512 970.24L520.32512 970.24zM220.416 53.80096l0 783.09376 583.15776 0L803.57376 53.80096 220.416 53.80096z" p-id="45010" fill="#ffffff"></path></svg>