<?xml version="1.0" standalone="no"?><!DOCTYPE svg PUBLIC "-//W3C//DTD SVG 1.1//EN" "http://www.w3.org/Graphics/SVG/1.1/DTD/svg11.dtd"><svg t="1597142137856" class="icon" viewBox="0 0 1024 1024" version="1.1" xmlns="http://www.w3.org/2000/svg" p-id="19904" xmlns:xlink="http://www.w3.org/1999/xlink" width="200" height="200"><defs><style type="text/css"></style></defs><path d="M796.979 355.09a588.586 588.586 0 0 0-68.046-64.551c-3.458-2.824-6.105-4.8-9.176-7.165 43.023-15.67 73.128-53.187 73.128-97.621 0-59.787-53.575-105.562-117.174-105.562a106.41 106.41 0 0 0-40.199 7.8 83.398 83.398 0 0 0-13.27 6.705c-2.259 0.988-6.988-0.141-8.294-1.835l-0.035 0.035a134.467 134.467 0 0 0-22.835-27.034c-20.223-18.635-44.152-30.141-71.54-30.141-27.352 0-51.316 11.506-71.54 30.14a133.62 133.62 0 0 0-22.375 26.47l-0.035-0.035c-1.871 2.294-6.636 3.494-8.294 2.647a87.916 87.916 0 0 0-13.73-6.953 106.939 106.939 0 0 0-40.199-7.8c-63.598 0-117.138 45.776-117.138 105.563 0 37.975 22.094 70.869 55.34 89.433-3.565 2.718-7.13 5.435-10.623 8.223a541.752 541.752 0 0 0-67.905 63.917c-62.857 70.48-101.044 151.09-101.044 240.559 0 248.112 174.419 366.097 384.52 366.097 88.057 0 174.137-18.635 243.77-62.575 94.552-59.68 148.303-159.914 148.303-303.522 0-84.14-38.434-162.244-101.61-232.795zM506.515 898.536c-184.902 0-332.463-99.774-332.463-310.687 0-73.233 32.258-141.314 86.751-202.407a488.742 488.742 0 0 1 61.163-57.598 432.202 432.202 0 0 1 27.035-19.623c29.329-20.576 26.576-56.787-2.153-72.246l0.07-0.317-0.176-0.106-0.353-0.177-0.988-0.494-1.376-0.706v0.036l-0.741-0.389-0.565-0.211-0.106-0.071-0.035 0.035-3-1.235c-25.376-7.87-41.293-26.929-41.293-46.622 0-26.188 28.022-50.117 65.08-50.117a57.457 57.457 0 0 1 28.023 7.235l3.177 1.941c23.54 12.177 53.857 4.518 70.727-16.658l2.189-3.212a82.586 82.586 0 0 1 14.576-17.117c11.505-10.623 24.07-16.694 37.517-16.694 13.376 0 25.94 6.07 37.481 16.694 7.306 6.706 12.388 13.411 14.54 17.117l1.766 2.647c16.411 21.74 47.046 29.011 70.657 17.506l3.706-2.224a58.057 58.057 0 0 1 27.987-7.235c37.093 0 65.116 23.964 65.116 50.152 0 19.658-15.952 38.717-41.293 46.587l-3.706 1.482a81.316 81.316 0 0 1-13.976 5.788c-36.493 11.965-42.705 51.458-13.129 73.516 2.859 1.942 5.647 3.918 8.435 5.894a531.694 531.694 0 0 1 82.092 74.293c54.881 61.234 87.28 127.091 87.28 194.536 0 221.819-140.82 310.687-340.015 310.687z m108.492-326.321c11.964 0 21.67-10.518 21.67-23.541 0-12.953-9.706-23.505-21.67-23.505h-88.622l82.269-89.151a24.917 24.917 0 0 0 0-33.247 20.576 20.576 0 0 0-30.705 0L506.55 480.17l-71.433-77.399a20.576 20.576 0 0 0-30.705 0 24.988 24.988 0 0 0 0 33.247l82.304 89.15h-88.657c-11.965 0-21.706 10.553-21.706 23.506 0 13.023 9.741 23.54 21.706 23.54h86.786v23.506h-86.786c-11.965 0-21.706 10.517-21.706 23.505s9.741 23.506 21.706 23.506h86.786v67.727c0 9.918 9.706 17.965 21.67 17.965 12 0 21.705-8.047 21.705-17.965v-67.727h86.787c11.964 0 21.67-10.518 21.67-23.506s-9.706-23.505-21.67-23.505H528.22v-23.505h86.787z" p-id="19905" fill="#ffffff"></path></svg>