<?xml version="1.0" standalone="no"?><!DOCTYPE svg PUBLIC "-//W3C//DTD SVG 1.1//EN" "http://www.w3.org/Graphics/SVG/1.1/DTD/svg11.dtd"><svg t="1597142230214" class="icon" viewBox="0 0 1024 1024" version="1.1" xmlns="http://www.w3.org/2000/svg" p-id="20750" xmlns:xlink="http://www.w3.org/1999/xlink" width="200" height="200"><defs><style type="text/css"></style></defs><path d="M454.613333 691.2h114.773334a34.346667 34.346667 0 0 1 0 68.906667h-114.773334a34.346667 34.346667 0 1 1 0-68.906667z" fill="#ffffff" p-id="20751"></path><path d="M546.346667 232.106667h-68.693334a103.253333 103.253333 0 1 0-206.506666 0H202.026667a172.16 172.16 0 0 1 344.32 0z" fill="#ffffff" p-id="20752"></path><path d="M821.973333 232.106667H753.066667a103.253333 103.253333 0 0 0-206.506667 0h-68.906667a172.16 172.16 0 0 1 344.32 0z" fill="#ffffff" p-id="20753"></path><path d="M879.36 232.106667H144.64a91.733333 91.733333 0 0 0-91.733333 91.733333v91.733333a91.733333 91.733333 0 0 0 91.733333 91.733334h734.72a91.733333 91.733333 0 0 0 91.733333-91.733334v-91.733333a91.733333 91.733333 0 0 0-91.733333-91.733333z m23.04 185.173333a21.333333 21.333333 0 0 1-21.333333 21.333333H143.146667a21.333333 21.333333 0 0 1-21.333334-21.333333v-94.506667a21.333333 21.333333 0 0 1 21.333334-21.333333h737.706666a21.333333 21.333333 0 0 1 21.333334 21.333333z" fill="#ffffff" p-id="20754"></path><path d="M144.64 438.613333v390.4a137.813333 137.813333 0 0 0 137.813333 137.813334h458.88a137.813333 137.813333 0 0 0 137.813334-137.813334v-390.4zM810.666667 833.706667a64 64 0 0 1-64 64H277.333333a64 64 0 0 1-64-64V507.52h597.333334z" fill="#ffffff" p-id="20755"></path></svg>