<?xml version="1.0" standalone="no"?><!DOCTYPE svg PUBLIC "-//W3C//DTD SVG 1.1//EN" "http://www.w3.org/Graphics/SVG/1.1/DTD/svg11.dtd"><svg t="1597142541779" class="icon" viewBox="0 0 1024 1024" version="1.1" xmlns="http://www.w3.org/2000/svg" p-id="22659" xmlns:xlink="http://www.w3.org/1999/xlink" width="200" height="200"><defs><style type="text/css"></style></defs><path d="M508.523 957.623H97.338c-41.283 0-74.833-33.572-74.833-74.829V108.373c0-41.278 33.55-74.833 74.833-74.833h637.979c41.278 0 74.829 33.556 74.829 74.833V464.4h-40.818V108.373c0-18.749-15.268-34.016-34.011-34.016H97.338c-18.749 0-34.016 15.267-34.016 34.016v774.421c0 18.744 15.268 34.011 34.016 34.011h411.185v40.818z m-367.178-740.4H637.84v40.823H141.345v-40.823z m0 180.286h355.042v40.817H141.345v-40.817z m0 181.395h213.59v40.828h-213.59v-40.828z m614.978 429.557c-134.106 0-243.203-109.102-243.203-243.197 0-134.107 109.097-243.197 243.203-243.197S999.52 631.157 999.52 765.264c0.001 134.095-109.122 243.197-243.197 243.197z m0-445.557c-111.604 0-202.38 90.787-202.38 202.38 0 111.604 90.775 202.38 202.38 202.38 111.593 0 202.38-90.775 202.38-202.38 0-111.593-90.807-202.38-202.38-202.38z m-6.345 336.404c-11.268 0-20.409-9.142-20.409-20.409V745.127c0-11.268 9.142-20.408 20.409-20.408s20.409 9.141 20.409 20.408v133.771c0 11.268-9.143 20.41-20.409 20.41z m-2.116-117.039c-4.681 0-9.362-1.581-13.173-4.816-8.598-7.288-9.666-20.168-2.398-28.765l75.32-89.038c7.268-8.629 20.168-9.665 28.766-2.398 8.607 7.299 9.664 20.168 2.397 28.765l-75.32 89.039c-4.032 4.762-9.802 7.213-15.592 7.213z m5.927-0.167c-5.77 0-11.539-2.439-15.539-7.205l-75.457-88.901c-7.32-8.607-6.23-21.477 2.335-28.765 8.544-7.268 21.497-6.262 28.765 2.335l75.467 88.901c7.32 8.607 6.23 21.478-2.346 28.766-3.832 3.298-8.544 4.869-13.225 4.869z m54.504 15.591h-116.6c-11.268 0-20.408-9.142-20.408-20.408 0-11.268 9.141-20.409 20.408-20.409h116.6c11.267 0 20.408 9.142 20.408 20.409s-9.141 20.408-20.408 20.408z m0 49.749h-116.6c-11.268 0-20.408-9.142-20.408-20.408 0-11.268 9.141-20.409 20.408-20.409h116.6c11.267 0 20.408 9.142 20.408 20.409s-9.141 20.408-20.408 20.408z" fill="#ffffff" p-id="22660"></path></svg>