<?xml version="1.0" standalone="no"?><!DOCTYPE svg PUBLIC "-//W3C//DTD SVG 1.1//EN" "http://www.w3.org/Graphics/SVG/1.1/DTD/svg11.dtd"><svg t="1597142631145" class="icon" viewBox="0 0 1024 1024" version="1.1" xmlns="http://www.w3.org/2000/svg" p-id="23538" xmlns:xlink="http://www.w3.org/1999/xlink" width="200" height="200"><defs><style type="text/css"></style></defs><path d="M838.4 326.4 838.4 294.4c0-44.8-32-76.8-76.8-76.8l-51.2 0-12.8-32c0-6.4-6.4-12.8-12.8-12.8-6.4 0-12.8-6.4-19.2 0L531.2 217.6 198.4 217.6c-44.8 0-76.8 32-76.8 76.8l0 128c0 6.4 0 6.4 0 12.8l0 352c0 44.8 32 76.8 76.8 76.8L832 864c44.8 0 76.8-32 76.8-76.8L908.8 403.2C908.8 364.8 876.8 332.8 838.4 326.4zM857.6 614.4l-57.6 0c-12.8 0-25.6-12.8-25.6-25.6 0-12.8 12.8-25.6 25.6-25.6l57.6 0L857.6 614.4zM761.6 268.8c12.8 0 25.6 12.8 25.6 25.6l0 32-32 0-19.2-57.6L761.6 268.8zM691.2 326.4 396.8 326.4l147.2-57.6c6.4 0 12.8 0 12.8-6.4l102.4-38.4L691.2 326.4zM198.4 268.8l192 0L236.8 326.4 198.4 326.4c-6.4 0-19.2 0-25.6 6.4L172.8 294.4C172.8 281.6 179.2 268.8 198.4 268.8zM832 806.4 198.4 806.4c-12.8 0-25.6-12.8-25.6-25.6L172.8 403.2c0-12.8 12.8-25.6 25.6-25.6l44.8 0c0 0 0 0 0 0L832 377.6c12.8 0 25.6 12.8 25.6 25.6l0 102.4-57.6 0c-44.8 0-76.8 32-76.8 76.8 0 44.8 32 76.8 76.8 76.8l57.6 0 0 115.2C857.6 793.6 844.8 806.4 832 806.4z" p-id="23539" fill="#ffffff"></path></svg>